<svg width="241" height="64" viewBox="0 0 241 64" fill="none" xmlns="http://www.w3.org/2000/svg">
<g clip-path="url(#clip0_292_202)">
<path d="M47.7491 42.0059C49.5226 38.8696 50.4608 35.2883 50.4608 31.6316C50.4608 20.3259 41.5998 11.1294 30.6982 11.1294C19.7965 11.1294 10.9355 20.3259 10.9355 31.6316C10.9355 42.9372 19.7965 52.1337 30.6982 52.1337C34.5329 52.1337 38.2444 50.9902 41.4491 48.8331L52.7205 53.6471L47.7422 42.0059H47.7491Z" fill="white" fill-opacity="0.9"/>
<path d="M89.9449 63.097C77.6463 63.097 70.3877 54.9824 70.3877 43.4507V18.0867H81.6591V43.7931C81.6591 46.272 82.5151 52.1611 89.9449 52.1611C94.8958 52.1611 98.484 48.6619 98.484 43.7931V18.0867H109.755V43.4576C109.755 54.6468 101.901 63.1038 89.938 63.1038L89.9449 63.097Z" fill="#F15A24"/>
<path d="M160.922 48.0661C158.361 57.0367 150.589 63.0969 139.653 63.0969C127.183 63.0969 117.103 52.8458 117.103 40.1227C117.103 27.3996 127.183 16.9773 139.653 16.9773C150.246 16.9773 159.128 23.6402 161.264 35.4251L130.175 48.4907C132.394 51.4831 135.729 53.1882 139.571 53.1882C143.412 53.1882 147 51.5653 148.883 48.0661H160.929H160.922ZM148.281 30.8098C146.233 28.3309 143.159 26.8791 139.571 26.8791C133.079 26.8791 127.868 32.0013 127.614 39.5201L148.288 30.8098H148.281Z" fill="#F15A24"/>
<path d="M191.586 27.8242C184.41 26.5437 179.63 30.3853 179.63 36.6236V62.0767H168.358V36.6236C168.358 24.1539 176.987 15.4435 191.593 17.2376V27.8311L191.586 27.8242Z" fill="#F15A24"/>
<path d="M220.962 27.8242C213.786 26.5437 209.006 30.3853 209.006 36.6236V62.0767H197.728V36.6236C197.728 24.1539 206.356 15.4435 220.962 17.2376V27.8311V27.8242Z" fill="#F15A24"/>
<path d="M240.013 1.34399V7.39741C240.013 10.3214 237.89 12.9098 234.987 13.2591C231.611 13.6631 228.653 11.061 228.653 7.66447V1.34399H240.013Z" fill="#F15A24"/>
<path d="M239.931 18.0867H228.653V62.0766H239.931V18.0867Z" fill="#F15A24"/>
<path d="M61.3279 48.2443L59.4654 42.6291C60.739 39.1299 61.4033 35.4047 61.4033 31.6385C61.3964 14.2931 47.6256 0.193604 30.7048 0.193604C13.784 0.193604 0.0131836 14.2931 0.0131836 31.6316C0.0131836 48.9701 13.784 63.0697 30.7048 63.0697C34.7107 63.0697 38.6277 62.2822 42.2775 60.7551L46.7696 62.3917C48.0296 62.8505 49.3307 63.0697 50.6249 63.0697C53.5078 63.0697 56.3428 61.9603 58.4861 59.8786C61.5882 56.8656 62.6907 52.3461 61.3279 48.2443ZM41.4215 48.4497C38.3469 50.5657 34.6697 51.7983 30.7048 51.7983C19.9812 51.7983 11.2846 42.7729 11.2846 31.6385C11.2846 20.504 19.9744 11.4787 30.7048 11.4787C41.4352 11.4787 50.125 20.504 50.125 31.6385C50.125 35.4253 49.1184 38.9656 47.3722 41.9923L52.0835 53.0103L41.4284 48.4566L41.4215 48.4497Z" fill="#F15A24"/>
</g>
<defs>
<clipPath id="clip0_292_202">
<rect width="240" height="63.0801" fill="white" transform="translate(0.0131836 0.105225)"/>
</clipPath>
</defs>
</svg>
