<?xml version="1.0" encoding="UTF-8"?><svg id="Layer_1" xmlns="http://www.w3.org/2000/svg" viewBox="0 0 1944 1944"><defs><style>.cls-1{fill:#d72931;}.cls-2{fill:#eadcbf;}</style></defs><path d="M1290.16,974.48V440.86l58.02-8.58,142.69-176.85h-537.25l-11.02-204.67c-8.45-1.94-508.18,1107.67-508.18,1107.67h215.51l93.62-191.1h37.58v191.1h709.72l-142.68-175.38-58.02-8.58ZM1068.05,974.48l-58.02,8.58-16.16,20.03-34.09-633.08,50.25,62.28,58.02,8.58v533.62Z"/><path class="cls-1" d="M828.49,1114.91v-190.61h-115.65l-93.62,190.61h-126.93S905.71,221.35,910.33,222.41l31.57,892.5h-113.42ZM828.49,807.1v-156.3l-67.31,156.3h67.31Z"/><path class="cls-2" d="M539.5,1086.22h59.23l93.63-190.61h167.69v190.61h50.28l-17.55-760.36-353.28,760.36ZM860.06,835.79h-145.14l145.14-316.69v316.69Z"/><path d="M683.41,490.11c-.09.53.42,1.42.26,1.81-.71,1.87-4.54,9.91-5.3,10.56-1.04.89-6.87-1.26-8.2.59-3.04,4.22-3.15,6.97-.11,8.84,6.95,4.27,13.55-7.18,20.51-10.7,21.98-11.12,34.18,27.78,5.89,37.52-.34-.06-.59-.39-.92-.46-2.11-.47-8.04-1.14-8.73-2.95-.28-2.74,4.13-11.38,5.69-12.03,1.23-.51,6.34,3.33,8.53-1.33,2.43-5.18-2.53-8.44-6.04-7.95-3.18.44-10.11,7.98-13.86,10.36-2.24,1.42-4.64,1.05-6.79,3.25-.64-.13-1.2-.75-1.84-.93-8.36-2.25-17.37-5-14-20.1,4.09-18.33,14.3-20.36,24.91-16.46Z"/><path d="M809.91,201.44c-.44-.08-.89-.15-1.35-.2-1.36-.15-2.77-.15-4.23.05-.29.04-.65-.24-.99-.5s-.65-.52-.86-.42c-.05.02-.17.14-.33.34-.47.58-1.35,1.82-2.21,3.13-.86,1.31-1.7,2.68-2.1,3.53-.13.28-.22.5-.24.65h0l1.18,2.26s0,.01,0,.01c.48.46,1.13.89,1.88,1.3.19.1.38.2.58.3,1.78.9,3.97,1.71,5.69,2.5.38.18.74.35,1.07.53.82.44,1.68.84,2.55,1.24.44.2.87.39,1.31.59,1.74.8,3.46,1.66,4.91,2.92.36.31.71.65,1.03,1.02-.44.19-.88.36-1.31.51-.44.15-.87.29-1.3.41-1.3.36-2.58.56-3.84.67-.42.04-.84.06-1.26.08-1.26.04-2.5,0-3.73-.08-1.56-.11-3.1-.28-4.63-.42-1.29-.12-2.58-.23-3.86-.26-.73-.02-1.5.89-1.58.89-.26-.02-.45-.26-.68-.39-.08-.04-.15-.07-.24-.08-.13,0-.26-.03-.39-.08-.39-.13-.79-.41-1.25-.66-.62-.33-1.34-.61-2.33-.42-1.33.25-2.34,1.05-3.07,2.15-.09.14-.18.28-.26.43-.08.15-.16.3-.23.45,0,0,0,.01,0,.02-.49,1.03-.79,2.22-.94,3.44-.04.31-.06.62-.08.93-.01.23-.02.46-.02.68,0,.15,0,.29,0,.44,0,.32.02.63.05.93.03.31.06.61.11.9,0,.01,0,.03,0,.04.21,1.33.61,2.47,1.16,3.17.82,1.06,2.55,2.29,4.72,3.56.97.56,2.02,1.14,3.12,1.71.55.28,1.11.57,1.68.85,3.41,1.69,7.07,3.31,9.87,4.56,1.17.52,2.18.98,2.97,1.35.88.42,1.71,1.05,2.62,1.41.23.09.46.16.7.21.72.14,1.5.05,2.39-.47.31.15.69.23,1.11.29.83.12,1.83.13,2.78.29.48.08.94.2,1.38.39h0c2.49,4.1,9.32,7.49,13.82,6.95h0c.62.26,1.21.76,1.84.93.07.02.14.05.21.09.15.08.31.2.47.32.33.25.67.48.99.37.04-.01.07-.02.11-.04.68-.43,1.76-2.02,2.56-3.75,1.05-2.25,1.62-4.72.19-5.07-.17-.04-.37-.05-.59-.03.16-.34.33-.67.5-1.01.05-.11.11-.22.16-.34h0c.4-.91.93-1.78,1.32-2.7l-11.06-5.57,7.89-4.43c.17.04.31.14.46.23.07.05.15.1.22.14.08.04.15.07.24.09.48.11,1.64.53,2.21.33.15-.06.27-.16.31-.32.03-.11.03-.25-.02-.43.28.26.78.55,1.3.8.52.25,1.07.47,1.46.59h0c1.15.34,1.05.97,2.5-.42.12-.11.54-.62,1.12-1.32.14-.18.3-.36.46-.56,1.76-2.17,4.36-5.45,4.5-5.77h0c.03-.07,0-.39-.07-.84-.05-.34-.12-.75-.19-1.17-.05-.28-.1-.57-.16-.86-.03-.14-.05-.28-.08-.41-.16-.81-.31-1.45-.37-1.51-.43-.4-.99-.8-1.65-1.2s-1.42-.78-2.22-1.16c-2.15-1.01-4.65-1.95-6.63-2.77-.49-.21-.96-.4-1.37-.59-.4-.18-.85-.07-1.21.08-.18.07-.34.16-.46.22-.12.06-.2.1-.23.09-.47-.22-.92-.46-1.38-.69-.15-.08-.3-.16-.46-.23h0c-.32-2.96-4.82-5.25-7.37-3.71-.63-.28-1.22-.65-1.84-.93.11-2.21-1.84-2.88-3.4-3.49-.12-.05-.24-.09-.35-.14-.23-.09-.44-.19-.64-.29-1.57-.82-3.13-1.73-4.71-2.6-3.16-1.75-6.4-3.38-9.95-4.03Z"/><path d="M740.41,360.89c4.19-.72,6.57,4.81,9.82-3.52,5.9-15.12-11.84-10.31-19.43-4.65-.71.53-1.79-.36-3.61,2.37-16.04,24.07,13.04,38.86,26.86,41.2,10.63,1.8,24.17-2.69,26.59-19.29,1.02-7.02-7.16-20.85-11.77-18.55-.37.19-4.95,7.47-5.09,8.02-.95,3.68,6.8,7.96,1.36,13.5-5.55,5.65-16.67-.63-21.72-2.44-.25-.09-2.51,1.05-5.02-.89-5.16-3.98-4.95-14.56,2.01-15.75Z"/><path d="M747.1,432.2l-2.5.42c-.22.45-.42.91-.66,1.35-.47.88-.83,1.84-1.31,2.7-2.82,5-6.76,9.75-8.81,15.75-2.3-1.28-9.27-.48-10.57-4.37-1.2-3.6,8.34-14.39,5.89-19.04-1.41-2.68-7.81-3.64-10.41-1.03-7.31,7.33-1.63,20.62-16.92,10.03,1.47-2.55,9.09-19.77,8.95-20.74-.09-.64-7.4-4.35-8.56-5.99-7.19,9.99-11.51,22.31-17.36,33.32l49.31,24.8c4.01,2.02,13.8-17.18,15.63-21.56,3.65-8.74,3.71-10.06-.84-14.73-.43-.44-1.31-.51-1.84-.93Z"/><path d="M761.49,288.5c-7.23,15.69,4.32,23.85,11.81,28.76.7.46.71,1.9.86,1.98.9.5,1.84.95,2.76,1.39.16.08,1.34-.82,2.07-.51,5.81,2.4,16.64,6.72,23.99,2.02.59-.38,8.76-12.26,9.06-13.01,3.89-9.49-5.91-22.48-10.74-26.25-8.62-6.73-30.97-13.57-39.82,5.62ZM800.97,306.66c-5.44,11-31.52-5.16-29.77-11.82.8-3.06,3.17-4.03,5.18-4.38,5.96-1.02,29.11,7.06,24.59,16.2Z"/><path d="M842.28,127.52c-.37.21-6.57,4.81-6.87,5.19-2.18,2.7-4.53,9.07-7.23,12.11-.3.34-2.06.23-2.83,1.1-.88.99,1.52.8,1.04,2.58-.39,1.46-2.2,3.89-2.15,4.42.07.93,10.95,5.48,12.89,6.5,5.46,2.85,10.99,5.77,16.59,8.34,8.29,3.81,14.12,7.19,23.43,8.42,3.24-5.35,3.49-9.06,4.73-14.44.26-1.14,1.32-2.66,1.57-4.28,3.49-23.17-24.77-39.23-41.18-29.94ZM870.45,159.35c-1.01-1.61-4.11-.37-4.81-.73-5.72-2.88-15.76-6.37-20.28-10.2-5.08-4.31,5.02-9.45,8.88-9.38,7.21.14,21.71,7.86,16.21,20.3Z"/><path d="M600.72,650.91c.24.24.71,1.51,1.23,2.21.96,1.3,1.54,3.07,2.46,4.42-.08.14.46,2.57-.37,3.06-2.13,1.28-16.28-1.97-18.25-1.3-2.34.79-3.93,5.85-5.29,8.19-.98,1.69-4.03,6.48-4.02,7.9.1.53-1.75,2.04-.86,2.87,1.99,1.84,2.16-1.64,2.76-1.98.63-.35,1.79-.1,2.57-.42,2.23-.91,6.29-2.25,8.38-2.58,5.05-.8,13.13-1.05,18.27-1.18,2.04-.05,4.99-.01,7.04.05,1.96.69,3.73,2.1,5.7,2.69,5.52,1.65,9.58,2.87,14.92,5.4,2.21,1.05,4.44,2.09,6.65,3.13.24-.3,1.17-.46,1.62-.87.87.47,1.92,1.1,2.85,1.34,4.69-5.48,5.75-10.79,2.07-15.07-2-2.32-4.08-.6-4.6-.81-1.3-.51-2.52-1.22-3.8-1.79.29-.78,1.42-2.39,1.35-2.63-.26-.82-10.3-4.47-12.36-5.82-2.97-1.97-5.84-5.22-8.16-7.11-.52-.42-1.4-.46-1.9-.9-.26-.23-.68-.23-.95-.45l-.28-1.76-.67,1.32c-6.25-4.82-10.03-14.55-15.54-20.37-13.57,17.32-8.88,14.25-.83,22.45Z"/><path d="M467.84,916.78c3.04,2.58,6.74,1.68,8.76,2.49,5.17,2.1,10.12,4.86,15.2,7.16,1.91,3.67,8.38,6.67,12.35,5.82,1.92.84,3.77,1.86,5.7,2.69,3.05,1.29,11.73,6.6,15.12,3.93,2.21-1.74,4.61-7.35,3.89-9.82-.19-.63-5.89-5.87-6.42-6.12l-48.45-22.83c-2.44-1.15-10.72,12.8-6.14,16.68Z"/><path d="M398.74,1059.66c-3.61,7.28-7.65,14.43-11.12,21.75-1.02,2.14-2.56,4.52-3.35,6.58-.15.39.36,1.25.28,1.76,7.48,1,8.8,5.2,15.14-4.29,3.5-5.24,2.16-9.28,8.49-7.42.64,3.05,5.65,5.41,8.55,4.03,6.96,2.52,13.81,5.23,20.62,8.08,1.72.72,4.01,2.04,6.19,2.92,5.17,2.09,7.7,6.85,12.92,1.19,1.5-6.01.2-9.68.2-9.68-2.17-1.11-4.46-2.05-6.64-3.14-8.57-4.29-17.35-8.49-26.14-12.38-2.39-1.06-12.34-2.76-12.72-6.01-.07-.56,5.21-10.43,4.75-12.13-.17-.64-8.86-6.62-9.54-6.27-4.36,4.86-5.16,10.03-7.64,15.02Z"/><path d="M536.29,759.09c11.83,10.61,16.04-9.9,17.95-11.19,1.88-1.27,6.48.54,8.53.82l2.85,1.34,1.9.9,8.55,4.03c6.63,3.12,13.43,6.07,19.95,9.4.62.32,1.29.55,1.9.9,1.28.71,1.61,4.9,6.21,3.07,8.01-3.19,8.4-23.38-1.42-17.13-.3-.17-.63-.3-.95-.45-1.83-.86-3.82-2.13-5.7-2.69-.3-.09-1.97.45-3.52-.03l-29.74-15.63c1.28-2,6.48-14.08,6.34-14.88-.17-.97-7.1-2.88-8.46-4.09l4.84-2.58-3.12-3.11c-4.3,6.08-27.14,48.8-26.11,51.32Z"/><path d="M474.49,980.55c-10.52-5.05-21.22-9.84-31.68-15.03-2.53,1.3-9.79,11.8-6.84,13.2l22.33,10.52c-1.31,1.97-5.44,11.55-6.02,11.85-1.03.54-15.45-5.83-17.77-6.75-10.08-3.99-5.92-.67-14.29,9.58,8.87,4.18,18.14,7.58,27.27,11.22,1.63.65,3.12,1.59,4.75,2.24,2.48.99,5.09.9,7.32,1.82.65.27,1.25.63,1.9.9,1.3.52,2.51,1.24,3.8,1.79,1.93.82,3.8,1.79,5.7,2.69l2.85,1.34-.67,1.32c1.18,1.73,3.38.37,4.47.47,1.74.17,3.48,1.08,5.42.92,1.58-3.94,3.95-7.99,5.07-12.29-.57-.38-1.29-.56-1.9-.9-6.14-3.36-12.37-6.56-19-8.95.15-1.01.09-1.8.39-3.08.25-1.06.31-2.88.39-3.08.27-.69.95-2.12,1.34-2.63l1.62-.87c3.27-1.2,3.91.46,6.37,1.37l-.18,1.51,1.13-1.07c.65.26,1.25.63,1.9.9,3.31,1.34,8.79,5.27,11.73,5.59,1.32.15,1.74-2.31,1.96-2.41,1.72-4.73-5.82-4.8-4.99-6.43,4.15.97,6.48.43,10.34-4.1-.59-.36-1.3-.55-1.9-.9-7.09-4.05-15.36-7.17-22.8-10.74Z"/><path d="M543.64,824.48c-4.23-10.17-21.66-15.43-31.17-2.91-1.32,1.74-3.4,6.55-3.73,6.8h0c-.82.63-.68-3.54-3.91,3.05-.42.86-1.03,1.8-1.34,2.63-3.52,1.87-8.6,14.07-6.39,16.39.97,1.02,4.33.53,6.14,1.36,14.58,6.67,32.37,16.77,47.7,20.92.56.15,1.81-.44,2.57-.42,1.44-3.53,5.11-7.74,4.41-10.98-.55-2.56-15.22-9.47-18.33-10.27l1.34-2.63c4.9-.91,24-.55,25.27-1.34,1.02-.63,7.6-12.18,4.38-14.13-3.95-2.39-22.53.89-25.41-1.03-1.04-.7-.77-5.6-1.54-7.44ZM508.74,828.37c-.48.97-.82,1.81-1.14,2.45.31-.64.66-1.47,1.14-2.45ZM507.6,830.84c-.11.23-.23.44-.34.61.11-.18.22-.38.34-.61ZM505.24,831.72c.12.09.24.16.35.22-.11-.06-.23-.13-.35-.22ZM521.93,851.6c-.82.06-1.45.24-1.54.19.09.04.71-.13,1.54-.19ZM532.37,857.56c.14,0,.27,0,.37.05-.1-.05-.23-.06-.37-.05ZM530.09,831.71c1.1.92,1.88,2.06,2.1,3.23.02.1.03.23.03.39.01.62-.11,1.61-.32,2.75-.1.57-.23,1.17-.37,1.79-.14.61-.3,1.24-.47,1.84-.34,1.2-.72,2.33-1.1,3.14-.28.61-.57,1.05-.83,1.21-2.86-.71-6.66-1.05-9.32-2.22-.57-.25-1.09-.54-1.53-.88-.45-.34-.82-.73-1.1-1.18-.85-1.35-.86-3.25.5-6.02.45-.92,1.06-1.94,1.84-3.07.88-1.27,1.94-2.07,3.07-2.51.32-.12.65-.22.98-.29.33-.07.67-.11,1-.12.84-.04,1.68.08,2.48.32.32.1.64.21.94.34.76.33,1.47.77,2.08,1.28Z"/><path d="M1466.67,1302.46l-25.81-144.78s-80.79,237.41-107.39,315.59v-2.39h-38.2l24.17-81.36v-121.23s-124.54,218.22-124.54,218.22l-6.95-15.62h-46.42v-12.34h67.86l-154.05-339.28v351.62h-80.08l68.81,90.37h11.27v158.8l86.18,181.05v-339.85h61.43s116.48,213.83,116.48,213.83v-128.7s-24.16-85.12-24.16-85.12h38.18v-21.45h82.84c-4.74,18.07-10.25,40.14-15.88,63.62l-47.8-26.04,56.8,190.47s91.64-220.37,110.44-267.56v229.3h90.49s0-344.02,0-344.02l23.64-3.85,58.13-79.27h-225.44ZM1432.1,1449.44c4.76-18.13,10.28-40.24,15.91-63.73l36.18,14.99-8.34-46.77,20.38,27.79,23.64,3.85v63.86h-87.77Z"/><path d="M967.75,1554.16l-146.6-371.32-.48,208.13-84.71-207.76v455.66l-30.18-4.05v-406.72l-50.48,85.23h-235.24s-88.11-194.06-88.11-194.06v351.62h-80.08l68.81,90.37h11.27v158.8l86.18,181.05v-182.39h248.27s101.48,0,101.48,0l51.3,108.9v-192.43l85.06,192.43v-193.83l86.74,193.83-23.24-273.46ZM470.53,1392.59l23.64,3.85v140.95l-29.6-66.51h-46.42v-12.34h67.86s-53.46-117.73-53.46-117.73l37.98,51.78ZM470.53,1639.45l-52.38,71.43v-149.63h76.02v74.35l-23.64,3.85ZM608.29,1639.45l-23.64-3.85v-239.17l23.64-3.85,8.64-11.78v270.42l-8.64-11.78Z"/><polygon class="cls-1" points="1539.16 1710.3 1539.16 1369.17 1507.12 1363.95 1476.17 1321.75 1654.05 1321.75 1623.1 1363.95 1591.06 1369.17 1591.06 1710.3 1539.16 1710.3"/><polygon class="cls-2" points="1578.2 1697.44 1578.2 1358.23 1615.84 1352.1 1628.67 1334.61 1501.55 1334.61 1514.38 1352.1 1552.02 1358.23 1552.02 1697.44 1578.2 1697.44"/><path class="cls-1" d="M1374.12,1600.93l38.89,25.58s21.46-81.11,28.52-105.99h-103.39s100.9-310.91,100.9-310.91c0,0,28.19,170.04,28.21,170.27l-29.98-12.63-.39.04c.41,3.53-22.86,76.34-30.02,101.44h103.38s-25.81,81.05-46.11,143.89c-11.93,36.92-54.7,122.9-54.7,122.9,0,0-35.29-134.35-35.31-134.58Z"/><path class="cls-2" d="M1492.65,1481.59h-103.16c6.9-20.22,41.94-148.79,41.94-148.79l18.42,25.27-13.96-104.44c.16-8.39-80.15,254.02-80.15,254.02h103.16c-10.8,31.64-39.74,140.35-39.74,140.35l-30.7-28.39,24.52,89.76c-.16,8.39,79.67-227.79,79.67-227.79Z"/><polygon class="cls-1" points="1074.64 1716.3 1074.64 1541.97 1053.64 1541.97 1014.21 1490.18 1074.64 1490.18 1074.64 1200.85 1179.67 1439.25 1140.23 1439.25 1122.24 1412.89 1122.24 1490.18 1175.42 1490.18 1198.47 1541.97 1122.24 1541.97 1122.24 1821.41 1074.64 1716.3"/><polygon class="cls-2" points="1087.5 1264.19 1159.85 1426.4 1147.02 1426.4 1109.38 1371.22 1109.38 1503.04 1167.07 1503.04 1178.67 1529.11 1109.38 1529.11 1109.38 1767.85 1087.5 1713.79 1087.5 1529.11 1060.01 1529.11 1040.16 1503.04 1087.5 1503.04 1087.5 1264.19"/><polygon class="cls-1" points="636.22 1699.43 636.22 1383.42 686.5 1298.53 686.5 1651.7 726.45 1657.05 757.52 1699.43 636.22 1699.43"/><polygon class="cls-2" points="649.08 1686.57 732.15 1686.57 719.32 1669.07 673.64 1662.95 673.64 1345.48 649.08 1386.95 649.08 1686.57"/><path class="cls-1" d="M1196.65,1516.09l112.62-208.73c-.43,4.44,0,77.94,0,77.94l-44.56,104.88h49.46s0,51.79,0,51.79h-49.46s44.55,104.78,44.55,104.78v76.01s-112.63-206.67-112.63-206.67Z"/><polygon class="cls-2" points="1300.83 1649.56 1244.32 1529.11 1301.32 1529.11 1301.32 1503.04 1244.32 1503.04 1300.83 1382.48 1301.01 1342.9 1213.34 1516 1213.46 1516.02 1213.34 1516.05 1301.01 1689.14 1300.83 1649.56"/><path class="cls-1" d="M755.26,1646.74v-367.7s83.9,214.9,83.9,214.9l1.16-215,108.71,280.28,20.1,182.46s-67.54-174.64-84.17-216.51v217.91s-70.89-179.64-85.06-216.67v205.58s-44.64-85.24-44.64-85.24Z"/><polygon class="cls-2" points="936.55 1562.59 853.18 1346.09 851.49 1562.59 782.83 1381.87 768.12 1346.09 768.12 1643.94 787.04 1685.31 787.04 1469.41 871.37 1683.7 872.1 1685.31 872.1 1469.41 956.43 1685.96 936.55 1562.59"/><polygon class="cls-1" points="351.25 1716.3 351.25 1541.97 330.26 1541.97 290.82 1490.18 351.25 1490.18 351.25 1200.85 456.28 1439.25 416.84 1439.25 398.86 1412.89 398.86 1490.18 452.04 1490.18 475.09 1541.97 398.86 1541.97 398.86 1821.41 351.25 1716.3"/><polygon class="cls-2" points="364.11 1264.19 436.47 1426.39 423.64 1426.39 386 1371.22 386 1503.04 443.68 1503.04 455.29 1529.11 386 1529.11 386 1767.85 364.11 1713.79 364.11 1529.11 336.63 1529.11 316.78 1503.04 364.11 1503.04 364.11 1264.19"/><polygon class="cls-1" points="450.47 1699.43 481.42 1657.22 513.46 1652.01 513.46 1380.04 481.42 1374.82 450.47 1332.62 628.35 1332.62 597.4 1374.82 565.36 1380.04 565.36 1652.01 597.4 1657.22 628.35 1699.43 450.47 1699.43"/><polygon class="cls-2" points="590.14 1669.07 552.5 1662.95 552.5 1369.1 590.14 1362.97 602.97 1345.48 475.85 1345.48 488.68 1362.97 526.32 1369.1 526.32 1662.95 488.68 1669.07 475.85 1686.57 602.97 1686.57 590.14 1669.07"/><polygon class="cls-1" points="960.79 1116.87 1036.76 1022.71 1115.4 1011.08 1115.4 404.26 1036.76 392.63 960.79 298.47 1397.42 298.47 1321.45 392.63 1242.81 404.26 1242.81 1011.08 1321.45 1022.71 1397.42 1116.87 960.79 1116.87"/><polygon class="cls-2" points="1303.63 1049.15 1211.25 1035.48 1211.25 379.86 1303.63 366.19 1335.13 327.16 1023.09 327.16 1054.58 366.19 1146.97 379.86 1146.97 1035.48 1054.58 1049.15 1023.09 1088.18 1335.13 1088.18 1303.63 1049.15"/></svg>