<?xml version="1.0" encoding="UTF-8"?><svg id="Layer_4" xmlns="http://www.w3.org/2000/svg" xmlns:xlink="http://www.w3.org/1999/xlink" viewBox="0 0 36 36"><defs><style>.cls-1{filter:url(#drop-shadow-5);}.cls-2{filter:url(#drop-shadow-4);}.cls-3{fill:#d69e56;}.cls-4{fill:#51a6dc;}.cls-5{fill:#231f20;filter:url(#drop-shadow-3);}.cls-6{fill:#e42125;}.cls-7{fill:url(#linear-gradient-3);}.cls-8{fill:url(#linear-gradient-2);}.cls-9{fill:#676464;filter:url(#drop-shadow-6);}.cls-10,.cls-11{fill:url(#linear-gradient);}.cls-12{fill:#fff;filter:url(#drop-shadow-7);}.cls-11{filter:url(#drop-shadow-2);}.cls-13{fill:#e2c48b;}</style><linearGradient id="linear-gradient" x1="7.35" y1="6.91" x2="28.16" y2="28.58" gradientUnits="userSpaceOnUse"><stop offset="0" stop-color="#e7c48b"/><stop offset="1" stop-color="#4c4029"/></linearGradient><filter id="drop-shadow-2" x="1.37" y="1.92" width="36.24" height="35.04" filterUnits="userSpaceOnUse"><feOffset dx="1.44" dy="1.44"/><feGaussianBlur result="blur" stdDeviation=".72"/><feFlood flood-color="#000" flood-opacity=".75"/><feComposite in2="blur" operator="in"/><feComposite in="SourceGraphic"/></filter><linearGradient id="linear-gradient-2" x1="26.74" y1="27.94" x2="7.94" y2="6.56" xlink:href="#linear-gradient"/><filter id="drop-shadow-3" x="5.14" y="5.4" width="25.77" height="26.29" filterUnits="userSpaceOnUse"><feOffset dx=".37" dy=".37"/><feGaussianBlur result="blur-2" stdDeviation=".07"/><feFlood flood-color="#231f20" flood-opacity=".7"/><feComposite in2="blur-2" operator="in"/><feComposite in="SourceGraphic"/></filter><linearGradient id="linear-gradient-3" x1="-.96" y1="6.73" x2="47.98" y2="36.5" gradientUnits="userSpaceOnUse"><stop offset=".33" stop-color="#e7c48b"/><stop offset=".36" stop-color="#dbba85"/><stop offset=".47" stop-color="#ab9470"/><stop offset=".59" stop-color="#84755e"/><stop offset=".7" stop-color="#655c50"/><stop offset=".8" stop-color="#4f4b46"/><stop offset=".91" stop-color="#424041"/><stop offset="1" stop-color="#3e3d3f"/></linearGradient><filter id="drop-shadow-4" x="1.21" y="9.92" width="35.04" height="18.24" filterUnits="userSpaceOnUse"><feOffset dx=".66" dy=".66"/><feGaussianBlur result="blur-3" stdDeviation=".29"/><feFlood flood-color="#231f20" flood-opacity=".7"/><feComposite in2="blur-3" operator="in"/><feComposite in="SourceGraphic"/></filter><filter id="drop-shadow-5" x="1.58" y="10.25" width="32.84" height="16.19" filterUnits="userSpaceOnUse"><feOffset dx=".66" dy=".66"/><feGaussianBlur result="blur-4" stdDeviation=".29"/><feFlood flood-color="#231f20" flood-opacity=".7"/><feComposite in2="blur-4" operator="in"/><feComposite in="SourceGraphic"/></filter><filter id="drop-shadow-6" x="1.76" y="10.43" width="32.12" height="15.47" filterUnits="userSpaceOnUse"><feOffset dx=".66" dy=".66"/><feGaussianBlur result="blur-5" stdDeviation=".29"/><feFlood flood-color="#231f20" flood-opacity=".7"/><feComposite in2="blur-5" operator="in"/><feComposite in="SourceGraphic"/></filter><filter id="drop-shadow-7" x="1.94" y="10.61" width="31.4" height="14.75" filterUnits="userSpaceOnUse"><feOffset dx=".66" dy=".66"/><feGaussianBlur result="blur-6" stdDeviation=".29"/><feFlood flood-color="#231f20" flood-opacity=".7"/><feComposite in2="blur-6" operator="in"/><feComposite in="SourceGraphic"/></filter></defs><path class="cls-11" d="M18,2.66c-8.74,0-15.84,6.88-15.84,15.34s7.11,15.34,15.84,15.34,15.84-6.88,15.84-15.34S26.74,2.66,18,2.66Z"/><path class="cls-6" d="M18,31.31c-7.62,0-13.81-5.97-13.81-13.31s6.2-13.31,13.81-13.31,13.81,5.97,13.81,13.31-6.2,13.31-13.81,13.31Z"/><path class="cls-8" d="M18,3.93c-8.04,0-14.57,6.31-14.57,14.07s6.54,14.07,14.57,14.07,14.57-6.31,14.57-14.07S26.04,3.93,18,3.93ZM18,31.31c-7.62,0-13.81-5.97-13.81-13.31s6.2-13.31,13.81-13.31,13.81,5.97,13.81,13.31-6.2,13.31-13.81,13.31Z"/><path class="cls-10" d="M18,2.66c-8.74,0-15.84,6.88-15.84,15.34s7.11,15.34,15.84,15.34,15.84-6.88,15.84-15.34S26.74,2.66,18,2.66ZM18,32.58c-8.32,0-15.08-6.54-15.08-14.58S9.68,3.42,18,3.42s15.08,6.54,15.08,14.58-6.77,14.58-15.08,14.58Z"/><path class="cls-13" d="M18,3.42c-8.32,0-15.08,6.54-15.08,14.58s6.77,14.58,15.08,14.58,15.08-6.54,15.08-14.58S26.32,3.42,18,3.42ZM18,32.07c-8.04,0-14.57-6.31-14.57-14.07S9.96,3.93,18,3.93s14.57,6.31,14.57,14.07-6.54,14.07-14.57,14.07Z"/><path class="cls-4" d="M23.22,29.41h4.08c-.12-.26-.21-.53-.28-.8-.07-.28-.11-4.9-.14-13.73,0-5.67.06-6.87.19-7.42.05-.21.13-.42.22-.63h-4.09c.11.24.2.5.26.77.14.21.14.42.14.76v9.27l-.91-.42c-.57-.27-1.35-.4-2.32-.4-.37,0-1.25.09-3.37.53-1.31.27-2.74.31-3.62.14-.35-.07-.74-.18-1.16-.34l-.42-.15v-8.63c0-.37.02-.54.14-.75,0-.02.02-.04.05-.15.05-.21.12-.42.22-.62h-4.09c.11.25.2.51.26.78.08.36.13,1.03.13,7.27-.03,8.87-.07,13.5-.13,13.77-.06.27-.14.52-.25.77h4.08c-.12-.26-.21-.52-.27-.79-.14-.2-.14-.42-.14-.74v-9.5l.8.22c.36.1.82.17,1.37.23,1.18.12,2.01.15,3.23-.14,1.49-.35,2.52-.52,3.18-.52.54,0,1.06.08,1.55.24.48.16.95.38,1.39.67l.29.19v8.61c0,.34,0,.56-.13.77-.06.27-.15.52-.26.77Z"/><path class="cls-5" d="M20.22,30.84l1.23-1.32c.33-.35.53-.74.63-1.18.03-.14.07-.24.11-.33l-.02-.12v-7.82c-.22-.12-.45-.22-.69-.29-.35-.11-.72-.17-1.11-.17-.37,0-1.16.08-2.85.48-.77.18-1.44.26-2.17.26-.44,0-.91-.03-1.54-.1-.21-.02-.41-.05-.6-.08v7.85s.07.13.1.26c.11.45.33.89.64,1.3l.95,1.26H5.14l1.23-1.32c.33-.35.53-.74.63-1.18.04-.44.08-8.14.1-13.46,0-3.39-.01-6.58-.1-6.95-.11-.47-.32-.87-.64-1.21l-1.21-1.32h9.94l-1.12,1.3c-.31.36-.51.72-.59,1.08-.05.22-.11.35-.16.45,0,.03,0,7.74,0,7.74.15.04.3.08.43.11.26.05.61.08,1,.08.67,0,1.41-.08,2.06-.21,1.83-.38,3.02-.56,3.66-.56s1.26.06,1.8.17v-7.36s-.07-.13-.1-.26c-.11-.47-.32-.86-.64-1.21l-1.21-1.32h9.91l-1.09,1.29c-.31.37-.51.74-.6,1.1-.11.45-.15,2.44-.15,7.08.02,5.14.06,12.96.11,13.47.1.39.33.83.63,1.23l.95,1.26h-9.77ZM27.08,29.27c-.08-.2-.15-.41-.2-.62-.04-.19-.11-1.82-.14-13.76,0-5.69.06-6.9.2-7.46.04-.15.08-.3.14-.45h-3.65c.07.19.14.39.18.59.14.2.14.45.14.79v9.5l-1.12-.52c-.55-.26-1.31-.39-2.25-.39-.36,0-1.24.09-3.34.53-.76.16-1.6.25-2.37.25-.5,0-.95-.04-1.31-.11-.36-.07-.76-.19-1.19-.34l-.52-.19v-8.73c0-.38.02-.58.16-.83,0,0,.01-.03.03-.12.04-.15.08-.3.14-.44h-3.65c.08.19.14.39.19.6.09.37.14.92.14,7.3-.04,13.38-.11,13.7-.14,13.8-.04.2-.1.4-.18.59h3.64c-.08-.2-.15-.41-.2-.61-.14-.19-.14-.45-.14-.78v-9.69l.99.27c.35.09.8.17,1.35.23.41.04.89.09,1.37.09.6,0,1.16-.07,1.81-.22,1.5-.35,2.55-.52,3.21-.52.55,0,1.08.08,1.59.25.49.16.97.39,1.42.69l.35.23v8.69c0,.35,0,.6-.16.85-.03.17-.09.35-.16.54h3.64Z"/><path class="cls-7" d="M21.18,29.97l.31-.33c.4-.43.65-.91.77-1.45.02-.08.04-.14.06-.19l.05-.09v-.3s0-8.16,0-8.16l-.23-.13c-.28-.16-.57-.28-.87-.38-.41-.13-.84-.2-1.29-.2-.58,0-1.58.17-2.99.49-.72.17-1.35.25-2.03.25-.42,0-.87-.03-1.47-.09-.26-.03-.51-.06-.74-.1l-.51-.08v8.65s.05.09.05.09c.02.05.04.1.06.19.13.54.38,1.05.74,1.52l.24.32h-7.24l.31-.33c.4-.43.65-.91.77-1.45.06-.62.1-10.25.11-13.59,0-4.93-.03-6.72-.11-7.08-.13-.57-.39-1.05-.78-1.47l-.31-.33h7.32l-.28.33c-.37.43-.61.87-.72,1.33-.05.21-.09.3-.13.36l-.04.28v8.13s.31.09.31.09c.21.06.41.12.6.15.3.06.68.09,1.11.09.71,0,1.49-.08,2.18-.23,1.76-.37,2.95-.55,3.54-.55.69,0,1.31.07,1.84.2l.54.13V7.89s0-.1,0-.1l-.05-.09s-.04-.1-.06-.18c-.14-.58-.39-1.06-.78-1.48l-.31-.33h7.31l-.27.33c-.37.44-.61.89-.72,1.34-.11.45-.17,1.74-.17,7.22.01,4.43.05,12.96.11,13.53.14.56.39,1.06.74,1.53l.24.32h-7.24ZM22.77,27.6c0,.3,0,.43-.06.53l-.04.06-.02.08c-.05.24-.13.47-.23.68l-.28.62h5.45l-.28-.62c-.11-.24-.19-.48-.25-.73-.04-.25-.09-2.84-.12-13.62,0-5.59.06-6.81.18-7.32.05-.19.11-.37.19-.55l.28-.62h-5.46l.28.62c.1.22.18.45.23.69l.02.08.04.06c.06.09.06.2.06.52v8.58l-.28-.13c-.63-.29-1.47-.44-2.5-.44-.57,0-1.73.18-3.46.54-.72.15-1.52.23-2.25.23-.46,0-.87-.03-1.2-.1-.33-.06-.7-.17-1.1-.32l-.13-.05v-8.32c0-.35.02-.43.09-.54.04-.07.06-.14.1-.27.04-.18.11-.36.19-.54l.28-.62h-5.45l.28.62c.1.22.18.45.24.7.07.31.12,1.01.12,7.17-.03,10.81-.09,13.41-.13,13.69-.05.22-.12.45-.22.67l-.28.62h5.45l-.28-.62c-.11-.24-.19-.48-.25-.72l-.02-.08-.05-.07c-.06-.08-.06-.22-.06-.49v-8.92l.25.07c.38.1.86.18,1.44.25.43.04.93.09,1.43.09.65,0,1.25-.07,1.95-.24,1.46-.34,2.46-.51,3.08-.51.49,0,.96.07,1.41.22.44.14.88.35,1.28.62l.09.06v8.37Z"/><path class="cls-3" d="M9.73,25.42c-1.94,0-3.86-.81-5.27-2.22-1.4-1.4-2.13-3.2-2.05-5.06,0-1.85.83-3.77,2.21-5.11,1.44-1.39,3.41-2.12,5.71-2.12,3.11,0,5.22,2.36,7.09,4.45l.35.38c.52.57,1.01,1.2,1.54,1.85,1.87,2.35,3.8,4.78,6.76,4.83,1.28,0,2.43-.49,3.24-1.38.84-.93,1.24-2.22,1.08-3.57v-.04c-.44-2.03-2.29-3.45-4.5-3.45-.86,0-1.7.23-2.43.67l-.21.12c-.42.24-.86.49-.95.84l-.27,1.01-2.75-3.32,1.02-.07c.38-.03.73-.3,1.1-.6.2-.16.41-.32.63-.46.18-.12.41-.25.63-.38.16-.09.32-.19.47-.28l.03-.02.03-.02c.94-.41,2-.62,3.05-.62,2.16,0,4.16.86,5.49,2.37,1.46,1.48,2.11,3.57,1.77,5.73-.37,2.34-1.83,4.4-3.89,5.52-1.07.79-2.27.89-3.31.89h0c-.16,0-.32,0-.49,0-2.98-.06-5.08-2.11-6.91-4.11l-.65-.72c-.52-.57-1.01-1.2-1.54-1.85-1.87-2.35-3.8-4.78-6.76-4.83-1.31,0-2.5.51-3.33,1.43-.84.93-1.24,2.21-1.09,3.52v.04c.49,2.26,2.68,3.45,4.59,3.45.87,0,1.72-.23,2.45-.67l.21-.12c.42-.24.86-.49.95-.84l.27-1.01,2.69,3.24-.92.14c-.38.06-.51.11-.85.37-1.51,1.22-2.9,1.85-4.36,1.96-.26.03-.55.05-.84.05Z"/><path class="cls-2" d="M10.33,11.92c-2.08,0-3.86.65-5.14,1.89-1.23,1.19-1.96,2.88-1.96,4.52-.07,1.66.58,3.24,1.81,4.48,1.25,1.26,2.96,1.98,4.69,1.98.25,0,.51-.01.74-.04,1.31-.1,2.56-.67,3.94-1.79.29-.22.5-.35.75-.43l-.84-1.01c-.28.41-.74.67-1.12.88l-.21.12c-.85.51-1.84.78-2.86.78-2.24,0-4.8-1.41-5.38-4.1-.2-1.65.26-3.16,1.28-4.28.99-1.09,2.39-1.69,3.94-1.7,3.37.06,5.42,2.64,7.4,5.13.52.65,1,1.26,1.51,1.82l.65.71c1.75,1.92,3.68,3.8,6.32,3.85.16,0,.32,0,.47,0,.9,0,1.94-.09,2.82-.73,1.92-1.04,3.24-2.9,3.57-4.98.3-1.9-.26-3.72-1.54-5.02-1.2-1.36-2.98-2.13-4.9-2.13-.94,0-1.88.19-2.73.56-.12.08-.28.17-.45.27-.21.12-.43.25-.6.36-.21.13-.39.27-.56.41-.31.25-.65.51-1.05.66l.84,1.01c.28-.4.74-.66,1.12-.88l.21-.12c.85-.51,1.83-.78,2.84-.78,2.6,0,4.78,1.69,5.3,4.1.2,1.68-.25,3.21-1.27,4.33-.96,1.06-2.32,1.64-3.84,1.65-3.37-.06-5.42-2.65-7.41-5.14-.55-.69-1.02-1.28-1.5-1.81l-.35-.38c-1.76-1.96-3.74-4.18-6.48-4.18ZM9.73,26.44c-2.16,0-4.29-.9-5.85-2.46-1.56-1.57-2.38-3.58-2.29-5.67,0-2.05.92-4.18,2.46-5.67,1.59-1.54,3.76-2.35,6.28-2.35,3.48,0,5.72,2.51,7.7,4.72l.35.38c.55.6,1.08,1.28,1.55,1.88,1.76,2.21,3.57,4.49,6.15,4.54,1.04,0,1.97-.4,2.61-1.11.68-.75,1-1.82.88-2.92-.35-1.61-1.87-2.76-3.69-2.76-.71,0-1.4.19-2,.55l-.22.13c-.14.08-.52.3-.59.39l-.66,2.49-4.79-5.78,2.62-.18c.12,0,.44-.26.65-.42.23-.18.46-.36.72-.51.16-.1.37-.22.58-.35l.65-.37c1.08-.47,2.25-.71,3.41-.71,2.4,0,4.62.97,6.1,2.65,1.63,1.64,2.35,3.98,1.96,6.4-.41,2.59-2.03,4.88-4.32,6.11-1.17.87-2.53.99-3.7.99-.17,0-.34,0-.51,0-3.28-.06-5.5-2.2-7.5-4.38l-.65-.72c-.53-.58-1.03-1.21-1.56-1.88-1.76-2.22-3.57-4.49-6.15-4.54-1.07,0-2.03.42-2.71,1.16s-1.01,1.8-.88,2.87c.39,1.8,2.19,2.76,3.77,2.76.72,0,1.42-.19,2.03-.55l.22-.13c.13-.07.52-.29.59-.39l.66-2.49,4.63,5.59-2.35.36q-.25.04-.47.21c-1.64,1.32-3.17,2-4.79,2.13-.26.03-.58.05-.9.05Z"/><path class="cls-1" d="M10.33,11.92c-2.08,0-3.86.65-5.14,1.89-1.23,1.19-1.96,2.88-1.96,4.52-.07,1.66.58,3.24,1.81,4.48,1.25,1.26,2.96,1.98,4.69,1.98.25,0,.51-.01.74-.04,1.31-.1,2.56-.67,3.94-1.79.29-.22.5-.35.75-.43l-.84-1.01c-.28.41-.74.67-1.12.88l-.21.12c-.85.51-1.84.78-2.86.78-2.24,0-4.8-1.41-5.38-4.1-.2-1.65.26-3.16,1.28-4.28.99-1.09,2.39-1.69,3.94-1.7,3.37.06,5.42,2.64,7.4,5.13.52.65,1,1.26,1.51,1.82l.65.71c1.75,1.92,3.68,3.8,6.32,3.85.16,0,.32,0,.47,0,.9,0,1.94-.09,2.82-.73,1.92-1.04,3.24-2.9,3.57-4.98.3-1.9-.26-3.72-1.54-5.02-1.2-1.36-2.98-2.13-4.9-2.13-.94,0-1.88.19-2.73.56-.12.08-.28.17-.45.27-.21.12-.43.25-.6.36-.21.13-.39.27-.56.41-.31.25-.65.51-1.05.66l.84,1.01c.28-.4.74-.66,1.12-.88l.21-.12c.85-.51,1.83-.78,2.84-.78,2.6,0,4.78,1.69,5.3,4.1.2,1.68-.25,3.21-1.27,4.33-.96,1.06-2.32,1.64-3.84,1.65-3.37-.06-5.42-2.65-7.41-5.14-.55-.69-1.02-1.28-1.5-1.81l-.35-.38c-1.76-1.96-3.74-4.18-6.48-4.18ZM9.73,26.44c-2.16,0-4.29-.9-5.85-2.46-1.56-1.57-2.38-3.58-2.29-5.67,0-2.05.92-4.18,2.46-5.67,1.59-1.54,3.76-2.35,6.28-2.35,3.48,0,5.72,2.51,7.7,4.72l.35.38c.55.6,1.08,1.28,1.55,1.88,1.76,2.21,3.57,4.49,6.15,4.54,1.04,0,1.97-.4,2.61-1.11.68-.75,1-1.82.88-2.92-.35-1.61-1.87-2.76-3.69-2.76-.71,0-1.4.19-2,.55l-.22.13c-.14.08-.52.3-.59.39l-.66,2.49-4.79-5.78,2.62-.18c.12,0,.44-.26.65-.42.23-.18.46-.36.72-.51.16-.1.37-.22.58-.35l.65-.37c1.08-.47,2.25-.71,3.41-.71,2.4,0,4.62.97,6.1,2.65,1.63,1.64,2.35,3.98,1.96,6.4-.41,2.59-2.03,4.88-4.32,6.11-1.17.87-2.53.99-3.7.99-.17,0-.34,0-.51,0-3.28-.06-5.5-2.2-7.5-4.38l-.65-.72c-.53-.58-1.03-1.21-1.56-1.88-1.76-2.22-3.57-4.49-6.15-4.54-1.07,0-2.03.42-2.71,1.16s-1.01,1.8-.88,2.87c.39,1.8,2.19,2.76,3.77,2.76.72,0,1.42-.19,2.03-.55l.22-.13c.13-.07.52-.29.59-.39l.66-2.49,4.63,5.59-2.35.36q-.25.04-.47.21c-1.64,1.32-3.17,2-4.79,2.13-.26.03-.58.05-.9.05Z"/><path class="cls-9" d="M4.76,13.38c-1.3,1.26-2.04,3.05-2.07,4.78s.61,3.42,1.92,4.74c1.2,1.2,2.8,1.94,4.45,2.05.24.02.48.02.71,0,.15,0,.31-.01.46-.03.29-.03.58-.08.86-.15.83-.2,1.66-.56,2.52-1.14.27-.18.44-.27.74-.36.07-.05.51-.15.59-.2.11-.08-.14-.6-.03-.69.14-.11-.13-.64-.01-.68l-.83-1-.09.06c-.04.06-.16.39-.22.44-.18.31-.57.53-.91.73l-.21.12c-.79.48-1.72.73-2.68.73-2,0-4.28-1.2-4.93-3.49-.05-.22-.09-.44-.11-.67-.06-1.17.24-2.26.87-3.15.22-.31.47-.59.76-.83.69-.59,1.53-.98,2.46-1.11.52-.07,1.03-.07,1.55,0,2.45.35,4.17,2.2,5.77,4.15.4.48.78.97,1.17,1.43.13.16.27.32.4.48.11.14.54.63.65.76.15.17.3.33.45.5.11.11.54.58.65.69,1.59,1.66,3.37,3.18,5.7,3.36.17.01.33.02.5.03.05,0,.1,0,.16,0,.15,0,.29,0,.44,0,.89-.02,1.88-.16,2.76-.8,1.97-1.07,3.36-3.02,3.71-5.21.32-2.01-.32-3.91-1.64-5.33s-3.13-2.24-5.16-2.24c-.99,0-1.98.2-2.87.59-.16.1-.32.19-.49.29-.22.13-.44.26-.61.37-.22.13-.41.28-.59.43-.35.28-.71.55-1.11.64l-.16.33.35.42c.14-.2.85.25,1.05.14l.18.02c.22-.13.98.39,1.23.32.13-.03.37-.46.51-.47.12-.1.29-.18.47-.25.23-.08.49-.14.74-.19.04,0,.19-.05.23-.04.81-.14,1.63-.08,2.4.16,1.15.37,2.11,1.14,2.66,2.18.34.72.52,1.49.49,2.28-.06.77-.29,1.49-.67,2.12-.27.45-.62.85-1.03,1.18-.7.56-1.55.91-2.5,1-.32.03-.63.03-.94,0-2.92-.25-4.81-2.65-6.65-4.96-.55-.7-1.03-1.29-1.52-1.83l-.35-.38c-1.8-2.01-3.85-4.3-6.75-4.3-2.18,0-4.04.69-5.39,1.99ZM9.55,25.9c-2.06,0-4.1-.86-5.6-2.36-1.49-1.5-2.23-3.41-2.19-5.41s.88-4,2.35-5.43c1.52-1.47,3.61-2.25,6.03-2.25,3.31,0,5.5,2.44,7.43,4.6l.35.38c.54.59,1.07,1.27,1.54,1.86,1.81,2.27,3.68,4.72,6.42,4.68,1.15-.02,2.17-.44,2.88-1.23.75-.83,1.1-2,.97-3.2-.39-1.81-2.05-3.08-4.04-3.08-.78,0-1.53.21-2.19.6l-.22.12c-.32.18-.67.39-.75.58l-.49,1.84-3.89-4.7,1.92-.13c.23-.02.56-.27.85-.5.22-.17.44-.34.68-.49.16-.1.37-.22.58-.35l.65-.37c1-.43,2.12-.66,3.23-.66,2.29,0,4.37.96,5.83,2.53s2.25,3.8,1.88,6.1c-.4,2.48-1.94,4.67-4.13,5.85-1.13.84-2.42.95-3.53.95-.17,0-.33,0-.5,0-3.14-.07-5.3-2.14-7.24-4.27l-.65-.72c-.52-.58-1.02-1.2-1.54-1.86-1.82-2.28-3.68-4.66-6.42-4.68-1.18,0-2.24.46-2.98,1.28-.75.83-1.11,1.98-.98,3.15.44,2.02,2.4,3.08,4.13,3.08.79,0,1.55-.21,2.21-.6l.22-.12c.34-.19.67-.4.75-.58l.49-1.84,3.78,4.56-1.72.26c-.31.05-.37.07-.64.28-1.61,1.26-3.05,1.9-4.6,2.06-.26.03-.57.05-.88.05Z"/><path class="cls-12" d="M9.97,10.84c-2.27,0-4.22.72-5.64,2.09-1.37,1.32-2.18,3.21-2.18,5.04-.07,1.83.64,3.61,2.02,4.99,1.39,1.39,3.28,2.19,5.2,2.19.28,0,.57-.02.83-.05,1.43-.11,2.8-.73,4.31-1.94.35-.27.5-.33.9-.39l.74-.11-2.45-2.95-.21.82c-.1.39-.58.66-.99.89l-.22.12c-.74.45-1.61.68-2.5.68-1.95,0-4.18-1.21-4.68-3.53-.16-1.38.23-2.68,1.11-3.65.85-.94,2.06-1.46,3.4-1.46,3.01.06,4.96,2.5,6.83,4.86.53.66,1.02,1.28,1.54,1.86l.65.72c1.86,2.04,3.92,4.03,6.84,4.08.17,0,.33,0,.49,0,1.02,0,2.2-.1,3.25-.87,2.03-1.1,3.49-3.14,3.85-5.45.34-2.12-.3-4.18-1.74-5.64-1.3-1.48-3.28-2.34-5.41-2.34-1.04,0-2.08.21-3.01.62-.2.12-.36.21-.52.3-.22.13-.45.26-.63.37-.22.13-.43.29-.62.45-.39.31-.76.59-1.17.62l-.82.06,2.49,3,.22-.8c.1-.39.58-.66.99-.9l.22-.12c.75-.45,1.6-.68,2.48-.68,2.26,0,4.15,1.45,4.59,3.53.17,1.41-.22,2.73-1.1,3.7-.82.9-2,1.41-3.31,1.41-3.01-.06-4.96-2.5-6.84-4.87-.56-.7-1.03-1.3-1.53-1.85l-.35-.38c-1.85-2.07-3.95-4.41-7.01-4.41ZM9.37,25.36c-1.97,0-3.92-.82-5.34-2.25-1.42-1.42-2.16-3.25-2.08-5.14,0-1.89.84-3.82,2.24-5.18,1.45-1.41,3.45-2.15,5.78-2.15,3.15,0,5.29,2.38,7.17,4.48l.35.38c.53.58,1.06,1.25,1.52,1.84,1.86,2.34,3.78,4.76,6.7,4.81,1.26,0,2.38-.48,3.16-1.34.82-.91,1.21-2.18,1.06-3.49-.43-2.01-2.24-3.4-4.4-3.4-.84,0-1.66.23-2.38.66l-.21.12c-.5.29-.83.49-.9.78l-.32,1.2-3-3.62,1.22-.08c.35-.02.69-.29,1.05-.57.2-.16.42-.32.64-.46.17-.11.37-.22.57-.34l.64-.37c.92-.4,1.99-.61,3.05-.61,2.19,0,4.22.88,5.56,2.41,1.49,1.51,2.14,3.62,1.79,5.81-.38,2.37-1.85,4.46-3.95,5.59-1.09.8-2.31.9-3.36.9-.16,0-.32,0-.49,0-3.01-.06-5.1-2.08-6.99-4.15l-.65-.72c-.51-.57-1-1.18-1.53-1.84-1.87-2.35-3.78-4.76-6.7-4.81-1.29,0-2.44.5-3.25,1.39-.82.91-1.21,2.16-1.07,3.44.48,2.24,2.62,3.4,4.48,3.4.86,0,1.68-.23,2.4-.66l.21-.12c.56-.32.83-.51.9-.78l.32-1.19,2.93,3.53-1.09.17c-.37.05-.48.1-.8.35-1.54,1.24-2.94,1.87-4.41,1.99-.26.03-.56.05-.85.05Z"/></svg>