<?xml version="1.0" encoding="UTF-8"?><svg id="Layer_4" xmlns="http://www.w3.org/2000/svg" xmlns:xlink="http://www.w3.org/1999/xlink" viewBox="0 0 36 36"><defs><style>.cls-1{filter:url(#drop-shadow-1);}.cls-2{fill:url(#linear-gradient-6);}.cls-3{fill:url(#linear-gradient-4);}.cls-4{fill:url(#linear-gradient-2);}.cls-5{fill:url(#linear-gradient);}.cls-6{fill:url(#linear-gradient-3);filter:url(#drop-shadow-2);}.cls-7{fill:url(#linear-gradient-5);filter:url(#drop-shadow-3);}</style><filter id="drop-shadow-1" x=".5" y=".6" width="35" height="35" filterUnits="userSpaceOnUse"><feOffset dx="2.26" dy="2.26"/><feGaussianBlur result="blur" stdDeviation="1.13"/><feFlood flood-color="#000" flood-opacity=".64"/><feComposite in2="blur" operator="in"/><feComposite in="SourceGraphic"/></filter><linearGradient id="linear-gradient" x1="4.64" y1="6.71" x2="31.01" y2="29.19" gradientUnits="userSpaceOnUse"><stop offset=".08" stop-color="#fff"/><stop offset=".17" stop-color="#e1c389"/><stop offset=".39" stop-color="#dfc187"/><stop offset=".47" stop-color="#d8bb83"/><stop offset=".52" stop-color="#ccb07b"/><stop offset=".57" stop-color="#bba270"/><stop offset=".61" stop-color="#a58e62"/><stop offset=".64" stop-color="#8a7650"/><stop offset=".67" stop-color="#6a5b3c"/><stop offset=".69" stop-color="#4c4028"/><stop offset=".94" stop-color="#e1c389"/></linearGradient><linearGradient id="linear-gradient-2" x1="12.6" y1="-34.44" x2="24.73" y2="-21.11" gradientTransform="translate(.95 46.38) rotate(-6.37)" gradientUnits="userSpaceOnUse"><stop offset="0" stop-color="#ed2b2c"/><stop offset=".17" stop-color="#e6292b"/><stop offset=".42" stop-color="#d42629"/><stop offset=".7" stop-color="#b62226"/><stop offset=".7" stop-color="#b62226"/><stop offset=".73" stop-color="#c52226"/><stop offset=".78" stop-color="#d72428"/><stop offset=".82" stop-color="#e22428"/><stop offset=".88" stop-color="#e62529"/></linearGradient><linearGradient id="linear-gradient-3" x1="8.78" y1="20.48" x2="27.24" y2="20.48" gradientUnits="userSpaceOnUse"><stop offset=".08" stop-color="#b89b72"/><stop offset=".17" stop-color="#b28e54"/><stop offset=".45" stop-color="#b08c53"/><stop offset=".55" stop-color="#a9874f"/><stop offset=".62" stop-color="#9d7e4a"/><stop offset=".68" stop-color="#8c7242"/><stop offset=".69" stop-color="#866d3f"/><stop offset=".94" stop-color="#b28e54"/></linearGradient><filter id="drop-shadow-2" x="8.78" y="15.51" width="19.59" height="11.07" filterUnits="userSpaceOnUse"><feOffset dx="1.13" dy="1.13"/><feGaussianBlur result="blur-2" stdDeviation="0"/><feFlood flood-color="#000" flood-opacity=".5"/><feComposite in2="blur-2" operator="in"/><feComposite in="SourceGraphic"/></filter><linearGradient id="linear-gradient-4" x1="4.8" y1="8.55" x2="24.79" y2="26.6" xlink:href="#linear-gradient"/><linearGradient id="linear-gradient-5" x1="8.73" y1="15.59" x2="27.29" y2="15.59" xlink:href="#linear-gradient-3"/><filter id="drop-shadow-3" x="5.05" y="5.52" width="27.36" height="26.4"><feOffset dx="1.44" dy="1.44"/><feGaussianBlur result="blur" stdDeviation=".72"/><feFlood flood-color="#000" flood-opacity=".64"/><feComposite in2="blur" operator="in"/><feComposite in="SourceGraphic"/></filter><linearGradient id="linear-gradient-6" x1="8.53" y1="4.38" x2="28.4" y2="22.33" xlink:href="#linear-gradient"/></defs><g class="cls-1"><path class="cls-5" d="M18,35.6c-4.66,0-9.04-1.81-12.35-5.1-3.32-3.31-5.15-7.71-5.15-12.4C.5,8.45,8.35.6,18,.6c4.66,0,9.04,1.81,12.35,5.1,3.32,3.31,5.15,7.71,5.15,12.4,0,9.65-7.85,17.5-17.5,17.5Z"/><path class="cls-4" d="M33.17,16.35c-.9-8.34-8.43-14.33-16.81-13.36C7.98,3.95,1.92,11.5,2.82,19.84c.9,8.34,8.43,14.33,16.81,13.36,8.38-.96,14.45-8.51,13.54-16.86Z"/></g><path class="cls-6" d="M18.01,21.56c-2.53,0-9.23-6.05-9.23-6.05v7.32c0,.34-.05,1.38.74,2.09.79.71,16.19.71,16.98,0,.79-.71.74-1.75.74-2.09v-7.32s-6.7,6.05-9.23,6.05Z"/><path class="cls-3" d="M18.01,24.76c-4.67,0-7.68-.22-8.14-.42-.43-.4-.42-1.11-.42-1.45v-5.89c2.09,1.78,6.43,5.25,8.56,5.25s6.47-3.47,8.56-5.25v5.83c0,.4,0,1.11-.51,1.57-.38.14-3.39.36-8.05.36Z"/><path class="cls-7" d="M27.24,12.35c-.22-.66-1.16-1.13-2.32-1.3-1.19-.18-4.04-.27-6.91-.27-2.87,0-5.72.09-6.91.27-1.16.17-2.09.64-2.32,1.3-.2.61.22,1.38.98,2.24.62.7,6.05,4.85,6.9,5.3.52.27.78.51,1.34.52.56,0,.82-.25,1.34-.52.86-.44,6.28-4.6,6.9-5.3.76-.86,1.19-1.63.98-2.24Z"/><path class="cls-2" d="M18.01,19.71c-.26,0-.4-.08-.7-.26l-.34-.19c-.82-.42-6.15-4.51-6.71-5.15-.92-1.04-.88-1.45-.85-1.55.1-.3.75-.69,1.78-.85,1.09-.16,3.76-.26,6.82-.26s5.73.1,6.82.26c1.03.15,1.68.54,1.78.85.03.1.07.51-.85,1.55-.57.63-5.89,4.72-6.71,5.14l-.34.19c-.3.17-.44.25-.7.26Z"/></svg>