<?xml version="1.0" encoding="UTF-8"?><svg id="Layer_4" xmlns="http://www.w3.org/2000/svg" xmlns:xlink="http://www.w3.org/1999/xlink" viewBox="0 0 36 36"><defs><style>.cls-1{filter:url(#drop-shadow-4);}.cls-2{fill:url(#linear-gradient-2);}.cls-3{fill:url(#linear-gradient);filter:url(#drop-shadow-5);}</style><filter id="drop-shadow-4" x="5.05" y="5.52" width="27.36" height="26.4" filterUnits="userSpaceOnUse"><feOffset dx="1.44" dy="1.44"/><feGaussianBlur result="blur" stdDeviation=".72"/><feFlood flood-color="#000" flood-opacity=".64"/><feComposite in2="blur" operator="in"/><feComposite in="SourceGraphic"/></filter><linearGradient id="linear-gradient" x1="9.47" y1="10.73" x2="26.31" y2="25.08" gradientUnits="userSpaceOnUse"><stop offset=".08" stop-color="#fff"/><stop offset=".17" stop-color="#e2c48b"/><stop offset=".39" stop-color="#e0c289"/><stop offset=".47" stop-color="#d9bc85"/><stop offset=".52" stop-color="#cdb17d"/><stop offset=".57" stop-color="#bca372"/><stop offset=".61" stop-color="#a68f64"/><stop offset=".64" stop-color="#8b7752"/><stop offset=".67" stop-color="#6b5c3d"/><stop offset=".69" stop-color="#4c4029"/><stop offset=".94" stop-color="#e2c48b"/></linearGradient><filter id="drop-shadow-5" x="5.05" y="5.52" width="27.36" height="26.4" filterUnits="userSpaceOnUse"><feOffset dx=".72" dy=".72"/><feGaussianBlur result="blur-2" stdDeviation=".72"/><feFlood flood-color="#000" flood-opacity=".75"/><feComposite in2="blur-2" operator="in"/><feComposite in="SourceGraphic"/></filter><linearGradient id="linear-gradient-2" x1="12.19" y1="31.4" x2="19.93" y2="39.9" gradientTransform="translate(1.1 -18.67) rotate(.1)" gradientUnits="userSpaceOnUse"><stop offset="0" stop-color="#ee2c2c"/><stop offset=".17" stop-color="#e72a2b"/><stop offset=".41" stop-color="#d52729"/><stop offset=".69" stop-color="#b72126"/><stop offset=".7" stop-color="#b62126"/><stop offset=".73" stop-color="#c52226"/><stop offset=".78" stop-color="#d72328"/><stop offset=".82" stop-color="#e22428"/><stop offset=".88" stop-color="#e62529"/></linearGradient></defs><g class="cls-1"><path class="cls-3" d="M18,28.98c-3.01,0-5.85-1.14-7.98-3.2-2.15-2.07-3.33-4.84-3.33-7.78,0-6.05,5.08-10.97,11.31-10.97,3.01,0,5.85,1.14,7.98,3.2,2.15,2.08,3.33,4.84,3.33,7.78,0,6.05-5.08,10.98-11.31,10.98Z"/><ellipse class="cls-2" cx="18" cy="18" rx="9.87" ry="9.54" transform="translate(-1.91 2.14) rotate(-6.47)"/></g><path d="M24.03,16.38v4.59c0,.22-.57,1.16-.81,1.31-1.14.74-8.13-.1-9.94.21-.53.01-1.31-1.15-1.31-1.52v-4.59c1.73.47,4.39,3.79,6.03,3.79s4.29-3.32,6.03-3.79Z"/><path d="M13.33,13.61c1.52-.27,7.56-.26,9.14-.04,1.44.21,1.89,1.1.86,2.22-.4.44-3.91,3.04-4.46,3.32-.4.2-.55.39-1.08.32-.33-.04-5.18-3.57-5.36-3.87-.65-1.06-.24-1.75.9-1.96Z"/></svg>