<?xml version="1.0" encoding="UTF-8"?><svg id="Layer_4" xmlns="http://www.w3.org/2000/svg" xmlns:xlink="http://www.w3.org/1999/xlink" viewBox="0 0 36 36"><defs><style>.cls-1{fill:url(#linear-gradient-5);filter:url(#drop-shadow-14);}.cls-2{fill:url(#linear-gradient-3);filter:url(#drop-shadow-13);}.cls-3{filter:url(#drop-shadow-9);}.cls-4{fill:url(#linear-gradient-6);}.cls-5{fill:url(#linear-gradient-4);}.cls-6{fill:url(#linear-gradient-2);}.cls-7{fill:url(#linear-gradient);filter:url(#drop-shadow-10);}</style><filter id="drop-shadow-9" x="5.05" y="5.52" width="27.36" height="26.4" filterUnits="userSpaceOnUse"><feOffset dx="1.44" dy="1.44"/><feGaussianBlur result="blur" stdDeviation=".72"/><feFlood flood-color="#000" flood-opacity=".64"/><feComposite in2="blur" operator="in"/><feComposite in="SourceGraphic"/></filter><linearGradient id="linear-gradient" x1="9.47" y1="10.73" x2="26.31" y2="25.08" gradientUnits="userSpaceOnUse"><stop offset=".08" stop-color="#fff"/><stop offset=".17" stop-color="#e2c48b"/><stop offset=".39" stop-color="#e0c289"/><stop offset=".47" stop-color="#d9bc85"/><stop offset=".52" stop-color="#cdb17d"/><stop offset=".57" stop-color="#bca372"/><stop offset=".61" stop-color="#a68f64"/><stop offset=".64" stop-color="#8b7752"/><stop offset=".67" stop-color="#6b5c3d"/><stop offset=".69" stop-color="#4c4029"/><stop offset=".94" stop-color="#e2c48b"/></linearGradient><filter id="drop-shadow-10" x="5.05" y="5.52" width="27.36" height="26.4" filterUnits="userSpaceOnUse"><feOffset dx=".72" dy=".72"/><feGaussianBlur result="blur-2" stdDeviation=".72"/><feFlood flood-color="#000" flood-opacity=".75"/><feComposite in2="blur-2" operator="in"/><feComposite in="SourceGraphic"/></filter><linearGradient id="linear-gradient-2" x1="12.19" y1="31.4" x2="19.93" y2="39.9" gradientTransform="translate(1.1 -18.67) rotate(.1)" gradientUnits="userSpaceOnUse"><stop offset="0" stop-color="#ee2c2c"/><stop offset=".17" stop-color="#e72a2b"/><stop offset=".41" stop-color="#d52729"/><stop offset=".69" stop-color="#b72126"/><stop offset=".7" stop-color="#b62126"/><stop offset=".73" stop-color="#c52226"/><stop offset=".78" stop-color="#d72328"/><stop offset=".82" stop-color="#e22428"/><stop offset=".88" stop-color="#e62529"/></linearGradient><linearGradient id="linear-gradient-3" x1="12.04" y1="19.49" x2="23.97" y2="19.49" gradientUnits="userSpaceOnUse"><stop offset=".08" stop-color="#b99c71"/><stop offset=".17" stop-color="#b28e55"/><stop offset=".45" stop-color="#b08c54"/><stop offset=".55" stop-color="#a98750"/><stop offset=".62" stop-color="#9d7d4a"/><stop offset=".68" stop-color="#8c7041"/><stop offset=".69" stop-color="#886d3f"/><stop offset=".94" stop-color="#b28e55"/></linearGradient><filter id="drop-shadow-13" x="12.04" y="16.38" width="12.65" height="6.95" filterUnits="userSpaceOnUse"><feOffset dx=".72" dy=".72"/><feGaussianBlur result="blur-3" stdDeviation="0"/><feFlood flood-color="#000" flood-opacity=".5"/><feComposite in2="blur-3" operator="in"/><feComposite in="SourceGraphic"/></filter><linearGradient id="linear-gradient-4" x1="9.54" y1="11.84" x2="22.35" y2="23.42" xlink:href="#linear-gradient"/><linearGradient id="linear-gradient-5" x1="12.01" y1="16.43" x2="24" y2="16.43" xlink:href="#linear-gradient-3"/><filter id="drop-shadow-14" x="12.01" y="13.41" width="12.72" height="6.76" filterUnits="userSpaceOnUse"><feOffset dx=".72" dy=".72"/><feGaussianBlur result="blur-4" stdDeviation="0"/><feFlood flood-color="#000" flood-opacity=".5"/><feComposite in2="blur-4" operator="in"/><feComposite in="SourceGraphic"/></filter><linearGradient id="linear-gradient-6" x1="11.9" y1="9.24" x2="24.71" y2="20.81" xlink:href="#linear-gradient"/></defs><g class="cls-3"><path class="cls-7" d="M18,28.98c-3.01,0-5.85-1.14-7.98-3.2-2.15-2.07-3.33-4.84-3.33-7.78,0-6.05,5.08-10.97,11.31-10.97,3.01,0,5.85,1.14,7.98,3.2,2.15,2.08,3.33,4.84,3.33,7.78,0,6.05-5.08,10.98-11.31,10.98Z"/><ellipse class="cls-6" cx="18" cy="18" rx="9.87" ry="9.54" transform="translate(-1.91 2.14) rotate(-6.47)"/></g><path class="cls-2" d="M18,20.17c-1.64,0-5.97-3.79-5.97-3.79v4.59c0,.22-.03.87.48,1.31.51.44,10.47.44,10.98,0,.51-.44.48-1.1.48-1.31v-4.59s-4.33,3.79-5.97,3.79Z"/><path class="cls-5" d="M18,22.18c-3.02,0-4.96-.14-5.26-.26-.28-.25-.27-.7-.27-.91v-3.69c1.35,1.12,4.16,3.29,5.54,3.29s4.18-2.18,5.53-3.29v3.66c0,.25,0,.7-.33.99-.24.09-2.19.23-5.21.23Z"/><path class="cls-1" d="M23.97,14.4c-.14-.42-.75-.71-1.5-.82-.77-.11-2.61-.17-4.47-.17-1.86,0-3.7.06-4.47.17-.75.11-1.35.4-1.5.82-.13.38.15.87.64,1.4.4.44,3.91,3.04,4.46,3.32.33.17.51.32.87.33.36,0,.53-.16.87-.33.55-.28,4.06-2.88,4.46-3.32.49-.54.77-1.02.64-1.4Z"/><path class="cls-4" d="M18.01,19.01c-.17,0-.26-.05-.45-.16l-.22-.12c-.53-.27-3.97-2.83-4.34-3.23-.59-.65-.57-.91-.55-.97.07-.19.48-.44,1.15-.53.7-.1,2.43-.17,4.41-.17s3.7.06,4.41.17c.67.1,1.08.34,1.15.53.02.06.05.32-.55.97-.37.4-3.81,2.96-4.34,3.23l-.22.12c-.2.11-.29.16-.45.16Z"/></svg>