<?xml version="1.0" encoding="UTF-8"?><svg id="Layer_4" xmlns="http://www.w3.org/2000/svg" xmlns:xlink="http://www.w3.org/1999/xlink" viewBox="0 0 36 36"><defs><style>.cls-1{filter:url(#drop-shadow-3);}.cls-2{fill:#e42125;}</style><filter id="drop-shadow-3" x="7.21" y="7.68" width="24.48" height="23.52" filterUnits="userSpaceOnUse"><feOffset dx="1.44" dy="1.44"/><feGaussianBlur result="blur" stdDeviation=".72"/><feFlood flood-color="#000" flood-opacity=".64"/><feComposite in2="blur" operator="in"/><feComposite in="SourceGraphic"/></filter></defs><g class="cls-1"><ellipse class="cls-2" cx="18" cy="18" rx="9.87" ry="9.54" transform="translate(-.03 .03) rotate(-.1)"/></g><path d="M24.03,16.38v4.59c0,.22-.57,1.16-.81,1.31-1.14.74-8.13-.1-9.94.21-.53.01-1.31-1.15-1.31-1.52v-4.59c1.73.47,4.39,3.79,6.03,3.79s4.29-3.32,6.03-3.79Z"/><path d="M13.33,13.61c1.52-.27,7.56-.26,9.14-.04,1.44.21,1.89,1.1.86,2.22-.4.44-3.91,3.04-4.46,3.32-.4.2-.55.39-1.08.32-.33-.04-5.18-3.57-5.36-3.87-.65-1.06-.24-1.75.9-1.96Z"/></svg>