<?xml version="1.0" encoding="UTF-8"?><svg id="Layer_4" xmlns="http://www.w3.org/2000/svg" xmlns:xlink="http://www.w3.org/1999/xlink" viewBox="0 0 36 36"><defs><style>.cls-1{fill:url(#linear-gradient-2);}.cls-2{filter:url(#drop-shadow-20);}.cls-3{filter:url(#drop-shadow-19);}.cls-4{filter:url(#drop-shadow-10);}.cls-5{fill:url(#linear-gradient);filter:url(#drop-shadow-11);}</style><filter id="drop-shadow-10" x="4.65" y="5.13" width="29" height="28" filterUnits="userSpaceOnUse"><feOffset dx="1.44" dy="1.44"/><feGaussianBlur result="blur" stdDeviation=".72"/><feFlood flood-color="#000" flood-opacity=".64"/><feComposite in2="blur" operator="in"/><feComposite in="SourceGraphic"/></filter><linearGradient id="linear-gradient" x1="9.47" y1="10.38" x2="26.31" y2="24.73" gradientUnits="userSpaceOnUse"><stop offset="0" stop-color="#4c4029"/><stop offset=".16" stop-color="#4f432b"/><stop offset=".31" stop-color="#5b4d33"/><stop offset=".46" stop-color="#6f5e3f"/><stop offset=".61" stop-color="#8a7651"/><stop offset=".76" stop-color="#ad9568"/><stop offset=".91" stop-color="#d8bb84"/><stop offset=".94" stop-color="#e2c48b"/></linearGradient><filter id="drop-shadow-11" x="4.65" y="5.13" width="29" height="28" filterUnits="userSpaceOnUse"><feOffset dx=".72" dy=".72"/><feGaussianBlur result="blur-2" stdDeviation=".72"/><feFlood flood-color="#000" flood-opacity=".75"/><feComposite in2="blur-2" operator="in"/><feComposite in="SourceGraphic"/></filter><linearGradient id="linear-gradient-2" x1="7.23" y1="30.77" x2="14.97" y2="39.28" gradientTransform="translate(6.06 -18.39) rotate(.1)" gradientUnits="userSpaceOnUse"><stop offset=".5" stop-color="#b62126"/><stop offset=".63" stop-color="#c42327"/><stop offset=".84" stop-color="#d6272a"/><stop offset="1" stop-color="#dd292b"/></linearGradient><filter id="drop-shadow-19" x="11.46" y="15.45" width="12.51" height="6.81" filterUnits="userSpaceOnUse"><feOffset dx="-.58" dy="-.58"/><feGaussianBlur result="blur-3" stdDeviation="0"/><feFlood flood-color="#000" flood-opacity=".5"/><feComposite in2="blur-3" operator="in"/><feComposite in="SourceGraphic"/></filter><filter id="drop-shadow-20" x="11.43" y="12.48" width="12.57" height="6.62" filterUnits="userSpaceOnUse"><feOffset dx="-.58" dy="-.58"/><feGaussianBlur result="blur-4" stdDeviation="0"/><feFlood flood-color="#000" flood-opacity=".5"/><feComposite in2="blur-4" operator="in"/><feComposite in="SourceGraphic"/></filter></defs><g class="cls-4"><path class="cls-5" d="M18,28.63c-3.01,0-5.85-1.14-7.98-3.2-2.15-2.07-3.33-4.84-3.33-7.78,0-6.05,5.08-10.97,11.31-10.97,3.01,0,5.85,1.14,7.98,3.2,2.15,2.08,3.33,4.84,3.33,7.78,0,6.05-5.08,10.98-11.31,10.98Z"/><ellipse class="cls-1" cx="18" cy="17.65" rx="9.87" ry="9.54" transform="translate(-1.87 2.14) rotate(-6.47)"/></g><path class="cls-3" d="M18,19.82c-1.64,0-5.97-3.79-5.97-3.79v4.59c0,.22-.03.87.48,1.31.51.44,10.47.44,10.98,0,.51-.44.48-1.1.48-1.31v-4.59s-4.33,3.79-5.97,3.79Z"/><path class="cls-2" d="M23.97,14.05c-.14-.42-.75-.71-1.5-.82-.77-.11-2.61-.17-4.47-.17-1.86,0-3.7.06-4.47.17-.75.11-1.35.4-1.5.82-.13.38.15.87.64,1.4.4.44,3.91,3.04,4.46,3.32.33.17.51.32.87.33.36,0,.53-.16.87-.33.55-.28,4.06-2.88,4.46-3.32.49-.54.77-1.02.64-1.4Z"/></svg>