<?xml version="1.0" encoding="UTF-8"?><svg id="Layer_4" xmlns="http://www.w3.org/2000/svg" xmlns:xlink="http://www.w3.org/1999/xlink" viewBox="0 0 36 36"><defs><style>.cls-1{filter:url(#drop-shadow-3);}.cls-2{fill:url(#linear-gradient-6);}.cls-3{fill:url(#linear-gradient-4);}.cls-4{fill:url(#linear-gradient-2);}.cls-5{fill:url(#linear-gradient-3);filter:url(#drop-shadow-7);}.cls-6{fill:url(#linear-gradient-5);filter:url(#drop-shadow-8);}.cls-7{fill:url(#linear-gradient);filter:url(#drop-shadow-4);}</style><filter id="drop-shadow-3" x="2.46" y="2.92" width="32.88" height="31.92" filterUnits="userSpaceOnUse"><feOffset dx="1.73" dy="1.73"/><feGaussianBlur result="blur" stdDeviation=".86"/><feFlood flood-color="#000" flood-opacity=".64"/><feComposite in2="blur" operator="in"/><feComposite in="SourceGraphic"/></filter><linearGradient id="linear-gradient" x1="7.76" y1="9.28" x2="27.97" y2="26.5" gradientUnits="userSpaceOnUse"><stop offset=".08" stop-color="#fff"/><stop offset=".17" stop-color="#e2c48b"/><stop offset=".39" stop-color="#e0c289"/><stop offset=".47" stop-color="#d9bc85"/><stop offset=".52" stop-color="#cdb17d"/><stop offset=".57" stop-color="#bca372"/><stop offset=".61" stop-color="#a68f64"/><stop offset=".64" stop-color="#8b7752"/><stop offset=".67" stop-color="#6b5c3d"/><stop offset=".69" stop-color="#4c4029"/><stop offset=".94" stop-color="#e2c48b"/></linearGradient><filter id="drop-shadow-4" x="2.46" y="2.92" width="32.88" height="31.92" filterUnits="userSpaceOnUse"><feOffset dx=".86" dy=".86"/><feGaussianBlur result="blur-2" stdDeviation=".86"/><feFlood flood-color="#000" flood-opacity=".75"/><feComposite in2="blur-2" operator="in"/><feComposite in="SourceGraphic"/></filter><linearGradient id="linear-gradient-2" x1="11.24" y1="30.35" x2="20.52" y2="40.56" gradientTransform="translate(1.1 -18.67) rotate(.1)" gradientUnits="userSpaceOnUse"><stop offset="0" stop-color="#ee2c2c"/><stop offset=".17" stop-color="#e72a2b"/><stop offset=".41" stop-color="#d52729"/><stop offset=".69" stop-color="#b72126"/><stop offset=".7" stop-color="#b62126"/><stop offset=".73" stop-color="#c52226"/><stop offset=".78" stop-color="#d72328"/><stop offset=".82" stop-color="#e22428"/><stop offset=".88" stop-color="#e62529"/></linearGradient><linearGradient id="linear-gradient-3" x1="10.85" y1="19.79" x2="25.17" y2="19.79" gradientUnits="userSpaceOnUse"><stop offset=".08" stop-color="#b99c71"/><stop offset=".17" stop-color="#b28e55"/><stop offset=".45" stop-color="#b08c54"/><stop offset=".55" stop-color="#a98750"/><stop offset=".62" stop-color="#9d7d4a"/><stop offset=".68" stop-color="#8c7041"/><stop offset=".69" stop-color="#886d3f"/><stop offset=".94" stop-color="#b28e55"/></linearGradient><filter id="drop-shadow-7" x="10.85" y="16.05" width="15.18" height="8.34" filterUnits="userSpaceOnUse"><feOffset dx=".86" dy=".86"/><feGaussianBlur result="blur-3" stdDeviation="0"/><feFlood flood-color="#000" flood-opacity=".5"/><feComposite in2="blur-3" operator="in"/><feComposite in="SourceGraphic"/></filter><linearGradient id="linear-gradient-4" x1="7.85" y1="10.61" x2="23.22" y2="24.5" xlink:href="#linear-gradient"/><linearGradient id="linear-gradient-5" x1="10.81" y1="16.11" x2="25.2" y2="16.11" xlink:href="#linear-gradient-3"/><filter id="drop-shadow-8" x="10.81" y="12.49" width="15.26" height="8.11" filterUnits="userSpaceOnUse"><feOffset dx=".86" dy=".86"/><feGaussianBlur result="blur-4" stdDeviation="0"/><feFlood flood-color="#000" flood-opacity=".5"/><feComposite in2="blur-4" operator="in"/><feComposite in="SourceGraphic"/></filter><linearGradient id="linear-gradient-6" x1="10.68" y1="7.48" x2="26.05" y2="21.37" xlink:href="#linear-gradient"/></defs><g class="cls-1"><path class="cls-7" d="M18,31.17c-3.61,0-7.02-1.36-9.58-3.84-2.58-2.49-4-5.8-4-9.33,0-7.26,6.09-13.17,13.58-13.17,3.61,0,7.02,1.36,9.58,3.84,2.58,2.49,4,5.8,4,9.33,0,7.26-6.09,13.17-13.58,13.17Z"/><ellipse class="cls-4" cx="18" cy="18" rx="11.85" ry="11.44" transform="translate(-1.91 2.14) rotate(-6.47)"/></g><path class="cls-5" d="M18.01,20.61c-1.96,0-7.16-4.55-7.16-4.55v5.51c0,.26-.04,1.04.57,1.57.61.53,12.56.53,13.17,0,.61-.53.57-1.32.57-1.57v-5.51s-5.2,4.55-7.16,4.55Z"/><path class="cls-3" d="M18,23.01c-3.62,0-5.95-.16-6.31-.32-.33-.3-.33-.83-.33-1.09v-4.43c1.62,1.34,4.99,3.95,6.64,3.95s5.02-2.61,6.64-3.95v4.39c0,.3,0,.83-.39,1.18-.29.11-2.63.27-6.25.27Z"/><path class="cls-6" d="M25.16,13.67c-.17-.5-.9-.85-1.8-.98-.93-.13-3.13-.2-5.36-.2-2.23,0-4.44.07-5.36.2-.9.13-1.63.48-1.8.98-.16.46.17,1.04.76,1.69.48.53,4.69,3.65,5.35,3.99.4.2.61.38,1.04.39.43,0,.64-.19,1.04-.39.66-.33,4.87-3.46,5.35-3.99.59-.64.92-1.23.76-1.69Z"/><path class="cls-2" d="M18.01,19.22c-.2,0-.31-.06-.54-.19l-.26-.14c-.63-.32-4.77-3.39-5.21-3.87-.71-.78-.68-1.09-.66-1.17.08-.23.58-.52,1.38-.64.84-.12,2.92-.2,5.29-.2s4.44.08,5.29.2c.8.12,1.3.41,1.38.64.03.08.06.39-.66,1.17-.44.48-4.57,3.55-5.21,3.87l-.26.14c-.23.13-.34.19-.54.19Z"/></svg>