<?xml version="1.0" encoding="UTF-8"?><svg id="Layer_4" xmlns="http://www.w3.org/2000/svg" xmlns:xlink="http://www.w3.org/1999/xlink" viewBox="0 0 36 36"><defs><style>.cls-1{fill:url(#linear-gradient-8);}.cls-2{fill:url(#linear-gradient-7);}.cls-3{fill:url(#linear-gradient-5);}.cls-4{fill:url(#linear-gradient-6);}.cls-5{fill:url(#linear-gradient-9);}.cls-6{fill:url(#linear-gradient-4);}.cls-7{fill:url(#linear-gradient-3);}.cls-8{fill:url(#linear-gradient-2);}.cls-9{fill:url(#linear-gradient);}.cls-10{fill:url(#linear-gradient-10);}.cls-11{fill:url(#linear-gradient-11);}.cls-12{fill:url(#linear-gradient-12);}.cls-13{fill:url(#linear-gradient-13);}.cls-14{fill:url(#linear-gradient-19);}.cls-15{fill:url(#linear-gradient-14);}.cls-16{fill:url(#linear-gradient-21);}.cls-17{fill:url(#linear-gradient-20);}.cls-18{fill:url(#linear-gradient-22);}.cls-19{fill:url(#linear-gradient-23);}.cls-20{fill:url(#linear-gradient-25);}.cls-21{fill:url(#linear-gradient-15);}.cls-22{fill:url(#linear-gradient-16);}.cls-23{fill:url(#linear-gradient-17);}.cls-24{fill:url(#linear-gradient-18);}.cls-25{fill:url(#linear-gradient-24);}.cls-26{fill:url(#linear-gradient-26);}</style><linearGradient id="linear-gradient" x1="4.57" y1="31.45" x2="31.07" y2="8.87" gradientTransform="translate(0 38) scale(1 -1)" gradientUnits="userSpaceOnUse"><stop offset=".08" stop-color="#fff"/><stop offset=".17" stop-color="#e2c48b"/><stop offset=".39" stop-color="#e0c289"/><stop offset=".47" stop-color="#d9bc85"/><stop offset=".52" stop-color="#cdb17d"/><stop offset=".57" stop-color="#bca372"/><stop offset=".61" stop-color="#a68f64"/><stop offset=".64" stop-color="#8b7752"/><stop offset=".67" stop-color="#6b5c3d"/><stop offset=".69" stop-color="#4c4029"/><stop offset=".94" stop-color="#e2c48b"/></linearGradient><linearGradient id="linear-gradient-2" x1="-54.46" y1="-96.99" x2="-42.29" y2="-110.39" gradientTransform="translate(65.14 -87.2) rotate(.1) scale(1 -1)" gradientUnits="userSpaceOnUse"><stop offset="0" stop-color="#ee2c2c"/><stop offset=".17" stop-color="#e72a2b"/><stop offset=".41" stop-color="#d52729"/><stop offset=".69" stop-color="#b72126"/><stop offset=".7" stop-color="#b62126"/><stop offset=".73" stop-color="#c52226"/><stop offset=".78" stop-color="#d72328"/><stop offset=".82" stop-color="#e22428"/><stop offset=".88" stop-color="#e62529"/></linearGradient><linearGradient id="linear-gradient-3" x1="15.04" y1="33.52" x2="29.52" y2="6.32" gradientTransform="translate(0 38) scale(1 -1)" gradientUnits="userSpaceOnUse"><stop offset=".08" stop-color="#fff"/><stop offset=".17" stop-color="#e2c48b"/><stop offset=".39" stop-color="#e0c289"/><stop offset=".47" stop-color="#d9bc85"/><stop offset=".52" stop-color="#cdb17d"/><stop offset=".57" stop-color="#bca372"/><stop offset=".61" stop-color="#a68f64"/><stop offset=".64" stop-color="#8b7752"/><stop offset=".67" stop-color="#6b5c3d"/><stop offset=".69" stop-color="#4c4029"/><stop offset=".94" stop-color="#e2c48b"/></linearGradient><linearGradient id="linear-gradient-4" x1="12.55" y1="32.2" x2="27.03" y2="5.01" gradientTransform="translate(0 38) scale(1 -1)" gradientUnits="userSpaceOnUse"><stop offset=".08" stop-color="#fff"/><stop offset=".17" stop-color="#e2c48b"/><stop offset=".39" stop-color="#e0c289"/><stop offset=".47" stop-color="#d9bc85"/><stop offset=".52" stop-color="#cdb17d"/><stop offset=".57" stop-color="#bca372"/><stop offset=".61" stop-color="#a68f64"/><stop offset=".64" stop-color="#8b7752"/><stop offset=".67" stop-color="#6b5c3d"/><stop offset=".69" stop-color="#4c4029"/><stop offset=".94" stop-color="#e2c48b"/></linearGradient><linearGradient id="linear-gradient-5" x1="12.25" y1="32.04" x2="26.73" y2="4.84" gradientTransform="translate(0 38) scale(1 -1)" gradientUnits="userSpaceOnUse"><stop offset=".08" stop-color="#fff"/><stop offset=".17" stop-color="#e2c48b"/><stop offset=".39" stop-color="#e0c289"/><stop offset=".47" stop-color="#d9bc85"/><stop offset=".52" stop-color="#cdb17d"/><stop offset=".57" stop-color="#bca372"/><stop offset=".61" stop-color="#a68f64"/><stop offset=".64" stop-color="#8b7752"/><stop offset=".67" stop-color="#6b5c3d"/><stop offset=".69" stop-color="#4c4029"/><stop offset=".94" stop-color="#e2c48b"/></linearGradient><linearGradient id="linear-gradient-6" x1="10.54" y1="31.11" x2="25.02" y2="3.93" gradientTransform="translate(0 38) scale(1 -1)" gradientUnits="userSpaceOnUse"><stop offset=".08" stop-color="#fff"/><stop offset=".17" stop-color="#e2c48b"/><stop offset=".39" stop-color="#e0c289"/><stop offset=".47" stop-color="#d9bc85"/><stop offset=".52" stop-color="#cdb17d"/><stop offset=".57" stop-color="#bca372"/><stop offset=".61" stop-color="#a68f64"/><stop offset=".64" stop-color="#8b7752"/><stop offset=".67" stop-color="#6b5c3d"/><stop offset=".69" stop-color="#4c4029"/><stop offset=".94" stop-color="#e2c48b"/></linearGradient><linearGradient id="linear-gradient-7" x1="5.82" y1="28.6" x2="20.29" y2="1.41" gradientTransform="translate(0 38) scale(1 -1)" gradientUnits="userSpaceOnUse"><stop offset=".08" stop-color="#fff"/><stop offset=".17" stop-color="#e2c48b"/><stop offset=".39" stop-color="#e0c289"/><stop offset=".47" stop-color="#d9bc85"/><stop offset=".52" stop-color="#cdb17d"/><stop offset=".57" stop-color="#bca372"/><stop offset=".61" stop-color="#a68f64"/><stop offset=".64" stop-color="#8b7752"/><stop offset=".67" stop-color="#6b5c3d"/><stop offset=".69" stop-color="#4c4029"/><stop offset=".94" stop-color="#e2c48b"/></linearGradient><linearGradient id="linear-gradient-8" x1="5.93" y1="28.67" x2="20.41" y2="1.48" gradientTransform="translate(0 38) scale(1 -1)" gradientUnits="userSpaceOnUse"><stop offset=".08" stop-color="#fff"/><stop offset=".17" stop-color="#e2c48b"/><stop offset=".39" stop-color="#e0c289"/><stop offset=".47" stop-color="#d9bc85"/><stop offset=".52" stop-color="#cdb17d"/><stop offset=".57" stop-color="#bca372"/><stop offset=".61" stop-color="#a68f64"/><stop offset=".64" stop-color="#8b7752"/><stop offset=".67" stop-color="#6b5c3d"/><stop offset=".69" stop-color="#4c4029"/><stop offset=".94" stop-color="#e2c48b"/></linearGradient><linearGradient id="linear-gradient-9" x1="8.88" y1="30.24" x2="23.36" y2="3.06" gradientTransform="translate(0 38) scale(1 -1)" gradientUnits="userSpaceOnUse"><stop offset=".08" stop-color="#fff"/><stop offset=".17" stop-color="#e2c48b"/><stop offset=".39" stop-color="#e0c289"/><stop offset=".47" stop-color="#d9bc85"/><stop offset=".52" stop-color="#cdb17d"/><stop offset=".57" stop-color="#bca372"/><stop offset=".61" stop-color="#a68f64"/><stop offset=".64" stop-color="#8b7752"/><stop offset=".67" stop-color="#6b5c3d"/><stop offset=".69" stop-color="#4c4029"/><stop offset=".94" stop-color="#e2c48b"/></linearGradient><linearGradient id="linear-gradient-10" x1="14.93" y1="33.45" x2="29.41" y2="6.27" gradientTransform="translate(0 38) scale(1 -1)" gradientUnits="userSpaceOnUse"><stop offset=".08" stop-color="#fff"/><stop offset=".17" stop-color="#e2c48b"/><stop offset=".39" stop-color="#e0c289"/><stop offset=".47" stop-color="#d9bc85"/><stop offset=".52" stop-color="#cdb17d"/><stop offset=".57" stop-color="#bca372"/><stop offset=".61" stop-color="#a68f64"/><stop offset=".64" stop-color="#8b7752"/><stop offset=".67" stop-color="#6b5c3d"/><stop offset=".69" stop-color="#4c4029"/><stop offset=".94" stop-color="#e2c48b"/></linearGradient><linearGradient id="linear-gradient-11" x1="14.61" y1="33.29" x2="29.09" y2="6.09" gradientTransform="translate(0 38) scale(1 -1)" gradientUnits="userSpaceOnUse"><stop offset=".08" stop-color="#fff"/><stop offset=".17" stop-color="#e2c48b"/><stop offset=".39" stop-color="#e0c289"/><stop offset=".47" stop-color="#d9bc85"/><stop offset=".52" stop-color="#cdb17d"/><stop offset=".57" stop-color="#bca372"/><stop offset=".61" stop-color="#a68f64"/><stop offset=".64" stop-color="#8b7752"/><stop offset=".67" stop-color="#6b5c3d"/><stop offset=".69" stop-color="#4c4029"/><stop offset=".94" stop-color="#e2c48b"/></linearGradient><linearGradient id="linear-gradient-12" x1="23.94" y1="32.32" x2="33.76" y2="13.87" gradientTransform="translate(0 38) scale(1 -1)" gradientUnits="userSpaceOnUse"><stop offset=".08" stop-color="#fff"/><stop offset=".17" stop-color="#e2c48b"/><stop offset=".39" stop-color="#e0c289"/><stop offset=".47" stop-color="#d9bc85"/><stop offset=".52" stop-color="#cdb17d"/><stop offset=".57" stop-color="#bca372"/><stop offset=".61" stop-color="#a68f64"/><stop offset=".64" stop-color="#8b7752"/><stop offset=".67" stop-color="#6b5c3d"/><stop offset=".69" stop-color="#4c4029"/><stop offset=".94" stop-color="#e2c48b"/></linearGradient><linearGradient id="linear-gradient-13" x1="12.56" y1="32.19" x2="27.04" y2="5.01" gradientTransform="translate(0 38) scale(1 -1)" gradientUnits="userSpaceOnUse"><stop offset=".08" stop-color="#fff"/><stop offset=".17" stop-color="#e2c48b"/><stop offset=".39" stop-color="#e0c289"/><stop offset=".47" stop-color="#d9bc85"/><stop offset=".52" stop-color="#cdb17d"/><stop offset=".57" stop-color="#bca372"/><stop offset=".61" stop-color="#a68f64"/><stop offset=".64" stop-color="#8b7752"/><stop offset=".67" stop-color="#6b5c3d"/><stop offset=".69" stop-color="#4c4029"/><stop offset=".94" stop-color="#e2c48b"/></linearGradient><linearGradient id="linear-gradient-14" x1="13.84" y1="32.88" x2="28.32" y2="5.7" gradientTransform="translate(0 38) scale(1 -1)" gradientUnits="userSpaceOnUse"><stop offset=".08" stop-color="#fff"/><stop offset=".17" stop-color="#e2c48b"/><stop offset=".39" stop-color="#e0c289"/><stop offset=".47" stop-color="#d9bc85"/><stop offset=".52" stop-color="#cdb17d"/><stop offset=".57" stop-color="#bca372"/><stop offset=".61" stop-color="#a68f64"/><stop offset=".64" stop-color="#8b7752"/><stop offset=".67" stop-color="#6b5c3d"/><stop offset=".69" stop-color="#4c4029"/><stop offset=".94" stop-color="#e2c48b"/></linearGradient><linearGradient id="linear-gradient-15" x1="9.01" y1="30.3" x2="23.49" y2="3.12" gradientTransform="translate(0 38) scale(1 -1)" gradientUnits="userSpaceOnUse"><stop offset=".08" stop-color="#fff"/><stop offset=".17" stop-color="#e2c48b"/><stop offset=".39" stop-color="#e0c289"/><stop offset=".47" stop-color="#d9bc85"/><stop offset=".52" stop-color="#cdb17d"/><stop offset=".57" stop-color="#bca372"/><stop offset=".61" stop-color="#a68f64"/><stop offset=".64" stop-color="#8b7752"/><stop offset=".67" stop-color="#6b5c3d"/><stop offset=".69" stop-color="#4c4029"/><stop offset=".94" stop-color="#e2c48b"/></linearGradient><linearGradient id="linear-gradient-16" x1="13.15" y1="32.52" x2="27.63" y2="5.32" gradientTransform="translate(0 38) scale(1 -1)" gradientUnits="userSpaceOnUse"><stop offset=".08" stop-color="#fff"/><stop offset=".17" stop-color="#e2c48b"/><stop offset=".39" stop-color="#e0c289"/><stop offset=".47" stop-color="#d9bc85"/><stop offset=".52" stop-color="#cdb17d"/><stop offset=".57" stop-color="#bca372"/><stop offset=".61" stop-color="#a68f64"/><stop offset=".64" stop-color="#8b7752"/><stop offset=".67" stop-color="#6b5c3d"/><stop offset=".69" stop-color="#4c4029"/><stop offset=".94" stop-color="#e2c48b"/></linearGradient><linearGradient id="linear-gradient-17" x1="10.11" y1="30.88" x2="24.59" y2="3.7" gradientTransform="translate(0 38) scale(1 -1)" gradientUnits="userSpaceOnUse"><stop offset=".08" stop-color="#fff"/><stop offset=".17" stop-color="#e2c48b"/><stop offset=".39" stop-color="#e0c289"/><stop offset=".47" stop-color="#d9bc85"/><stop offset=".52" stop-color="#cdb17d"/><stop offset=".57" stop-color="#bca372"/><stop offset=".61" stop-color="#a68f64"/><stop offset=".64" stop-color="#8b7752"/><stop offset=".67" stop-color="#6b5c3d"/><stop offset=".69" stop-color="#4c4029"/><stop offset=".94" stop-color="#e2c48b"/></linearGradient><linearGradient id="linear-gradient-18" x1="13.27" y1="32.58" x2="27.75" y2="5.38" gradientTransform="translate(0 38) scale(1 -1)" gradientUnits="userSpaceOnUse"><stop offset=".08" stop-color="#fff"/><stop offset=".17" stop-color="#e2c48b"/><stop offset=".39" stop-color="#e0c289"/><stop offset=".47" stop-color="#d9bc85"/><stop offset=".52" stop-color="#cdb17d"/><stop offset=".57" stop-color="#bca372"/><stop offset=".61" stop-color="#a68f64"/><stop offset=".64" stop-color="#8b7752"/><stop offset=".67" stop-color="#6b5c3d"/><stop offset=".69" stop-color="#4c4029"/><stop offset=".94" stop-color="#e2c48b"/></linearGradient><linearGradient id="linear-gradient-19" x1="10" y1="26.36" x2="17.25" y2="12.74" gradientTransform="translate(0 38) scale(1 -1)" gradientUnits="userSpaceOnUse"><stop offset=".08" stop-color="#fff"/><stop offset=".17" stop-color="#e2c48b"/><stop offset=".39" stop-color="#e0c289"/><stop offset=".47" stop-color="#d9bc85"/><stop offset=".52" stop-color="#cdb17d"/><stop offset=".57" stop-color="#bca372"/><stop offset=".61" stop-color="#a68f64"/><stop offset=".64" stop-color="#8b7752"/><stop offset=".67" stop-color="#6b5c3d"/><stop offset=".69" stop-color="#4c4029"/><stop offset=".94" stop-color="#e2c48b"/></linearGradient><linearGradient id="linear-gradient-20" x1="20.44" y1="25.71" x2="27.82" y2="11.84" gradientTransform="translate(0 38) scale(1 -1)" gradientUnits="userSpaceOnUse"><stop offset=".08" stop-color="#fff"/><stop offset=".17" stop-color="#e2c48b"/><stop offset=".39" stop-color="#e0c289"/><stop offset=".47" stop-color="#d9bc85"/><stop offset=".52" stop-color="#cdb17d"/><stop offset=".57" stop-color="#bca372"/><stop offset=".61" stop-color="#a68f64"/><stop offset=".64" stop-color="#8b7752"/><stop offset=".67" stop-color="#6b5c3d"/><stop offset=".69" stop-color="#4c4029"/><stop offset=".94" stop-color="#e2c48b"/></linearGradient><linearGradient id="linear-gradient-21" x1="9.27" y1="30.45" x2="23.75" y2="3.25" gradientTransform="translate(0 38) scale(1 -1)" gradientUnits="userSpaceOnUse"><stop offset=".08" stop-color="#fff"/><stop offset=".17" stop-color="#e2c48b"/><stop offset=".39" stop-color="#e0c289"/><stop offset=".47" stop-color="#d9bc85"/><stop offset=".52" stop-color="#cdb17d"/><stop offset=".57" stop-color="#bca372"/><stop offset=".61" stop-color="#a68f64"/><stop offset=".64" stop-color="#8b7752"/><stop offset=".67" stop-color="#6b5c3d"/><stop offset=".69" stop-color="#4c4029"/><stop offset=".94" stop-color="#e2c48b"/></linearGradient><linearGradient id="linear-gradient-22" x1="15.67" y1="33.86" x2="30.15" y2="6.68" gradientTransform="translate(0 38) scale(1 -1)" gradientUnits="userSpaceOnUse"><stop offset=".08" stop-color="#fff"/><stop offset=".17" stop-color="#e2c48b"/><stop offset=".39" stop-color="#e0c289"/><stop offset=".47" stop-color="#d9bc85"/><stop offset=".52" stop-color="#cdb17d"/><stop offset=".57" stop-color="#bca372"/><stop offset=".61" stop-color="#a68f64"/><stop offset=".64" stop-color="#8b7752"/><stop offset=".67" stop-color="#6b5c3d"/><stop offset=".69" stop-color="#4c4029"/><stop offset=".94" stop-color="#e2c48b"/></linearGradient><linearGradient id="linear-gradient-23" x1="17.93" y1="35.05" x2="32.41" y2="7.87" gradientTransform="translate(0 38) scale(1 -1)" gradientUnits="userSpaceOnUse"><stop offset=".08" stop-color="#fff"/><stop offset=".17" stop-color="#e2c48b"/><stop offset=".39" stop-color="#e0c289"/><stop offset=".47" stop-color="#d9bc85"/><stop offset=".52" stop-color="#cdb17d"/><stop offset=".57" stop-color="#bca372"/><stop offset=".61" stop-color="#a68f64"/><stop offset=".64" stop-color="#8b7752"/><stop offset=".67" stop-color="#6b5c3d"/><stop offset=".69" stop-color="#4c4029"/><stop offset=".94" stop-color="#e2c48b"/></linearGradient><linearGradient id="linear-gradient-24" x1="17.18" y1="34.65" x2="31.66" y2="7.47" gradientTransform="translate(0 38) scale(1 -1)" gradientUnits="userSpaceOnUse"><stop offset=".08" stop-color="#fff"/><stop offset=".17" stop-color="#e2c48b"/><stop offset=".39" stop-color="#e0c289"/><stop offset=".47" stop-color="#d9bc85"/><stop offset=".52" stop-color="#cdb17d"/><stop offset=".57" stop-color="#bca372"/><stop offset=".61" stop-color="#a68f64"/><stop offset=".64" stop-color="#8b7752"/><stop offset=".67" stop-color="#6b5c3d"/><stop offset=".69" stop-color="#4c4029"/><stop offset=".94" stop-color="#e2c48b"/></linearGradient><linearGradient id="linear-gradient-25" x1="8.64" y1="30.11" x2="23.12" y2="2.93" gradientTransform="translate(0 38) scale(1 -1)" gradientUnits="userSpaceOnUse"><stop offset=".08" stop-color="#fff"/><stop offset=".17" stop-color="#e2c48b"/><stop offset=".39" stop-color="#e0c289"/><stop offset=".47" stop-color="#d9bc85"/><stop offset=".52" stop-color="#cdb17d"/><stop offset=".57" stop-color="#bca372"/><stop offset=".61" stop-color="#a68f64"/><stop offset=".64" stop-color="#8b7752"/><stop offset=".67" stop-color="#6b5c3d"/><stop offset=".69" stop-color="#4c4029"/><stop offset=".94" stop-color="#e2c48b"/></linearGradient><linearGradient id="linear-gradient-26" x1="8.87" y1="30.23" x2="23.35" y2="3.03" gradientTransform="translate(0 38) scale(1 -1)" gradientUnits="userSpaceOnUse"><stop offset=".08" stop-color="#fff"/><stop offset=".17" stop-color="#e2c48b"/><stop offset=".39" stop-color="#e0c289"/><stop offset=".47" stop-color="#d9bc85"/><stop offset=".52" stop-color="#cdb17d"/><stop offset=".57" stop-color="#bca372"/><stop offset=".61" stop-color="#a68f64"/><stop offset=".64" stop-color="#8b7752"/><stop offset=".67" stop-color="#6b5c3d"/><stop offset=".69" stop-color="#4c4029"/><stop offset=".94" stop-color="#e2c48b"/></linearGradient></defs><path class="cls-9" d="M18,35.27c-4.74,0-9.21-1.79-12.56-5.04C2.06,26.97.2,22.61.2,17.98.2,8.46,8.19.72,18,.72c4.74,0,9.21,1.79,12.56,5.04,3.38,3.27,5.24,7.62,5.24,12.24,0,9.52-8,17.28-17.8,17.28v-.02Z"/><ellipse class="cls-8" cx="18.01" cy="17.98" rx="15.53" ry="15.01" transform="translate(-1.91 2.14) rotate(-6.47)"/><path d="M22.93,21.45c0,.55.46,1.01,1.01,1.01s1.01-.46,1.01-1.01-.46-1.01-1.01-1.01-1.01.46-1.01,1.01ZM24.47,21.45c0,.3-.24.54-.54.54s-.54-.24-.54-.54.24-.54.54-.54.54.24.54.54Z"/><path d="M18.54,18.91v.35c.69,0,1.24-.57,1.24-1.26s-.57-1.26-1.26-1.26h-.09v.35h.09c.5,0,.91.41.91.91s-.41.91-.9.91Z"/><circle cx="18.52" cy="18" r=".54"/><path d="M18.46,22.97c.54,0,.96-.42.96-.96s-.42-.96-.96-.96-.96.42-.96.96.42.96.96.96ZM18.46,21.4c.35,0,.63.28.63.63s-.28.63-.63.63-.63-.28-.63-.63.28-.63.63-.63Z"/><path d="M14.38,23l-1.54,1.97-.25-.03,1.7-2.14-.13-.72-1.87,2.47-.03-.35,1.84-2.44-.06-.33s-1.97,2.61-2.09,2.97c0,.02-.05.02-.05.03v.31s.03,0,.05.03c.09.27.16.35.42.44.02,0,0,.03.03.05.09.03.3.03.41,0,.02,0,.02-.03.03-.05.08-.03.27-.13.31-.19.17-.22,1.26-1.67,1.26-1.67,0,0-.03-.3-.05-.39l.02.03Z"/><path d="M13.33,25.27s.02.03.06.03c.39.03,1.13.03,1.51,0l-.42-1.46s-1.15,1.43-1.15,1.43Z"/><path d="M15.48,26.44c.06.58.69.55.69.55h.88v-.47h.69v.47h1.46v-.47h.69v.47h.88s.63.03.69-.55c.05-.44.05-.74.05-.74h-6.09s0,.3.05.74Z"/><path d="M14.47,11.63h7.96v-.27c-.02-.14-.09-.27-.2-.36-.11-.09-.47-.24-.47-.24l-1.37-.09-.05-.05v-.05s-.2-.13-.28-.14h-3.21c-.08,0-.28.14-.28.14v.05l-.06.05-1.37.09s-.35.14-.47.24c-.11.09-.19.22-.2.36v.27h.02Z"/><path d="M15.12,11.75v.91s.13.3.17.36c.13.13.44.2.44.2h5.45s.31-.08.44-.2c.05-.05.17-.28.17-.36v-.91h-3.75v.99h-.28v-.99h-.44v.99h-.33v-.99h-.44v.99h-.3v-.99h-.38v.99h-.19v-.99h-.24v.99h-.16v-.99h-.19.02Z"/><path d="M27.32,16.98s.35-.36.35-.38c0,0-.44-.39-.44-.41,0-.08.52-.54.52-.57.08-.19.02-.61-.14-.74-.03-.03-.68-.61-.71-.63,0-.09.28-.25.31-.31.02-.05,0-.17,0-.22,0-.02-.09-.13-.2-.25,1.21-1.2,2.57-2.53,2.57-2.55,0-.03-.03-.02-.03-.02h-.05c-.27.03-1.64.28-1.65.28,0-.03,1.9-2.44,2.01-2.6-.11.13-3.62,3.29-3.67,3.37,0,0-.03.03,0,.05.03.03,1.45-.17,1.48-.17.06,0-.03.09-.03.11s-.42.57-.93,1.23c-.22-.22-.46-.41-.54-.41-.2,0-.25.24-.38.3-.09.05-.2-.16-.27-.24-.03-.03-.44-.49-.65-.61-.17-.11-.42-.16-.63-.06,0,0-.35.35-.5.5-.13.03-.27-.27-.35-.25-.11.02-.14.14-.2.2-.05.05-.16.06-.16.16l4.27,4.25h.05l-.03-.03ZM27.19,15.58c-.03-.09-.03-.22-.06-.3-.06-.16-.25-.31-.36-.44-.36-.36-.74-.71-1.12-1.07-.3-.3-.8-.88-1.15-1.02-.03,0-.38-.05-.3-.11.16-.03.28-.06.44-.05.49.05,1.01.74,1.37,1.07.06.06.11.11.17.16h0c.08.08.16.14.24.22h0c.16.14.31.28.47.44.22.22.44.61.44.63v.2s-.08.27-.09.28c-.03.05-.05,0-.05-.03v.02Z"/><path d="M22.42,23.82s-.42,1.45-.42,1.46c.38.03,1.12.03,1.51,0,.03,0,.06.02.06-.03l-1.15-1.43Z"/><path d="M24.96,24.42c-.06-.17-.52-.85-1.01-1.5h-.03c-.09,0-.19,0-.28-.03l.99,1.32-.03.35-1.37-1.81c-.22-.11-.39-.28-.54-.47l-.09.54,1.7,2.14-.25.03-1.54-1.97c-.02.09-.05.39-.05.39,0,0,1.1,1.46,1.26,1.67.05.06.25.16.31.19.02,0,0,.03.03.05.09.03.3.03.41,0,.02,0,.02-.03.03-.05.27-.11.33-.17.42-.44,0-.02.05-.02.05-.03v-.31s-.03,0-.05-.03l.03-.03Z"/><path d="M20.06,23.18l-.06.06c-.36.46-.91.76-1.54.76-1.09,0-1.97-.88-1.97-1.97,0-.46.16-.9.42-1.23-.05-.06-.06-.09-.06-.11l-.83-.83v.09c0,.3-.24.54-.54.54s-.54-.24-.54-.54.24-.54.54-.54h.09l-1.26-1.26-.24.24c-.09.09-.19.98-.27,1.16-.03.08-.06.16-.14.22l-1.79-1.79.28-.28h.03l-.2-.2-.3.3-.36-.36.3-.3-.27-.27-.3.3-.52-.52c.2-.24,3.16-3.13,3.16-3.13l.5.5-.31.31.19.25.35-.28.41.35-.31.31.2.2.3-.3h.03l1.78,1.78c-.06.08-.14.13-.25.17-.2.06-1.07.17-1.16.27l-.2.2c.08.09,2.49,2.49,2.58,2.6,0-.02,0-.19.03-.42-.54-.25-.9-.8-.9-1.43,0-.88.71-1.59,1.59-1.59.83,0,1.51.63,1.59,1.43,0,.03.02.06.02.06l.52.41c.27-.25.54-.52.79-.79.08-.09.17-.17.25-.25l-.2-.2c-.09-.09-.98-.2-1.16-.27-.11-.03-.17-.08-.25-.17l1.78-1.78.33.3.2-.2-.31-.31.44-.41.3.3.2-.2-.31-.31.36-.36s2.96,2.9,3.16,3.13l-.38.38-.3-.3-.2.2.3.3-.42.42-.3-.3-.2.2h.03l.28.28-1.79,1.79s-.11-.13-.14-.22c-.06-.19-.17-1.09-.27-1.16l-.24-.24-.94.94,1.2.94.19.14h.13c.17-.09.36-.17.57-.19l.52-.52-.17-.17s.36-.38.36-.38l.19.14.71-.69-.13-.17.33-.36.17.13s1.16-1.18,1.15-1.23l-3.78-3.78-1.27,1.21s-.25-.02-.28-.11c-.03-.09-.25-.35-.35-.39-.03-.02-.14-.06-.17-.08-.16-.02-.55,0-.72,0-.05,0-.08,0-.13.03v.69h-.85v-.72h-1.68v.72h-.85v-.69s-.08-.02-.13-.03c-.17,0-.55-.02-.72,0-.05,0-.14.05-.17.08-.09.05-.3.3-.35.39-.03.08-.16.24-.16.24l-1.48-1.34-3.78,3.78,1.23,1.23.17-.13.33.36-.13.17.71.69.19-.14s.38.36.36.38c-.03.03-.17.17-.17.17l.54.54s-1.84,2.28-1.9,2.35c-.11.11-.33-.03-.25-.16,0-.02,1.76-2.17,1.76-2.17l-.13-.06s-1.98,2.33-2.23,2.63c-.25.33-.63.61-.49,1.1,0,0,.05.13.14.24-1.26,1.24-2.75,2.72-2.77,2.75,0,.03.03.02.03.02h.05c.27-.03,1.64-.28,1.65-.28,0,.03-1.9,2.44-2.01,2.6.11-.13,3.62-3.29,3.67-3.37,0,0,.03-.03,0-.05-.03-.03-1.45.17-1.48.17-.06,0,.03-.09.03-.11s.57-.74,1.16-1.53c.39.06,1.27.03,1.27.03l2.31-3.19c0-.08-.13-.63-.13-.63l-3.01,3.64h-.27l3.42-4.12s.31,2,.44,2.63c.17.83.85,2.74.9,2.83h6.17c.05-.09.69-1.89.88-2.75l-2.35.63-.02-.03Z"/><path d="M21.89,20.17c-.08.17-.27.3-.49.3-.3,0-.54-.24-.54-.54v-.09l-.22.22-.68.71c.27.33.44.77.44,1.24v.24l2.08-.54c-.02-.09-.03-.19-.03-.28,0-.25.06-.5.17-.71l-.74-.57v.02Z"/><path d="M16.82,20.3l.42.42c.2-.19.46-.33.72-.41-.05,0-.09-.02-.13-.03-.02,0-.05-.02-.08-.03-.05-.03-.11-.05-.11-.06l-.24-.24-.52-.52-.05-.05-.38-.38-1.27-1.27c-.19.19-.22.49-.19.76l1.83,1.83-.02-.02Z"/><path d="M20.09,20.3l1.83-1.83c.03-.25,0-.55-.19-.76l-1.27,1.27-.38.38-.05.05-.52.52-.24.24s-.06.05-.11.06c-.03.02-.06.03-.08.03-.03,0-.09.03-.14.03.27.08.52.22.72.41l.42-.42v.02Z"/><path d="M7.41,10.87h-.05s-.05,0-.03.02c0,.02,1.31,1.31,2.5,2.49-.16.16-.27.28-.27.31-.02.05-.03.19,0,.22.03.06.33.22.31.31-.03.03-.68.61-.71.63-.17.14-.22.55-.14.74,0,.02.52.49.52.57,0,.02-.44.41-.44.41,0,0,.31.31.35.38h.05l4.27-4.27c0-.09-.09-.11-.16-.16-.06-.06-.11-.17-.2-.2-.08,0-.2.28-.35.25-.16-.16-.5-.49-.5-.5-.2-.09-.46-.05-.63.06-.2.13-.6.57-.65.61-.06.06-.17.28-.27.24-.13-.06-.17-.28-.38-.3-.08,0-.27.14-.46.33-.47-.63-.87-1.13-.88-1.15,0,0-.09-.09-.03-.11.03,0,1.45.2,1.48.17.02-.02,0-.03,0-.05-.05-.08-3.54-3.24-3.67-3.37.13.16,2.01,2.57,2.01,2.6,0,0-1.4-.25-1.65-.28l-.03.05ZM12.15,12.59c.16-.02.28.02.44.05.06.06-.28.11-.3.11-.36.14-.85.72-1.15,1.02-.38.36-.76.71-1.12,1.07-.13.13-.3.27-.36.44-.03.09-.03.2-.06.3,0,.03,0,.08-.05.03,0,0-.09-.25-.09-.28v-.2s.24-.41.44-.63c.3-.3.6-.55.88-.82.35-.33.88-1.02,1.37-1.07v-.02Z"/><path d="M29.49,26.7h.05s.05,0,.03-.02c0-.02-1.51-1.51-2.77-2.75.09-.11.13-.24.14-.24.14-.47-.24-.77-.49-1.1-.11-.14-.58-.69-1.05-1.26v.28c.27.31.46.57.47.57.08.11-.16.27-.25.16,0,0-.13-.16-.3-.36-.06.17-.16.33-.28.46l1.27,1.54h-.27l-1.15-1.4c-.17.14-.38.25-.6.3l.93,1.27s.87.05,1.27-.03c.6.79,1.15,1.51,1.16,1.53,0,0,.09.09.03.11-.03,0-1.45-.2-1.48-.17-.02.02,0,.03,0,.05.05.08,3.54,3.24,3.67,3.37-.13-.16-2.01-2.57-2.01-2.6,0,0,1.4.25,1.65.28l-.03.02Z"/><path d="M13.62,19.4c.05-.33.08-.47.11-.54,0-.05,0-.09.02-.14.03-.16.05-.35.16-.49.19-.25.46-.49.71-.71.22-.2.44-.41.61-.61h0c.16-.13.49-.19.82-.24.16-.03.3-.05.41-.08h0l-1.43-1.43-2.85,2.83,1.42,1.42h0l.03-.02ZM13.81,16.8c.08-.09.22-.16.36-.16.11,0,.22.03.3.11.13.11.19.27.16.42-.02.16-.11.28-.27.36-.06.03-.14.05-.2.05-.17,0-.35-.11-.42-.28s-.05-.36.06-.5h.02Z"/><path d="M20.42,16.58h0c.09.03.25.05.41.08.33.05.68.11.82.24h0c.17.2.41.41.61.61.25.22.5.46.71.71.11.14.14.31.16.49,0,.05,0,.09.02.14.03.06.06.2.11.54h0l1.42-1.4-2.85-2.83-1.43,1.43h.03ZM22.42,16.76c.08-.06.19-.11.3-.11.14,0,.28.06.36.16.13.14.14.33.06.5s-.25.28-.42.28c-.08,0-.14-.02-.2-.05-.14-.08-.24-.2-.27-.36-.02-.16.05-.31.16-.42h.02Z"/><path d="M25.74,16.88l.16-.16c-.47-.54-.79-.87-1.32-1.4l-1.45-1.46-.2.2.42.42,1.78,1.78.6.6.02.02Z"/><path d="M22.31,14.69l.42.42,1.78,1.78.61.61.16-.16c-.47-.54-.79-.88-1.32-1.4l-1.45-1.45-.2.2v-.02Z"/><path d="M13.97,14.07l-.2-.2-1.45,1.46c-.54.54-.85.87-1.32,1.4l.16.16.6-.6,1.78-1.78.42-.42.02-.02Z"/><path d="M11.78,17.5l.61-.61,1.78-1.78.42-.42-.2-.2-1.45,1.45c-.54.54-.85.87-1.32,1.4l.16.16v.02Z"/><path class="cls-7" d="M22.8,20.94c0,.55.46,1.01,1.01,1.01s1.01-.46,1.01-1.01-.46-1.01-1.01-1.01-1.01.46-1.01,1.01ZM24.34,20.94c0,.3-.24.54-.54.54s-.54-.24-.54-.54.24-.54.54-.54.54.24.54.54Z"/><path class="cls-6" d="M18.41,18.41v.35c.69,0,1.24-.57,1.24-1.26s-.57-1.26-1.26-1.26h-.09v.35h.09c.5,0,.91.41.91.91s-.41.91-.9.91Z"/><circle class="cls-3" cx="18.39" cy="17.5" r=".54"/><path class="cls-4" d="M18.33,22.47c.54,0,.96-.42.96-.96s-.42-.96-.96-.96-.96.42-.96.96.42.96.96.96ZM18.33,20.9c.35,0,.63.28.63.63s-.28.63-.63.63-.63-.28-.63-.63.28-.63.63-.63Z"/><path class="cls-2" d="M14.25,22.5l-1.54,1.97-.25-.03,1.7-2.14-.13-.72-1.87,2.47-.03-.35,1.84-2.44-.06-.33s-1.97,2.61-2.09,2.97c0,.02-.05.02-.05.03v.31s.03,0,.05.03c.09.27.16.35.42.44.02,0,0,.03.03.05.09.03.3.03.41,0,.02,0,.02-.03.03-.05.08-.03.27-.13.31-.19.17-.22,1.26-1.67,1.26-1.67,0,0-.03-.3-.05-.39l.02.03Z"/><path class="cls-1" d="M13.2,24.77s.02.03.06.03c.39.03,1.13.03,1.51,0l-.42-1.46s-1.15,1.43-1.15,1.43Z"/><path class="cls-5" d="M15.37,25.93c.06.58.69.55.69.55h.88v-.47h.69v.47h1.46v-.47h.69v.47h.88s.63.03.69-.55c.05-.44.05-.74.05-.74h-6.09s0,.3.05.74Z"/><path class="cls-10" d="M14.36,11.12h7.96v-.27c-.02-.14-.09-.27-.2-.36-.11-.09-.47-.24-.47-.24l-1.37-.09-.05-.05v-.05s-.2-.13-.28-.14h-3.21c-.08,0-.28.14-.28.14v.05l-.06.05-1.37.09s-.35.14-.47.24c-.11.09-.19.22-.2.36v.27h.02Z"/><path class="cls-11" d="M15.01,11.25v.91s.13.3.17.36c.13.13.44.2.44.2h5.45s.31-.08.44-.2c.05-.05.17-.28.17-.36v-.91h-3.75v.99h-.28v-.99h-.44v.99h-.33v-.99h-.44v.99h-.3v-.99h-.38v.99h-.19v-.99h-.24v.99h-.16v-.99h-.19.02Z"/><path class="cls-12" d="M27.21,16.47s.35-.36.35-.38c0,0-.44-.39-.44-.41,0-.08.52-.54.52-.57.08-.19.02-.61-.14-.74-.03-.03-.68-.61-.71-.63,0-.09.28-.25.31-.31.02-.05,0-.17,0-.22,0-.02-.09-.13-.2-.25,1.21-1.2,2.57-2.53,2.57-2.55,0-.03-.03-.02-.03-.02h-.05c-.27.03-1.64.28-1.65.28,0-.03,1.9-2.44,2.01-2.6-.11.13-3.62,3.29-3.67,3.37,0,0-.03.03,0,.05.03.03,1.45-.17,1.48-.17.06,0-.03.09-.03.11s-.42.57-.93,1.23c-.22-.22-.46-.41-.54-.41-.2,0-.25.24-.38.3-.09.05-.2-.16-.27-.24-.03-.03-.44-.49-.65-.61-.17-.11-.42-.16-.63-.06,0,0-.35.35-.5.5-.13.03-.27-.27-.35-.25-.11.02-.14.14-.2.2-.05.05-.16.06-.16.16l4.27,4.25h.05l-.03-.03ZM27.07,15.07c-.03-.09-.03-.22-.06-.3-.06-.16-.25-.31-.36-.44-.36-.36-.74-.71-1.12-1.07-.3-.3-.8-.88-1.15-1.02-.03,0-.38-.05-.3-.11.16-.03.28-.06.44-.05.49.05,1.01.74,1.37,1.07.06.06.11.11.17.16h0c.08.08.16.14.24.22h0c.16.14.31.28.47.44.22.22.44.61.44.63v.2s-.08.27-.09.28c-.03.05-.05,0-.05-.03v.02Z"/><path class="cls-13" d="M22.31,23.34s-.42,1.45-.42,1.46c.38.03,1.12.03,1.51,0,.03,0,.06.02.06-.03l-1.15-1.43Z"/><path class="cls-15" d="M24.83,23.92c-.06-.17-.52-.85-1.01-1.5h-.03c-.09,0-.19,0-.28-.03l.99,1.32-.03.35-1.37-1.81c-.22-.11-.39-.28-.54-.47l-.09.54,1.7,2.14-.25.03-1.54-1.97c-.02.09-.05.39-.05.39,0,0,1.1,1.46,1.26,1.67.05.06.25.16.31.19.02,0,0,.03.03.05.09.03.3.03.41,0,.02,0,.02-.03.03-.05.27-.11.33-.17.42-.44,0-.02.05-.02.05-.03v-.31s-.03,0-.05-.03l.03-.03Z"/><path class="cls-21" d="M19.95,22.67l-.06.06c-.36.46-.91.76-1.54.76-1.09,0-1.97-.88-1.97-1.97,0-.46.16-.9.42-1.23-.05-.06-.06-.09-.06-.11l-.83-.83v.09c0,.3-.24.54-.54.54s-.54-.24-.54-.54.24-.54.54-.54h.09l-1.26-1.26-.24.24c-.09.09-.19.98-.27,1.16-.03.08-.06.16-.14.22l-1.79-1.79.28-.28h.03l-.2-.2-.3.3-.36-.36.3-.3-.27-.27-.3.3-.52-.52c.2-.24,3.16-3.13,3.16-3.13l.5.5-.31.31.19.25.35-.28.41.35-.31.31.2.2.3-.3h.03l1.78,1.78c-.06.08-.14.13-.25.17-.2.06-1.07.17-1.16.27l-.2.2c.08.09,2.49,2.49,2.58,2.6,0-.02,0-.19.03-.42-.54-.25-.9-.8-.9-1.43,0-.88.71-1.59,1.59-1.59.83,0,1.51.63,1.59,1.43,0,.03.02.06.02.06l.52.41c.27-.25.54-.52.79-.79.08-.09.17-.17.25-.25l-.2-.2c-.09-.09-.98-.2-1.16-.27-.11-.03-.17-.08-.25-.17l1.78-1.78.33.3.2-.2-.31-.31.44-.41.3.3.2-.2-.31-.31.36-.36s2.96,2.9,3.16,3.13l-.38.38-.3-.3-.2.2.3.3-.42.42-.3-.3-.2.2h.03l.28.28-1.79,1.79s-.11-.13-.14-.22c-.06-.19-.17-1.09-.27-1.16l-.24-.24-.94.94,1.2.94.19.14h.13c.17-.09.36-.17.57-.19l.52-.52-.17-.17s.36-.38.36-.38l.19.14.71-.69-.13-.17.33-.36.17.13s1.16-1.18,1.15-1.23l-3.78-3.78-1.27,1.21s-.25-.02-.28-.11c-.03-.09-.25-.35-.35-.39-.03-.02-.14-.06-.17-.08-.16-.02-.55,0-.72,0-.05,0-.08,0-.13.03v.69h-.85v-.72h-1.68v.72h-.85v-.69s-.08-.02-.13-.03c-.17,0-.55-.02-.72,0-.05,0-.14.05-.17.08-.09.05-.3.3-.35.39-.03.08-.16.24-.16.24l-1.48-1.34-3.78,3.78,1.23,1.23.17-.13.33.36-.13.17.71.69.19-.14s.38.36.36.38c-.03.03-.17.17-.17.17l.54.54s-1.84,2.28-1.9,2.35c-.11.11-.33-.03-.25-.16,0-.02,1.76-2.17,1.76-2.17l-.13-.06s-1.98,2.33-2.23,2.63c-.25.33-.63.61-.49,1.1,0,0,.05.13.14.24-1.26,1.24-2.75,2.72-2.77,2.75,0,.03.03.02.03.02h.05c.27-.03,1.64-.28,1.65-.28,0,.03-1.9,2.44-2.01,2.6.11-.13,3.62-3.29,3.67-3.37,0,0,.03-.03,0-.05-.03-.03-1.45.17-1.48.17-.06,0,.03-.09.03-.11s.57-.74,1.16-1.53c.39.06,1.27.03,1.27.03l2.31-3.19c0-.08-.13-.63-.13-.63l-3.01,3.64h-.27l3.42-4.12s.31,2,.44,2.63c.17.83.85,2.74.9,2.83h6.17c.05-.09.69-1.89.88-2.75l-2.35.63-.02-.03Z"/><path class="cls-22" d="M21.78,19.67c-.08.17-.27.3-.49.3-.3,0-.54-.24-.54-.54v-.09l-.22.22-.68.71c.27.33.44.77.44,1.24v.24l2.08-.54c-.02-.09-.03-.19-.03-.28,0-.25.06-.5.17-.71l-.74-.57v.02Z"/><path class="cls-23" d="M16.71,19.79l.42.42c.2-.19.46-.33.72-.41-.05,0-.09-.02-.13-.03-.02,0-.05-.02-.08-.03-.05-.03-.11-.05-.11-.06l-.24-.24-.52-.52-.05-.05-.38-.38-1.27-1.27c-.19.19-.22.49-.19.76l1.83,1.83-.02-.02Z"/><path class="cls-24" d="M19.98,19.79l1.83-1.83c.03-.25,0-.55-.19-.76l-1.27,1.27-.38.38-.05.05-.52.52-.24.24s-.06.05-.11.06c-.03.02-.06.03-.08.03-.03,0-.09.03-.14.03.27.08.52.22.72.41l.42-.42v.02Z"/><path class="cls-14" d="M7.28,10.37h-.05s-.05,0-.03.02c0,.02,1.31,1.31,2.5,2.49-.16.16-.27.28-.27.31-.02.05-.03.19,0,.22.03.06.33.22.31.31-.03.03-.68.61-.71.63-.17.14-.22.55-.14.74,0,.02.52.49.52.57,0,.02-.44.41-.44.41,0,0,.31.31.35.38h.05l4.27-4.27c0-.09-.09-.11-.16-.16-.06-.06-.11-.17-.2-.2-.08,0-.2.28-.35.25-.16-.16-.5-.49-.5-.5-.2-.09-.46-.05-.63.06-.2.13-.6.57-.65.61-.06.06-.17.28-.27.24-.13-.06-.17-.28-.38-.3-.08,0-.27.14-.46.33-.47-.63-.87-1.13-.88-1.15,0,0-.09-.09-.03-.11.03,0,1.45.2,1.48.17.02-.02,0-.03,0-.05-.05-.08-3.54-3.24-3.67-3.37.13.16,2.01,2.57,2.01,2.6,0,0-1.4-.25-1.65-.28l-.03.05ZM12.02,12.08c.16-.02.28.02.44.05.06.06-.28.11-.3.11-.36.14-.85.72-1.15,1.02-.38.36-.76.71-1.12,1.07-.13.13-.3.27-.36.44-.03.09-.03.2-.06.3,0,.03,0,.08-.05.03,0,0-.09-.25-.09-.28v-.2s.24-.41.44-.63c.3-.3.6-.55.88-.82.35-.33.88-1.02,1.37-1.07v-.02Z"/><path class="cls-17" d="M29.38,26.2h.05s.05,0,.03-.02c0-.02-1.51-1.51-2.77-2.75.09-.11.13-.24.14-.24.14-.47-.24-.77-.49-1.1-.11-.14-.58-.69-1.05-1.26v.28c.27.31.46.57.47.57.08.11-.16.27-.25.16,0,0-.13-.16-.3-.36-.06.17-.16.33-.28.46l1.27,1.54h-.27l-1.15-1.4c-.17.14-.38.25-.6.3l.93,1.27s.87.05,1.27-.03c.6.79,1.15,1.51,1.16,1.53,0,0,.09.09.03.11-.03,0-1.45-.2-1.48-.17-.02.02,0,.03,0,.05.05.08,3.54,3.24,3.67,3.37-.13-.16-2.01-2.57-2.01-2.6,0,0,1.4.25,1.65.28l-.03.02Z"/><path class="cls-16" d="M13.5,18.9c.05-.33.08-.47.11-.54,0-.05,0-.09.02-.14.03-.16.05-.35.16-.49.19-.25.46-.49.71-.71.22-.2.44-.41.61-.61h0c.16-.13.49-.19.82-.24.16-.03.3-.05.41-.08h0l-1.43-1.43-2.85,2.83,1.42,1.42h0l.03-.02ZM13.69,16.3c.08-.09.22-.16.36-.16.11,0,.22.03.3.11.13.11.19.27.16.42-.02.16-.11.28-.27.36-.06.03-.14.05-.2.05-.17,0-.35-.11-.42-.28s-.05-.36.06-.5h.02Z"/><path class="cls-18" d="M20.3,16.08h0c.09.03.25.05.41.08.33.05.68.11.82.24h0c.17.2.41.41.61.61.25.22.5.46.71.71.11.14.14.31.16.49,0,.05,0,.09.02.14.03.06.06.2.11.54h0l1.42-1.4-2.85-2.83-1.43,1.43h.03ZM22.31,16.25c.08-.06.19-.11.3-.11.14,0,.28.06.36.16.13.14.14.33.06.5s-.25.28-.42.28c-.08,0-.14-.02-.2-.05-.14-.08-.24-.2-.27-.36-.02-.16.05-.31.16-.42h.02Z"/><path class="cls-19" d="M25.62,16.38l.16-.16c-.47-.54-.79-.87-1.32-1.4l-1.45-1.46-.2.2.42.42,1.78,1.78.6.6.02.02Z"/><path class="cls-25" d="M22.19,14.19l.42.42,1.78,1.78.61.61.16-.16c-.47-.54-.79-.88-1.32-1.4l-1.45-1.45-.2.2v-.02Z"/><path class="cls-20" d="M13.86,13.56l-.2-.2-1.45,1.46c-.54.54-.85.87-1.32,1.4l.16.16.6-.6,1.78-1.78.42-.42.02-.02Z"/><path class="cls-26" d="M11.66,17.01l.61-.61,1.78-1.78.42-.42-.2-.2-1.45,1.45c-.54.54-.85.87-1.32,1.4l.16.16v.02Z"/></svg>