<?xml version="1.0" encoding="UTF-8"?><svg id="Layer_4" xmlns="http://www.w3.org/2000/svg" xmlns:xlink="http://www.w3.org/1999/xlink" viewBox="0 0 36 36"><defs><style>.cls-1{filter:url(#drop-shadow-3);}.cls-2{fill:url(#linear-gradient-8);}.cls-3{fill:url(#linear-gradient-7);}.cls-4{fill:url(#linear-gradient-5);}.cls-5{fill:url(#linear-gradient-6);}.cls-6{fill:url(#linear-gradient-9);}.cls-7{fill:url(#linear-gradient-4);}.cls-8{fill:url(#linear-gradient-3);}.cls-9{fill:url(#linear-gradient-2);}.cls-10{fill:url(#linear-gradient-10);}.cls-11{fill:url(#linear-gradient-11);}.cls-12{fill:url(#linear-gradient-12);}.cls-13{fill:url(#linear-gradient-13);}.cls-14{fill:url(#linear-gradient-19);}.cls-15{fill:url(#linear-gradient-14);}.cls-16{fill:url(#linear-gradient-21);}.cls-17{fill:url(#linear-gradient-20);}.cls-18{fill:url(#linear-gradient-22);}.cls-19{fill:url(#linear-gradient-23);}.cls-20{fill:url(#linear-gradient-25);}.cls-21{fill:url(#linear-gradient-15);}.cls-22{fill:url(#linear-gradient-16);}.cls-23{fill:url(#linear-gradient-17);}.cls-24{fill:url(#linear-gradient-18);}.cls-25{fill:url(#linear-gradient-24);}.cls-26{fill:url(#linear-gradient-26);}.cls-27{fill:url(#linear-gradient);filter:url(#drop-shadow-4);}</style><filter id="drop-shadow-3" x="5.05" y="5.52" width="27.36" height="26.4" filterUnits="userSpaceOnUse"><feOffset dx="1.44" dy="1.44"/><feGaussianBlur result="blur" stdDeviation=".72"/><feFlood flood-color="#000" flood-opacity=".64"/><feComposite in2="blur" operator="in"/><feComposite in="SourceGraphic"/></filter><linearGradient id="linear-gradient" x1="9.47" y1="10.73" x2="26.31" y2="25.08" gradientUnits="userSpaceOnUse"><stop offset=".08" stop-color="#fff"/><stop offset=".17" stop-color="#e2c48b"/><stop offset=".39" stop-color="#e0c289"/><stop offset=".47" stop-color="#d9bc85"/><stop offset=".52" stop-color="#cdb17d"/><stop offset=".57" stop-color="#bca372"/><stop offset=".61" stop-color="#a68f64"/><stop offset=".64" stop-color="#8b7752"/><stop offset=".67" stop-color="#6b5c3d"/><stop offset=".69" stop-color="#4c4029"/><stop offset=".94" stop-color="#e2c48b"/></linearGradient><filter id="drop-shadow-4" x="5.05" y="5.52" width="27.36" height="26.4" filterUnits="userSpaceOnUse"><feOffset dx=".72" dy=".72"/><feGaussianBlur result="blur-2" stdDeviation=".72"/><feFlood flood-color="#000" flood-opacity=".75"/><feComposite in2="blur-2" operator="in"/><feComposite in="SourceGraphic"/></filter><linearGradient id="linear-gradient-2" x1="11.89" y1="36.84" x2="19.62" y2="45.35" gradientTransform="translate(1.41 -24.12) rotate(.1)" gradientUnits="userSpaceOnUse"><stop offset="0" stop-color="#ee2c2c"/><stop offset=".17" stop-color="#e72a2b"/><stop offset=".41" stop-color="#d52729"/><stop offset=".69" stop-color="#b72126"/><stop offset=".7" stop-color="#b62126"/><stop offset=".73" stop-color="#c52226"/><stop offset=".78" stop-color="#d72328"/><stop offset=".82" stop-color="#e22428"/><stop offset=".88" stop-color="#e62529"/></linearGradient><linearGradient id="linear-gradient-3" x1="16.12" y1="9.42" x2="25.32" y2="26.7" xlink:href="#linear-gradient"/><linearGradient id="linear-gradient-4" x1="14.54" y1="10.26" x2="23.74" y2="27.53" xlink:href="#linear-gradient"/><linearGradient id="linear-gradient-5" x1="14.35" y1="10.36" x2="23.55" y2="27.64" xlink:href="#linear-gradient"/><linearGradient id="linear-gradient-6" x1="13.26" y1="10.95" x2="22.46" y2="28.22" xlink:href="#linear-gradient"/><linearGradient id="linear-gradient-7" x1="10.26" y1="12.55" x2="19.45" y2="29.82" xlink:href="#linear-gradient"/><linearGradient id="linear-gradient-8" x1="10.33" y1="12.5" x2="19.53" y2="29.78" xlink:href="#linear-gradient"/><linearGradient id="linear-gradient-9" x1="12.2" y1="11.51" x2="21.4" y2="28.78" xlink:href="#linear-gradient"/><linearGradient id="linear-gradient-10" x1="16.05" y1="9.46" x2="25.25" y2="26.73" xlink:href="#linear-gradient"/><linearGradient id="linear-gradient-11" x1="15.84" y1="9.57" x2="25.04" y2="26.85" xlink:href="#linear-gradient"/><linearGradient id="linear-gradient-12" x1="21.78" y1="10.18" x2="28.02" y2="21.9" xlink:href="#linear-gradient"/><linearGradient id="linear-gradient-13" x1="14.55" y1="10.26" x2="23.75" y2="27.53" xlink:href="#linear-gradient"/><linearGradient id="linear-gradient-14" x1="15.37" y1="9.82" x2="24.57" y2="27.09" xlink:href="#linear-gradient"/><linearGradient id="linear-gradient-15" x1="12.28" y1="11.47" x2="21.48" y2="28.74" xlink:href="#linear-gradient"/><linearGradient id="linear-gradient-16" x1="14.91" y1="10.06" x2="24.11" y2="27.34" xlink:href="#linear-gradient"/><linearGradient id="linear-gradient-17" x1="12.98" y1="11.1" x2="22.18" y2="28.37" xlink:href="#linear-gradient"/><linearGradient id="linear-gradient-18" x1="14.99" y1="10.02" x2="24.19" y2="27.3" xlink:href="#linear-gradient"/><linearGradient id="linear-gradient-19" x1="12.9" y1="13.98" x2="17.51" y2="22.63" xlink:href="#linear-gradient"/><linearGradient id="linear-gradient-20" x1="19.54" y1="14.39" x2="24.23" y2="23.2" xlink:href="#linear-gradient"/><linearGradient id="linear-gradient-21" x1="12.47" y1="11.36" x2="21.67" y2="28.64" xlink:href="#linear-gradient"/><linearGradient id="linear-gradient-22" x1="16.53" y1="9.2" x2="25.73" y2="26.47" xlink:href="#linear-gradient"/><linearGradient id="linear-gradient-23" x1="17.95" y1="8.45" x2="27.15" y2="25.72" xlink:href="#linear-gradient"/><linearGradient id="linear-gradient-24" x1="17.48" y1="8.7" x2="26.68" y2="25.97" xlink:href="#linear-gradient"/><linearGradient id="linear-gradient-25" x1="12.05" y1="11.59" x2="21.25" y2="28.86" xlink:href="#linear-gradient"/><linearGradient id="linear-gradient-26" x1="12.2" y1="11.51" x2="21.4" y2="28.79" xlink:href="#linear-gradient"/></defs><g class="cls-1"><path class="cls-27" d="M18,28.98c-3.01,0-5.85-1.14-7.98-3.2-2.15-2.07-3.33-4.84-3.33-7.78,0-6.05,5.08-10.97,11.31-10.97,3.01,0,5.85,1.14,7.98,3.2,2.15,2.08,3.33,4.84,3.33,7.78,0,6.05-5.08,10.98-11.31,10.98Z"/><ellipse class="cls-9" cx="18" cy="18" rx="9.87" ry="9.54" transform="translate(-1.91 2.14) rotate(-6.47)"/></g><path d="M21.13,20.2c0,.35.29.64.64.64s.64-.29.64-.64-.29-.64-.64-.64-.64.29-.64.64ZM22.11,20.2c0,.19-.15.34-.34.34s-.34-.15-.34-.34.15-.34.34-.34.34.15.34.34Z"/><path d="M18.34,18.59v.22c.44,0,.79-.36.79-.8s-.36-.8-.8-.8c-.02,0-.04,0-.06,0v.22s.04,0,.06,0c.32,0,.58.26.58.58s-.26.58-.57.58Z"/><circle cx="18.33" cy="18.01" r=".34"/><path d="M18.29,21.17c.34,0,.61-.27.61-.61s-.27-.61-.61-.61-.61.27-.61.61.27.61.61.61ZM18.29,20.17c.22,0,.4.18.4.4s-.18.4-.4.4-.4-.18-.4-.4.18-.4.4-.4Z"/><path d="M15.7,21.19l-.98,1.25-.16-.02,1.08-1.36-.08-.46-1.19,1.57-.02-.22,1.17-1.55-.04-.21s-1.25,1.66-1.33,1.89c0,.01-.03.01-.03.02,0,.02,0,.18,0,.2,0,.01.02,0,.03.02.06.17.1.22.27.28.01,0,0,.02.02.03.06.02.19.02.26,0,.01,0,.01-.02.02-.03.05-.02.17-.08.2-.12.11-.14.8-1.06.8-1.06,0,0-.02-.19-.03-.25Z"/><path d="M15.03,22.63s.01.02.04.02c.25.02.72.02.96,0,0,0-.27-.93-.27-.93l-.73.91Z"/><path d="M16.4,23.37c.04.37.44.35.44.35h.56c0-.12,0-.23,0-.3h.44v.3h.93v-.3h.44c0,.07,0,.19,0,.3h.56s.4.02.44-.35c.03-.28.03-.47.03-.47h-3.87s0,.19.03.47Z"/><path d="M15.76,13.96h5.06c0-.06,0-.11,0-.17-.01-.09-.06-.17-.13-.23-.07-.06-.3-.15-.3-.15l-.87-.06-.03-.03v-.03s-.13-.08-.18-.09h-1.02s-1.02,0-1.02,0c-.05,0-.18.09-.18.09v.03s-.04.03-.04.03l-.87.06s-.22.09-.3.15c-.07.06-.12.14-.13.23,0,.06,0,.11,0,.17Z"/><path d="M16.17,14.04v.58s.08.19.11.23c.08.08.28.13.28.13h3.46s.2-.05.28-.13c.03-.03.11-.18.11-.23v-.58s-2.38,0-2.38,0v.63h-.18v-.63h-.28v.63h-.21v-.63h-.28v.63h-.19v-.63h-.24v.63h-.12v-.63h-.15v.63h-.1v-.63h-.12Z"/><path d="M23.92,17.36s.22-.23.22-.24c0,0-.28-.25-.28-.26,0-.05.33-.34.33-.36.05-.12.01-.39-.09-.47-.02-.02-.43-.39-.45-.4,0-.06.18-.16.2-.2.01-.03,0-.11,0-.14,0-.01-.06-.08-.13-.16.77-.76,1.63-1.61,1.63-1.62,0-.02-.02-.01-.02-.01,0,0-.02,0-.03,0-.17.02-1.04.18-1.05.18,0-.02,1.21-1.55,1.28-1.65-.07.08-2.3,2.09-2.33,2.14,0,0-.02.02,0,.03.02.02.92-.11.94-.11.04,0-.02.06-.02.07,0,.01-.27.36-.59.78-.14-.14-.29-.26-.34-.26-.13,0-.16.15-.24.19-.06.03-.13-.1-.17-.15-.02-.02-.28-.31-.41-.39-.11-.07-.27-.1-.4-.04,0,0-.22.22-.32.32-.08.02-.17-.17-.22-.16-.07.01-.09.09-.13.13-.03.03-.1.04-.1.1l2.71,2.7h.03ZM23.84,16.47c-.02-.06-.02-.14-.04-.19-.04-.1-.16-.2-.23-.28-.23-.23-.47-.45-.71-.68-.19-.19-.51-.56-.73-.65-.02,0-.24-.03-.19-.07.1-.02.18-.04.28-.03.31.03.64.47.87.68.04.04.07.07.11.1h0s0,0,0,0c.05.05.1.09.15.14,0,0,0,0,0,0h0c.1.09.2.18.3.28.14.14.28.39.28.4,0,.02,0,.11,0,.13,0,.03-.05.17-.06.18-.02.03-.03,0-.03-.02Z"/><path d="M20.81,21.71s-.27.92-.27.93c.24.02.71.02.96,0,.02,0,.04.01.04-.02l-.73-.91Z"/><path d="M22.42,22.09c-.04-.11-.33-.54-.64-.95,0,0-.01,0-.02,0-.06,0-.12,0-.18-.02l.63.84-.02.22-.87-1.15c-.14-.07-.25-.18-.34-.3l-.06.34,1.08,1.36-.16.02-.98-1.25c-.01.06-.03.25-.03.25,0,0,.7.93.8,1.06.03.04.16.1.2.12.01,0,0,.02.02.03.06.02.19.02.26,0,.01,0,.01-.02.02-.03.17-.07.21-.11.27-.28,0-.01.03-.01.03-.02,0-.02,0-.18,0-.2,0-.01-.02,0-.03-.02Z"/><path d="M19.31,21.3s-.03.03-.04.04c-.23.29-.58.48-.98.48-.69,0-1.25-.56-1.25-1.25,0-.29.1-.57.27-.78-.03-.04-.04-.06-.04-.07l-.53-.53s0,.04,0,.06c0,.19-.15.34-.34.34s-.34-.15-.34-.34.15-.34.34-.34c.02,0,.04,0,.06,0l-.8-.8-.15.15c-.06.06-.12.62-.17.74-.02.05-.04.1-.09.14l-1.14-1.14.18-.18s.02,0,.02,0l-.13-.13-.19.19-.23-.23.19-.19-.17-.17-.19.19-.33-.33c.13-.15,2.01-1.99,2.01-1.99l.32.32-.2.2.12.16.22-.18.26.22-.2.2.13.13.19-.19h.02l1.13,1.13c-.04.05-.09.08-.16.11-.13.04-.68.11-.74.17l-.13.13c.05.06,1.58,1.58,1.64,1.65,0-.01,0-.12.02-.27-.34-.16-.57-.51-.57-.91,0-.56.45-1.01,1.01-1.01.53,0,.96.4,1.01.91,0,.02.01.04.01.04l.33.26c.17-.16.34-.33.5-.5.05-.06.11-.11.16-.16l-.13-.13c-.06-.06-.62-.13-.74-.17-.07-.02-.11-.05-.16-.11l1.13-1.13.21.19.13-.13-.2-.2.28-.26.19.19.13-.13-.2-.2.23-.23s1.88,1.84,2.01,1.99l-.24.24-.19-.19-.13.13.19.19-.27.27-.19-.19-.13.13s.02,0,.02,0l.18.18-1.14,1.14s-.07-.08-.09-.14c-.04-.12-.11-.69-.17-.74l-.15-.15-.6.6.76.6.12.09h.08c.11-.06.23-.11.36-.12l.33-.33s-.09-.09-.11-.11c-.02-.01.23-.24.23-.24l.12.09.45-.44-.08-.11.21-.23.11.08s.74-.75.73-.78l-2.4-2.4-.81.77s-.16-.01-.18-.07c-.02-.06-.16-.22-.22-.25-.02-.01-.09-.04-.11-.05-.1-.01-.35,0-.46,0-.03,0-.05,0-.08.02v.44h-.54v-.46h-1.07v.46h-.54v-.44s-.05-.01-.08-.02c-.11,0-.35-.01-.46,0-.03,0-.09.03-.11.05-.06.03-.19.19-.22.25-.02.05-.1.15-.1.15l-.94-.85-2.4,2.4s.78.78.78.78l.11-.08.21.23-.08.11.45.44.12-.09s.24.23.23.24c-.02.02-.11.11-.11.11l.34.34s-1.17,1.45-1.21,1.49c-.07.07-.21-.02-.16-.1,0-.01,1.12-1.38,1.12-1.38l-.08-.04s-1.26,1.48-1.42,1.67c-.16.21-.4.39-.31.7,0,0,.03.08.09.15-.8.79-1.75,1.73-1.76,1.75,0,.02.02.01.02.01,0,0,.02,0,.03,0,.17-.02,1.04-.18,1.05-.18,0,.02-1.21,1.55-1.28,1.65.07-.08,2.3-2.09,2.33-2.14,0,0,.02-.02,0-.03-.02-.02-.92.11-.94.11-.04,0,.02-.06.02-.07,0-.01.36-.47.74-.97.25.04.81.02.81.02l1.47-2.03c0-.05-.08-.4-.08-.4l-1.91,2.31h-.17s2.17-2.62,2.17-2.62c0,0,.2,1.27.28,1.67.11.53.54,1.74.57,1.8h3.92c.03-.06.44-1.2.56-1.75l-1.49.4Z"/><path d="M20.47,19.39c-.05.11-.17.19-.31.19-.19,0-.34-.15-.34-.34,0-.02,0-.04,0-.06l-.14.14-.43.45c.17.21.28.49.28.79,0,.05,0,.1,0,.15l1.32-.34c-.01-.06-.02-.12-.02-.18,0-.16.04-.32.11-.45l-.47-.36Z"/><path d="M17.25,19.47l.27.27c.13-.12.29-.21.46-.26-.03,0-.06-.01-.08-.02-.01,0-.03-.01-.05-.02-.03-.02-.07-.03-.07-.04l-.15-.15-.33-.33-.03-.03-.24-.24-.81-.81c-.12.12-.14.31-.12.48l1.16,1.16Z"/><path d="M19.33,19.47l1.16-1.16c.02-.16,0-.35-.12-.48l-.81.81-.24.24-.03.03-.33.33-.15.15s-.04.03-.07.04c-.02.01-.04.02-.05.02-.02,0-.06.02-.09.02.17.05.33.14.46.26l.27-.27Z"/><path d="M11.27,13.48s-.02,0-.03,0c0,0-.03,0-.02.01,0,.01.83.83,1.59,1.58-.1.1-.17.18-.17.2-.01.03-.02.12,0,.14.02.04.21.14.2.2-.02.02-.43.39-.45.4-.11.09-.14.35-.09.47,0,.01.33.31.33.36,0,.01-.28.26-.28.26,0,0,.2.2.22.24h.03s2.71-2.71,2.71-2.71c0-.06-.06-.07-.1-.1-.04-.04-.07-.11-.13-.13-.05,0-.13.18-.22.16-.1-.1-.32-.31-.32-.32-.13-.06-.29-.03-.4.04-.13.08-.38.36-.41.39-.04.04-.11.18-.17.15-.08-.04-.11-.18-.24-.19-.05,0-.17.09-.29.21-.3-.4-.55-.72-.56-.73,0,0-.06-.06-.02-.07.02,0,.92.13.94.11.01-.01,0-.02,0-.03-.03-.05-2.25-2.06-2.33-2.14.08.1,1.28,1.63,1.28,1.65,0,0-.89-.16-1.05-.18ZM14.28,14.57c.1-.01.18.01.28.03.04.04-.18.07-.19.07-.23.09-.54.46-.73.65-.24.23-.48.45-.71.68-.08.08-.19.17-.23.28-.02.06-.02.13-.04.19,0,.02,0,.05-.03.02,0,0-.06-.16-.06-.18,0-.03,0-.11,0-.13,0-.01.15-.26.28-.4.19-.19.38-.35.56-.52.22-.21.56-.65.87-.68Z"/><path d="M25.3,23.54s.02,0,.03,0c0,0,.03,0,.02-.01,0-.01-.96-.96-1.76-1.75.06-.07.08-.15.09-.15.09-.3-.15-.49-.31-.7-.07-.09-.37-.44-.67-.8,0,.02,0,.05,0,.07,0,.04,0,.07,0,.11.17.2.29.36.3.36.05.07-.1.17-.16.1,0,0-.08-.1-.19-.23-.04.11-.1.21-.18.29l.81.98h-.17s-.73-.89-.73-.89c-.11.09-.24.16-.38.19l.59.81s.55.03.81-.02c.38.5.73.96.74.97,0,0,.06.06.02.07-.02,0-.92-.13-.94-.11-.01.01,0,.02,0,.03.03.05,2.25,2.06,2.33,2.14-.08-.1-1.28-1.63-1.28-1.65,0,0,.89.16,1.05.18Z"/><path d="M15.22,18.9c.03-.21.05-.3.07-.34,0-.03,0-.06.01-.09.02-.1.03-.22.1-.31.12-.16.29-.31.45-.45.14-.13.28-.26.39-.39h0s0,0,0,0c.1-.08.31-.12.52-.15.1-.02.19-.03.26-.05h0s-.91-.91-.91-.91l-1.81,1.8.9.9h0ZM15.34,17.25c.05-.06.14-.1.23-.1.07,0,.14.02.19.07.08.07.12.17.1.27-.01.1-.07.18-.17.23-.04.02-.09.03-.13.03-.11,0-.22-.07-.27-.18-.05-.11-.03-.23.04-.32Z"/><path d="M19.54,17.11h0c.06.02.16.03.26.05.21.03.43.07.52.15h0s0,0,0,0c.11.13.26.26.39.39.16.14.32.29.45.45.07.09.09.2.1.31,0,.03,0,.06.01.09.02.04.04.13.07.34h0s.9-.89.9-.89l-1.81-1.8-.91.91ZM20.81,17.22c.05-.04.12-.07.19-.07.09,0,.18.04.23.1.08.09.09.21.04.32-.05.11-.16.18-.27.18-.05,0-.09-.01-.13-.03-.09-.05-.15-.13-.17-.23-.01-.1.03-.2.1-.27Z"/><path d="M22.92,17.3l.1-.1c-.3-.34-.5-.55-.84-.89l-.92-.93-.13.13.27.27,1.13,1.13.38.38Z"/><path d="M20.74,15.91l.27.27,1.13,1.13.39.39.1-.1c-.3-.34-.5-.56-.84-.89l-.92-.92-.13.13Z"/><path d="M15.44,15.51l-.13-.13-.92.93c-.34.34-.54.55-.84.89l.1.1.38-.38,1.13-1.13.27-.27Z"/><path d="M14.05,17.69l.39-.39,1.13-1.13.27-.27-.13-.13-.92.92c-.34.34-.54.55-.84.89l.1.1Z"/><path class="cls-8" d="M21.05,19.88c0,.35.29.64.64.64s.64-.29.64-.64-.29-.64-.64-.64-.64.29-.64.64ZM22.03,19.88c0,.19-.15.34-.34.34s-.34-.15-.34-.34.15-.34.34-.34.34.15.34.34Z"/><path class="cls-7" d="M18.26,18.27v.22c.44,0,.79-.36.79-.8s-.36-.8-.8-.8c-.02,0-.04,0-.06,0v.22s.04,0,.06,0c.32,0,.58.26.58.58s-.26.58-.57.58Z"/><circle class="cls-4" cx="18.25" cy="17.69" r=".34"/><path class="cls-5" d="M18.21,20.85c.34,0,.61-.27.61-.61s-.27-.61-.61-.61-.61.27-.61.61.27.61.61.61ZM18.21,19.85c.22,0,.4.18.4.4s-.18.4-.4.4-.4-.18-.4-.4.18-.4.4-.4Z"/><path class="cls-3" d="M15.62,20.87l-.98,1.25-.16-.02,1.08-1.36-.08-.46-1.19,1.57-.02-.22,1.17-1.55-.04-.21s-1.25,1.66-1.33,1.89c0,.01-.03.01-.03.02,0,.02,0,.18,0,.2,0,.01.02,0,.03.02.06.17.1.22.27.28.01,0,0,.02.02.03.06.02.19.02.26,0,.01,0,.01-.02.02-.03.05-.02.17-.08.2-.12.11-.14.8-1.06.8-1.06,0,0-.02-.19-.03-.25Z"/><path class="cls-2" d="M14.95,22.31s.01.02.04.02c.25.02.72.02.96,0,0,0-.27-.93-.27-.93l-.73.91Z"/><path class="cls-6" d="M16.33,23.05c.04.37.44.35.44.35h.56c0-.12,0-.23,0-.3h.44v.3h.93v-.3h.44c0,.07,0,.19,0,.3h.56s.4.02.44-.35c.03-.28.03-.47.03-.47h-3.87s0,.19.03.47Z"/><path class="cls-10" d="M15.69,13.64h5.06c0-.06,0-.11,0-.17-.01-.09-.06-.17-.13-.23-.07-.06-.3-.15-.3-.15l-.87-.06-.03-.03v-.03s-.13-.08-.18-.09h-1.02s-1.02,0-1.02,0c-.05,0-.18.09-.18.09v.03s-.04.03-.04.03l-.87.06s-.22.09-.3.15c-.07.06-.12.14-.13.23,0,.06,0,.11,0,.17Z"/><path class="cls-11" d="M16.1,13.72v.58s.08.19.11.23c.08.08.28.13.28.13h3.46s.2-.05.28-.13c.03-.03.11-.18.11-.23v-.58s-2.38,0-2.38,0v.63h-.18v-.63h-.28v.63h-.21v-.63h-.28v.63h-.19v-.63h-.24v.63h-.12v-.63h-.15v.63h-.1v-.63h-.12Z"/><path class="cls-12" d="M23.85,17.04s.22-.23.22-.24c0,0-.28-.25-.28-.26,0-.05.33-.34.33-.36.05-.12.01-.39-.09-.47-.02-.02-.43-.39-.45-.4,0-.06.18-.16.2-.2.01-.03,0-.11,0-.14,0-.01-.06-.08-.13-.16.77-.76,1.63-1.61,1.63-1.62,0-.02-.02-.01-.02-.01,0,0-.02,0-.03,0-.17.02-1.04.18-1.05.18,0-.02,1.21-1.55,1.28-1.65-.07.08-2.3,2.09-2.33,2.14,0,0-.02.02,0,.03.02.02.92-.11.94-.11.04,0-.02.06-.02.07,0,.01-.27.36-.59.78-.14-.14-.29-.26-.34-.26-.13,0-.16.15-.24.19-.06.03-.13-.1-.17-.15-.02-.02-.28-.31-.41-.39-.11-.07-.27-.1-.4-.04,0,0-.22.22-.32.32-.08.02-.17-.17-.22-.16-.07.01-.09.09-.13.13-.03.03-.1.04-.1.1l2.71,2.7h.03ZM23.76,16.15c-.02-.06-.02-.14-.04-.19-.04-.1-.16-.2-.23-.28-.23-.23-.47-.45-.71-.68-.19-.19-.51-.56-.73-.65-.02,0-.24-.03-.19-.07.1-.02.18-.04.28-.03.31.03.64.47.87.68.04.04.07.07.11.1h0s0,0,0,0c.05.05.1.09.15.14,0,0,0,0,0,0h0c.1.09.2.18.3.28.14.14.28.39.28.4,0,.02,0,.11,0,.13,0,.03-.05.17-.06.18-.02.03-.03,0-.03-.02Z"/><path class="cls-13" d="M20.74,21.4s-.27.92-.27.93c.24.02.71.02.96,0,.02,0,.04.01.04-.02l-.73-.91Z"/><path class="cls-15" d="M22.34,21.77c-.04-.11-.33-.54-.64-.95,0,0-.01,0-.02,0-.06,0-.12,0-.18-.02l.63.84-.02.22-.87-1.15c-.14-.07-.25-.18-.34-.3l-.06.34,1.08,1.36-.16.02-.98-1.25c-.01.06-.03.25-.03.25,0,0,.7.93.8,1.06.03.04.16.1.2.12.01,0,0,.02.02.03.06.02.19.02.26,0,.01,0,.01-.02.02-.03.17-.07.21-.11.27-.28,0-.01.03-.01.03-.02,0-.02,0-.18,0-.2,0-.01-.02,0-.03-.02Z"/><path class="cls-21" d="M19.24,20.98s-.03.03-.04.04c-.23.29-.58.48-.98.48-.69,0-1.25-.56-1.25-1.25,0-.29.1-.57.27-.78-.03-.04-.04-.06-.04-.07l-.53-.53s0,.04,0,.06c0,.19-.15.34-.34.34s-.34-.15-.34-.34.15-.34.34-.34c.02,0,.04,0,.06,0l-.8-.8-.15.15c-.06.06-.12.62-.17.74-.02.05-.04.1-.09.14l-1.14-1.14.18-.18s.02,0,.02,0l-.13-.13-.19.19-.23-.23.19-.19-.17-.17-.19.19-.33-.33c.13-.15,2.01-1.99,2.01-1.99l.32.32-.2.2.12.16.22-.18.26.22-.2.2.13.13.19-.19h.02l1.13,1.13c-.04.05-.09.08-.16.11-.13.04-.68.11-.74.17l-.13.13c.05.06,1.58,1.58,1.64,1.65,0-.01,0-.12.02-.27-.34-.16-.57-.51-.57-.91,0-.56.45-1.01,1.01-1.01.53,0,.96.4,1.01.91,0,.02.01.04.01.04l.33.26c.17-.16.34-.33.5-.5.05-.06.11-.11.16-.16l-.13-.13c-.06-.06-.62-.13-.74-.17-.07-.02-.11-.05-.16-.11l1.13-1.13.21.19.13-.13-.2-.2.28-.26.19.19.13-.13-.2-.2.23-.23s1.88,1.84,2.01,1.99l-.24.24-.19-.19-.13.13.19.19-.27.27-.19-.19-.13.13s.02,0,.02,0l.18.18-1.14,1.14s-.07-.08-.09-.14c-.04-.12-.11-.69-.17-.74l-.15-.15-.6.6.76.6.12.09h.08c.11-.06.23-.11.36-.12l.33-.33s-.09-.09-.11-.11c-.02-.01.23-.24.23-.24l.12.09.45-.44-.08-.11.21-.23.11.08s.74-.75.73-.78l-2.4-2.4-.81.77s-.16-.01-.18-.07c-.02-.06-.16-.22-.22-.25-.02-.01-.09-.04-.11-.05-.1-.01-.35,0-.46,0-.03,0-.05,0-.08.02v.44h-.54v-.46h-1.07v.46h-.54v-.44s-.05-.01-.08-.02c-.11,0-.35-.01-.46,0-.03,0-.09.03-.11.05-.06.03-.19.19-.22.25-.02.05-.1.15-.1.15l-.94-.85-2.4,2.4s.78.78.78.78l.11-.08.21.23-.08.11.45.44.12-.09s.24.23.23.24c-.02.02-.11.11-.11.11l.34.34s-1.17,1.45-1.21,1.49c-.07.07-.21-.02-.16-.1,0-.01,1.12-1.38,1.12-1.38l-.08-.04s-1.26,1.48-1.42,1.67c-.16.21-.4.39-.31.7,0,0,.03.08.09.15-.8.79-1.75,1.73-1.76,1.75,0,.02.02.01.02.01,0,0,.02,0,.03,0,.17-.02,1.04-.18,1.05-.18,0,.02-1.21,1.55-1.28,1.65.07-.08,2.3-2.09,2.33-2.14,0,0,.02-.02,0-.03-.02-.02-.92.11-.94.11-.04,0,.02-.06.02-.07,0-.01.36-.47.74-.97.25.04.81.02.81.02l1.47-2.03c0-.05-.08-.4-.08-.4l-1.91,2.31h-.17s2.17-2.62,2.17-2.62c0,0,.2,1.27.28,1.67.11.53.54,1.74.57,1.8h3.92c.03-.06.44-1.2.56-1.75l-1.49.4Z"/><path class="cls-22" d="M20.4,19.07c-.05.11-.17.19-.31.19-.19,0-.34-.15-.34-.34,0-.02,0-.04,0-.06l-.14.14-.43.45c.17.21.28.49.28.79,0,.05,0,.1,0,.15l1.32-.34c-.01-.06-.02-.12-.02-.18,0-.16.04-.32.11-.45l-.47-.36Z"/><path class="cls-23" d="M17.18,19.15l.27.27c.13-.12.29-.21.46-.26-.03,0-.06-.01-.08-.02-.01,0-.03-.01-.05-.02-.03-.02-.07-.03-.07-.04l-.15-.15-.33-.33-.03-.03-.24-.24-.81-.81c-.12.12-.14.31-.12.48l1.16,1.16Z"/><path class="cls-24" d="M19.26,19.15l1.16-1.16c.02-.16,0-.35-.12-.48l-.81.81-.24.24-.03.03-.33.33-.15.15s-.04.03-.07.04c-.02.01-.04.02-.05.02-.02,0-.06.02-.09.02.17.05.33.14.46.26l.27-.27Z"/><path class="cls-14" d="M11.19,13.16s-.02,0-.03,0c0,0-.03,0-.02.01,0,.01.83.83,1.59,1.58-.1.1-.17.18-.17.2-.01.03-.02.12,0,.14.02.04.21.14.2.2-.02.02-.43.39-.45.4-.11.09-.14.35-.09.47,0,.01.33.31.33.36,0,.01-.28.26-.28.26,0,0,.2.2.22.24h.03s2.71-2.71,2.71-2.71c0-.06-.06-.07-.1-.1-.04-.04-.07-.11-.13-.13-.05,0-.13.18-.22.16-.1-.1-.32-.31-.32-.32-.13-.06-.29-.03-.4.04-.13.08-.38.36-.41.39-.04.04-.11.18-.17.15-.08-.04-.11-.18-.24-.19-.05,0-.17.09-.29.21-.3-.4-.55-.72-.56-.73,0,0-.06-.06-.02-.07.02,0,.92.13.94.11.01-.01,0-.02,0-.03-.03-.05-2.25-2.06-2.33-2.14.08.1,1.28,1.63,1.28,1.65,0,0-.89-.16-1.05-.18ZM14.2,14.25c.1-.01.18.01.28.03.04.04-.18.07-.19.07-.23.09-.54.46-.73.65-.24.23-.48.45-.71.68-.08.08-.19.17-.23.28-.02.06-.02.13-.04.19,0,.02,0,.05-.03.02,0,0-.06-.16-.06-.18,0-.03,0-.11,0-.13,0-.01.15-.26.28-.4.19-.19.38-.35.56-.52.22-.21.56-.65.87-.68Z"/><path class="cls-17" d="M25.23,23.22s.02,0,.03,0c0,0,.03,0,.02-.01,0-.01-.96-.96-1.76-1.75.06-.07.08-.15.09-.15.09-.3-.15-.49-.31-.7-.07-.09-.37-.44-.67-.8,0,.02,0,.05,0,.07,0,.04,0,.07,0,.11.17.2.29.36.3.36.05.07-.1.17-.16.1,0,0-.08-.1-.19-.23-.04.11-.1.21-.18.29l.81.98h-.17s-.73-.89-.73-.89c-.11.09-.24.16-.38.19l.59.81s.55.03.81-.02c.38.5.73.96.74.97,0,0,.06.06.02.07-.02,0-.92-.13-.94-.11-.01.01,0,.02,0,.03.03.05,2.25,2.06,2.33,2.14-.08-.1-1.28-1.63-1.28-1.65,0,0,.89.16,1.05.18Z"/><path class="cls-16" d="M15.14,18.58c.03-.21.05-.3.07-.34,0-.03,0-.06.01-.09.02-.1.03-.22.1-.31.12-.16.29-.31.45-.45.14-.13.28-.26.39-.39h0s0,0,0,0c.1-.08.31-.12.52-.15.1-.02.19-.03.26-.05h0s-.91-.91-.91-.91l-1.81,1.8.9.9h0ZM15.26,16.93c.05-.06.14-.1.23-.1.07,0,.14.02.19.07.08.07.12.17.1.27-.01.1-.07.18-.17.23-.04.02-.09.03-.13.03-.11,0-.22-.07-.27-.18-.05-.11-.03-.23.04-.32Z"/><path class="cls-18" d="M19.46,16.79h0c.06.02.16.03.26.05.21.03.43.07.52.15h0s0,0,0,0c.11.13.26.26.39.39.16.14.32.29.45.45.07.09.09.2.1.31,0,.03,0,.06.01.09.02.04.04.13.07.34h0s.9-.89.9-.89l-1.81-1.8-.91.91ZM20.74,16.9c.05-.04.12-.07.19-.07.09,0,.18.04.23.1.08.09.09.21.04.32-.05.11-.16.18-.27.18-.05,0-.09-.01-.13-.03-.09-.05-.15-.13-.17-.23-.01-.1.03-.2.1-.27Z"/><path class="cls-19" d="M22.84,16.98l.1-.1c-.3-.34-.5-.55-.84-.89l-.92-.93-.13.13.27.27,1.13,1.13.38.38Z"/><path class="cls-25" d="M20.66,15.59l.27.27,1.13,1.13.39.39.1-.1c-.3-.34-.5-.56-.84-.89l-.92-.92-.13.13Z"/><path class="cls-20" d="M15.37,15.19l-.13-.13-.92.93c-.34.34-.54.55-.84.89l.1.1.38-.38,1.13-1.13.27-.27Z"/><path class="cls-26" d="M13.97,17.38l.39-.39,1.13-1.13.27-.27-.13-.13-.92.92c-.34.34-.54.55-.84.89l.1.1Z"/></svg>