<?xml version="1.0" encoding="UTF-8"?><svg id="Layer_1" xmlns="http://www.w3.org/2000/svg" viewBox="0 0 1080 1080"><defs><style>.cls-1{fill:#e5c286;}</style></defs><path class="cls-1" d="M661.6,612.39c0,15.1,12.24,27.34,27.34,27.34s27.34-12.24,27.34-27.34-12.24-27.34-27.34-27.34-27.34,12.24-27.34,27.34ZM703.47,612.39c0,8.03-6.51,14.53-14.53,14.53s-14.53-6.51-14.53-14.53,6.51-14.53,14.53-14.53,14.53,6.51,14.53,14.53Z"/><path class="cls-1" d="M542.15,543.51l.46,9.38c18.57-.38,33.51-15.55,33.51-34.21s-15.32-34.23-34.23-34.23c-.88,0-1.76.04-2.62.11l.46,9.39c.72-.06,1.43-.11,2.17-.11,13.72,0,24.84,11.12,24.84,24.84s-10.98,24.69-24.58,24.83Z"/><circle class="cls-1" cx="541.9" cy="518.68" r="14.53"/><path class="cls-1" d="M540.11,653.98c14.34,0,25.97-11.63,25.97-25.97s-11.63-25.97-25.97-25.97-25.97,11.63-25.97,25.97,11.63,25.97,25.97,25.97ZM540.11,610.83c9.49,0,17.18,7.69,17.18,17.18s-7.69,17.18-17.18,17.18-17.18-7.69-17.18-17.18,7.69-17.18,17.18-17.18Z"/><path class="cls-1" d="M429.23,654.67l-41.88,53.53-7.01-.68,46.24-58.13-3.27-19.61-50.9,67.18-.9-9.32,50.1-66.31-1.64-8.92s-53.65,70.82-56.86,80.88c-.16.5-1.08.48-1.18.93-.24,1.02-.24,7.52,0,8.54.1.44,1,.41,1.18.94,2.47,7.37,4.44,9.32,11.52,12.12.44.17.42,1.02.95,1.17,2.69.78,8.31.83,10.99-.02.55-.17.52-.95.97-1.16,1.93-.86,7.27-3.54,8.56-5.14,4.68-5.82,34.41-45.42,34.41-45.42,0,0-.81-8.02-1.28-10.57Z"/><path class="cls-1" d="M400.57,716.06c-.24,1.44.62.87,1.57.95,10.6.83,30.74,1.03,41.18,0-.05-.4-11.45-39.88-11.45-39.88l-31.3,38.93Z"/><path class="cls-1" d="M459.42,748.09c1.52,16.04,18.69,15.09,18.69,15.09h24.05c.04-5.02-.02-10.02,0-12.95h18.86v12.95h39.7v-12.95h18.86c.02,2.93-.04,7.93,0,12.95h24.05s17.18.95,18.69-15.09c1.14-12.02,1.26-20.07,1.26-20.07h-165.42s.12,8.05,1.26,20.07Z"/><path class="cls-1" d="M432.05,345.22h216.31c-.13-2.36.22-4.8-.07-7.16-.5-4.02-2.45-7.34-5.43-9.83-3.12-2.61-12.73-6.27-12.73-6.27l-37.09-2.51-1.26-1.26-.29-1.26s-5.3-3.51-7.57-3.77l-43.73.08-43.73-.08c-2.27.26-7.57,3.77-7.57,3.77l-.29,1.26-1.26,1.26-37.08,2.51s-9.61,3.66-12.73,6.27c-2.98,2.49-4.92,5.81-5.43,9.83-.29,2.36.06,4.8-.07,7.16Z"/><path class="cls-1" d="M449.65,349v24.83c0,2,3.22,8.32,4.67,9.79,3.37,3.41,11.94,5.66,11.94,5.66h147.88s8.57-2.26,11.94-5.66c1.45-1.47,4.67-7.79,4.67-9.79v-24.83s-101.91,0-101.91,0v27.03h-7.54v-27.03h-11.94v27.03h-8.8v-27.03h-11.94v27.03h-8.17v-27.03h-10.06v27.03h-5.03v-27.03h-6.29v27.03h-4.4v-27.03h-5.03Z"/><path class="cls-1" d="M781.16,490.65c.78-1.51,9.4-9.71,9.4-10.1,0-.38-11.78-10.82-11.82-11.3.36-2.11,14.04-14.65,14.29-15.28,2.1-5.23.5-16.49-4.04-20.25-.97-.8-18.54-16.66-19.21-17.32-.2-2.62,7.86-6.94,8.68-8.59.53-1.08.24-4.81-.18-6.11-.21-.64-2.47-3.32-5.65-6.75,32.87-32.4,69.6-68.69,69.75-69.29.26-1-.77-.62-.84-.63-.41-.06-.98-.18-1.36-.13-7.23.91-44.66,7.69-45.09,7.69.3-.84,211.5-240.3,216.43-247.42-4.79,5.28-172.35,168.24-178.88,176-7.16,8.51-80.85,90.29-82.18,92.33-.25.39-.73.64-.26,1.13.89.93,39.5-4.82,40.22-4.7,1.56.26-.73,2.72-.91,2.95-.35.44-11.73,15.42-25.4,33.39-6.12-5.89-12.41-11.18-14.74-11.06-5.49.28-7.03,6.4-10.37,7.91-2.76,1.25-5.61-4.45-7.49-6.33-1.06-1.05-11.95-13.18-17.38-16.56-4.76-2.96-11.49-4.23-17.03-1.75-.21.09-9.5,9.46-13.84,13.54-3.63.8-7.26-7.24-9.25-6.85-2.78.54-4.03,3.79-5.62,5.45-1.35,1.41-4.1,1.81-4.12,4.25l115.8,115.56,1.07.2ZM777.35,452.92c-.74-2.51-.8-5.86-1.77-8.27-1.74-4.32-6.68-8.53-9.93-11.78-9.71-9.71-20.26-19.39-30.32-29.08-8.28-7.97-21.66-24.07-31.36-27.85-.69-.27-10.21-1.42-8.31-3.19,4.28-.71,7.73-1.64,12.19-1.19,13.06,1.3,27.54,20.11,37.06,29.26,1.57,1.51,3.16,2.98,4.76,4.44h0s0,0,0,0c2.14,1.96,4.31,3.9,6.49,5.85.01,0,.02.02.03.03h0c4.28,3.85,8.59,7.78,12.79,12.11,5.8,5.98,12.04,16.73,12.14,17.19.22.95.2,4.5.07,5.58-.14,1.12-2.24,7.46-2.57,7.82-1,1.08-1.07-.24-1.27-.92Z"/><path class="cls-1" d="M648.13,677.13s-11.41,39.48-11.45,39.88c10.44,1.03,30.58.83,41.18,0,.95-.07,1.8.49,1.57-.95l-31.3-38.93Z"/><path class="cls-1" d="M716.88,693.27c-1.51-4.73-14.19-22.91-27.19-40.84-.25,0-.5.02-.76.02-2.59,0-5.13-.26-7.58-.73l27.13,35.9-.9,9.32-37.15-49.03c-5.87-3.07-10.9-7.54-14.61-12.98l-2.41,14.45,46.24,58.13-7.01.68-41.88-53.53c-.47,2.55-1.28,10.57-1.28,10.57,0,0,29.73,39.6,34.41,45.42,1.29,1.6,6.63,4.28,8.56,5.14.46.2.42.98.97,1.16,2.68.85,8.3.8,10.99.02.53-.15.51-1,.95-1.17,7.08-2.8,9.05-4.75,11.52-12.12.18-.53,1.07-.5,1.18-.94.24-1.02.24-7.52,0-8.54-.1-.45-1.02-.43-1.18-.93Z"/><path class="cls-1" d="M583.89,659.55c-.45.75-1.08,1.25-1.85,1.56-9.79,12.38-24.93,20.33-41.93,20.33-29.51,0-53.44-23.92-53.44-53.44,0-12.6,4.37-24.18,11.67-33.31-1.2-1.51-1.84-2.53-1.82-2.91l-22.73-22.72c.13.78.21,1.57.21,2.39,0,8.03-6.51,14.53-14.53,14.53s-14.53-6.51-14.53-14.53,6.51-14.53,14.53-14.53c.82,0,1.61.08,2.39.21l-34.21-34.21-6.39,6.39c-2.37,2.37-5.29,26.51-7.11,31.82-.76,2.22-1.89,4.3-3.74,5.8l-48.78-48.78,7.88-7.88c.06-.06.78.11.74-.15l-5.69-5.69-8.33,8.33-9.82-9.81,8.33-8.33-7.21-7.21-8.33,8.33-14.02-14.02c5.57-6.41,86.1-85.21,86.1-85.21l13.57,13.57-8.62,8.63,5.26,6.72,9.2-7.68,11.19,9.37-8.62,8.63,5.39,5.39,8.18-8.18h.89l48.33,48.33c-1.91,2.32-3.87,3.62-6.69,4.54-5.43,1.77-29.27,4.65-31.82,7.21l-5.5,5.5c2.26,2.39,67.49,67.69,70.21,70.65-.01-.57.25-4.97.78-11.52-14.48-7.02-24.48-21.81-24.48-38.98,0-23.94,19.41-43.35,43.35-43.35,22.47,0,40.95,17.1,43.13,39.01.27.85.47,1.5.47,1.5l14.07,11.1c7.18-7.04,14.44-14.01,21.38-21.42,2.25-2.4,4.76-4.59,7.01-6.99l-5.5-5.5c-2.55-2.55-26.4-5.43-31.82-7.21-2.82-.92-4.78-2.22-6.69-4.54l48.33-48.33,9.07,8.18,5.39-5.39-8.63-8.63,12.08-11.19,8.18,8.18,5.39-5.39-8.63-8.63,9.93-9.93s80.53,78.8,86.1,85.21l-10.37,10.38-8.33-8.33-5.39,5.39,8.33,8.33-11.64,11.64-8.33-8.33-5.69,5.69c-.04.25.68.08.74.15l7.88,7.88-48.78,48.78c-1.86-1.5-2.98-3.58-3.74-5.8-1.83-5.31-4.75-29.46-7.11-31.82l-6.39-6.39-25.53,25.53,32.59,25.72,5,3.87,3.54.23c4.56-2.81,9.73-4.73,15.26-5.53l14.12-14.14s-4.03-3.79-4.82-4.54c-.65-.62,9.79-10.38,9.79-10.38l5.28,3.96,19.28-18.62-3.53-4.58,9.03-9.65,4.59,3.58s31.62-32.24,31.37-33.19l-102.84-102.49-34.53,32.77s-6.83-.48-7.81-2.82c-1.02-2.42-6.7-9.25-9.24-10.53-.96-.49-3.72-1.81-4.82-1.95-4.4-.56-14.92-.35-19.55.02-1.21.09-2.27.37-3.43.66v18.86h-23.26v-19.49h-45.67v19.49h-23.26v-18.86c-1.15-.29-2.22-.56-3.43-.66-4.63-.36-15.15-.58-19.55-.02-1.1.14-3.86,1.46-4.82,1.95-2.54,1.28-8.22,8.11-9.24,10.53-.99,2.34-4.17,6.47-4.17,6.47l-40-36.41-102.84,102.49c-.25.95,33.19,33.19,33.19,33.19l4.59-3.58,9.03,9.65-3.53,4.58,19.28,18.62,5.29-3.96s10.44,9.76,9.79,10.38c-.79.75-4.82,4.54-4.82,4.54l14.46,14.48s-50.11,61.99-51.55,63.61c-2.81,3.18-8.97-1-6.95-4.1.41-.63,47.99-58.95,47.99-58.95l-3.46-1.88s-53.96,63.15-60.61,71.64c-6.95,8.87-17.12,16.76-13.39,29.76.05.17,1.25,3.38,3.65,6.54-34.11,33.61-75.03,74.02-75.19,74.65-.26,1,.77.62.84.63.41.06.98.18,1.36.13,7.22-.91,44.66-7.69,45.09-7.69-.31.84-211.5,240.3-216.43,247.42,4.79-5.28,172.35-168.24,178.87-176,7.16-8.51,80.85-90.29,82.18-92.33.25-.39.73-.64.26-1.13-.89-.93-39.5,4.82-40.22,4.7-1.56-.26.73-2.72.91-2.95.41-.5,15.37-20.2,31.63-41.57,10.73,1.74,34.44.66,34.44.66l62.86-87.02c0-2.34-3.4-17.18-3.4-17.18l-81.77,98.86-7.31.23,92.85-112.15s8.4,54.2,11.96,71.64c4.62,22.62,23.17,74.38,24.45,76.87h167.61c1.24-2.42,18.82-51.44,24.04-74.94l-63.95,17.04Z"/><path class="cls-1" d="M633.6,577.75c-2.35,4.87-7.32,8.24-13.08,8.24-8.03,0-14.53-6.51-14.53-14.53,0-.82.08-1.61.21-2.39l-6.12,6.12-18.42,19.23c7.43,9.18,11.89,20.86,11.89,33.59,0,2.14-.14,4.24-.38,6.31l56.43-14.43c-.46-2.43-.71-4.94-.71-7.5,0-6.96,1.78-13.51,4.91-19.22l-20.18-15.42Z"/><path class="cls-1" d="M495.81,581.09l11.41,11.41c5.52-5.11,12.21-8.96,19.65-11.07-1.29-.21-2.58-.46-3.52-.84-.43-.18-1.27-.57-2.17-1.02-1.34-.68-2.8-1.48-3.19-1.87l-6.25-6.25-14.17-14.17-1.37-1.37-10.12-10.12-34.76-34.76c-5.33,5.3-5.99,13.32-5.21,20.37l49.69,49.69Z"/><path class="cls-1" d="M584.79,581.09l49.69-49.69c.79-7.05.12-15.08-5.21-20.37l-34.76,34.76-10.12,10.12-1.37,1.37-14.17,14.17-6.25,6.25c-.39.39-1.85,1.19-3.19,1.87-.89.45-1.73.85-2.17,1.02-.99.4-2.38.65-3.75.88,7.47,2.15,14.18,6.04,19.7,11.21l11.59-11.59Z"/><path class="cls-1" d="M239.82,324.91c-.38-.05-.95.06-1.36.13-.07.01-1.09-.37-.84.63.15.59,35.48,35.51,67.85,67.41-4.09,4.29-7.17,7.87-7.42,8.62-.43,1.29-.72,5.03-.18,6.11.82,1.65,8.89,5.98,8.68,8.59-.66.66-18.24,16.52-19.21,17.32-4.54,3.76-6.15,15.02-4.04,20.25.26.64,13.93,13.17,14.29,15.28-.04.48-11.82,10.92-11.82,11.3,0,.39,8.62,8.6,9.4,10.1l1.07-.2,115.8-115.56c-.01-2.44-2.76-2.84-4.12-4.25-1.59-1.66-2.84-4.91-5.62-5.45-2-.39-5.62,7.65-9.25,6.85-4.34-4.07-13.63-13.45-13.84-13.54-5.54-2.48-12.27-1.22-17.03,1.75-5.43,3.38-16.32,15.51-17.38,16.56-1.88,1.87-4.72,7.58-7.48,6.33-3.34-1.51-4.88-7.63-10.37-7.91-2.06-.11-7.21,4.01-12.61,9.04-12.97-17.05-23.53-30.95-23.87-31.37-.18-.23-2.47-2.69-.91-2.95.73-.12,39.33,5.63,40.22,4.7.47-.49-.01-.74-.26-1.13-1.33-2.04-75.01-83.82-82.18-92.33-6.53-7.76-174.08-170.73-178.88-176,4.93,7.11,216.13,246.58,216.43,247.42-.43,0-37.87-6.78-45.09-7.69ZM368.49,371.56c4.46-.44,7.91.48,12.19,1.19,1.9,1.77-7.62,2.92-8.31,3.19-9.7,3.78-23.09,19.88-31.36,27.85-10.06,9.69-20.61,19.37-30.32,29.08-3.25,3.25-8.19,7.46-9.93,11.78-.97,2.41-1.03,5.76-1.77,8.27-.2.68-.27,2-1.27.92-.33-.36-2.43-6.69-2.57-7.82-.14-1.07-.16-4.63.07-5.58.11-.46,6.34-11.2,12.14-17.19,7.94-8.19,16.28-14.95,24.08-22.44,9.52-9.15,24-27.96,37.06-29.26Z"/><path class="cls-1" d="M840.18,755.09c.38.05.95-.06,1.36-.13.07-.01,1.09.37.84-.63-.16-.63-41.08-41.04-75.19-74.65,2.4-3.16,3.6-6.37,3.65-6.54,3.73-13-6.44-20.89-13.39-29.76-3-3.83-15.62-18.77-28.57-34.03.07,1,.13,2.01.13,3.02,0,1.56-.1,3.1-.27,4.61,7.12,8.75,12.51,15.38,12.65,15.59,2.02,3.11-4.14,7.28-6.95,4.1-.35-.39-3.5-4.27-8.1-9.93-1.81,4.69-4.46,8.96-7.79,12.61l34.53,41.71-7.31-.23-31.18-37.69c-4.66,3.88-10.21,6.72-16.31,8.18l25.18,34.85s23.71,1.08,34.44-.66c16.26,21.36,31.22,41.06,31.63,41.57.18.23,2.47,2.69.92,2.95-.73.12-39.33-5.63-40.22-4.7-.47.49.01.74.26,1.13,1.33,2.04,75.01,83.82,82.18,92.33,6.53,7.76,174.08,170.72,178.88,176-4.93-7.11-216.13-246.58-216.43-247.42.43,0,37.87,6.78,45.09,7.69Z"/><path class="cls-1" d="M408.89,556.7c1.48-9.05,2.29-12.84,3.09-14.51.23-1.15.42-2.42.62-3.75.66-4.44,1.41-9.48,4.3-13.12,5.34-6.73,12.33-13.14,19.1-19.34,5.92-5.42,12.04-11.03,16.88-16.71l.15-.17.17-.14c4.21-3.51,13.47-5.03,22.43-6.51,4.27-.7,8.31-1.37,10.92-2.15h.05s-38.86-38.87-38.86-38.87l-77.33,77.04,38.42,38.42.06-.19ZM413.75,486.27c2.3-2.74,6.01-4.38,9.93-4.38,3.15,0,6.08,1.04,8.24,2.94,3.32,2.91,4.97,7.21,4.4,11.52-.56,4.26-3.14,7.81-7.06,9.74-1.86.91-3.79,1.37-5.73,1.37-4.85,0-9.38-2.99-11.55-7.63-2.15-4.6-1.49-9.67,1.76-13.56Z"/><path class="cls-1" d="M593.41,480.28h.05c2.6.79,6.64,1.46,10.92,2.16,8.96,1.47,18.22,3,22.43,6.51l.17.14.15.17c4.83,5.68,10.96,11.29,16.88,16.71,6.77,6.2,13.77,12.61,19.1,19.34,2.89,3.64,3.64,8.68,4.3,13.12.2,1.33.39,2.6.62,3.75.8,1.67,1.61,5.46,3.09,14.51l.06.19,38.42-38.42-77.33-77.04-38.86,38.86ZM648.08,484.82c2.16-1.89,5.09-2.94,8.24-2.94,3.92,0,7.63,1.64,9.93,4.38,3.25,3.89,3.91,8.95,1.76,13.56-2.16,4.63-6.7,7.63-11.55,7.63-1.94,0-3.86-.46-5.72-1.37-3.92-1.93-6.5-5.48-7.06-9.74-.57-4.3,1.08-8.61,4.4-11.52Z"/><path class="cls-1" d="M738.02,488.22l4.28-4.34c-12.74-14.6-21.53-23.74-35.87-38.14l-39.32-39.64-5.57,5.65,11.67,11.67,48.38,48.38,16.43,16.43Z"/><path class="cls-1" d="M644.78,428.69l11.58,11.58,48.38,48.38,16.51,16.51,4.28-4.33c-12.78-14.65-21.58-23.8-35.94-38.23l-39.24-39.56-5.57,5.65Z"/><path class="cls-1" d="M418.43,411.74l-5.57-5.65-39.32,39.64c-14.34,14.41-23.13,23.55-35.87,38.14l4.28,4.34,16.43-16.43,48.38-48.38,11.67-11.67Z"/><path class="cls-1" d="M358.73,505.16l16.51-16.51,48.38-48.38,11.58-11.58-5.57-5.65-39.24,39.56c-14.37,14.43-23.16,23.58-35.94,38.23l4.28,4.33Z"/><path class="cls-1" d="M129.99,117.22c0-1.85.46-3.25,1.39-4.2s2.26-1.42,4.01-1.42h25.92c1.78,0,3.13.48,4.04,1.42.91.94,1.36,2.34,1.36,4.2v76.38c0,1.82-.46,3.21-1.36,4.17-.91.96-2.26,1.45-4.04,1.45h-25.92c-1.75,0-3.08-.48-4.01-1.45s-1.39-2.35-1.39-4.17v-76.38Z"/><path class="cls-1" d="M182.23,199.22c-.79,0-1.53-.15-2.2-.44s-1.26-.69-1.74-1.19c-.49-.51-.87-1.11-1.15-1.81-.28-.7-.42-1.46-.42-2.29v-76.16c0-.82.14-1.59.42-2.29.28-.7.66-1.31,1.15-1.81s1.07-.9,1.74-1.19c.67-.29,1.41-.44,2.2-.44h23.46c1.1,0,2.08.25,2.96.73.87.49,1.59,1.17,2.15,2.05l18.63,26.48c.31.39.64.64,1.01.74s.71.09,1.02-.04c.32-.13.58-.37.78-.73s.31-.8.31-1.35l-.19-22.1c0-.84.14-1.62.41-2.32.27-.7.65-1.31,1.15-1.83.5-.51,1.08-.91,1.76-1.21.67-.29,1.42-.44,2.23-.44h22.95c.81,0,1.55.15,2.23.44.67.29,1.26.69,1.74,1.19s.86,1.11,1.13,1.81.41,1.47.41,2.29v76.16c0,.82-.14,1.59-.41,2.29s-.65,1.31-1.13,1.81c-.49.51-1.07.9-1.74,1.19s-1.42.44-2.23.44h-23.54c-1.06,0-2.03-.23-2.9-.7-.87-.47-1.59-1.13-2.15-1.99l-18.84-24.88c-.33-.45-.68-.74-1.07-.88-.39-.14-.74-.14-1.07,0s-.59.41-.81.8c-.22.39-.31.9-.3,1.52l.49,20.27c.02.84-.11,1.63-.38,2.35-.27.72-.65,1.34-1.15,1.87-.5.52-1.08.93-1.77,1.22-.68.29-1.43.44-2.24.44h-22.89Z"/><path class="cls-1" d="M281.88,199.22c-.79,0-1.53-.15-2.2-.44-.67-.29-1.26-.69-1.74-1.19s-.87-1.11-1.15-1.81c-.28-.7-.42-1.46-.42-2.29v-76.16c0-.82.14-1.59.42-2.29.28-.7.66-1.31,1.15-1.81.49-.51,1.07-.9,1.74-1.19.67-.29,1.41-.44,2.2-.44h23.46c1.1,0,2.08.25,2.96.73.87.49,1.59,1.17,2.15,2.05l18.63,26.48c.31.39.64.64,1.01.74s.71.09,1.02-.04c.32-.13.58-.37.78-.73s.31-.8.31-1.35l-.19-22.1c0-.84.14-1.62.41-2.32.27-.7.65-1.31,1.15-1.83.5-.51,1.08-.91,1.76-1.21.67-.29,1.42-.44,2.23-.44h22.95c.81,0,1.55.15,2.23.44.67.29,1.26.69,1.74,1.19.49.51.86,1.11,1.13,1.81.27.7.41,1.47.41,2.29v76.16c0,.82-.14,1.59-.41,2.29-.27.7-.65,1.31-1.13,1.81s-1.07.9-1.74,1.19c-.67.29-1.42.44-2.23.44h-23.54c-1.06,0-2.03-.23-2.9-.7-.87-.47-1.59-1.13-2.15-1.99l-18.84-24.88c-.33-.45-.68-.74-1.07-.88-.39-.14-.74-.14-1.07,0s-.59.41-.81.8c-.22.39-.31.9-.3,1.52l.49,20.27c.02.84-.11,1.63-.38,2.35-.27.72-.65,1.34-1.15,1.87-.5.52-1.08.93-1.77,1.22-.68.29-1.43.44-2.24.44h-22.89Z"/><path class="cls-1" d="M433.25,110.6c4.49.45,8.4,1.12,11.72,2.01,3.32.89,6.1,1.99,8.34,3.3,2.24,1.31,4.05,2.82,5.41,4.52,1.37,1.7,2.35,3.6,2.93,5.7.59,2.1.88,4.37.88,6.82v44.93c0,2.45-.29,4.73-.88,6.82-.59,2.1-1.56,4-2.93,5.7-1.37,1.71-3.17,3.21-5.41,4.52-2.24,1.31-5.02,2.41-8.34,3.3-3.32.89-7.23,1.56-11.72,2.01-4.49.45-9.67.67-15.54.67s-11.02-.23-15.51-.67c-4.49-.45-8.4-1.12-11.72-2.01-3.32-.89-6.11-1.99-8.36-3.3-2.25-1.31-4.06-2.82-5.42-4.52-1.37-1.7-2.35-3.6-2.93-5.7-.59-2.09-.88-4.37-.88-6.82v-44.93c0-2.45.29-4.73.88-6.82.59-2.1,1.56-4,2.93-5.7,1.37-1.71,3.17-3.21,5.42-4.52,2.25-1.31,5.04-2.41,8.36-3.3,3.32-.89,7.23-1.56,11.72-2.01,4.49-.45,9.66-.67,15.51-.67s11.05.23,15.54.67ZM425.81,134.91c0-.78-.14-1.42-.42-1.89-.28-.48-.73-.85-1.36-1.11-.63-.26-1.46-.44-2.5-.52-1.03-.08-2.31-.13-3.82-.13s-2.79.04-3.82.13c-1.04.08-1.87.26-2.5.52-.63.26-1.08.63-1.36,1.11-.28.48-.42,1.11-.42,1.89v41c0,.79.14,1.42.42,1.89.28.48.73.84,1.36,1.1.63.25,1.46.43,2.5.52,1.03.09,2.31.14,3.82.14s2.79-.05,3.82-.14c1.04-.09,1.87-.27,2.5-.52.63-.25,1.08-.62,1.36-1.1.28-.48.42-1.11.42-1.89v-41Z"/><path class="cls-1" d="M517.5,117.65c.27-.92.65-1.75,1.13-2.5.49-.75,1.07-1.39,1.74-1.91.67-.52,1.43-.93,2.25-1.21.83-.28,1.71-.42,2.65-.42h20.63c1.17,0,2.2.24,3.09.72.89.48,1.61,1.11,2.15,1.91.54.8.87,1.71,1,2.75.13,1.04-.02,2.12-.43,3.24l-21.08,74.13c-.29.82-.65,1.55-1.08,2.16-.43.62-.93,1.12-1.51,1.52-.58.39-1.22.69-1.94.88-.72.2-1.53.3-2.43.3h-30.02c-.9,0-1.71-.09-2.42-.27-.71-.18-1.35-.46-1.9-.83-.56-.38-1.04-.86-1.46-1.45-.42-.59-.77-1.29-1.08-2.09l-22.06-74.22c-.43-1.14-.59-2.24-.49-3.28.11-1.05.44-1.98.98-2.8.55-.81,1.28-1.47,2.19-1.95.91-.49,1.96-.73,3.14-.73h22.14c.95,0,1.85.15,2.7.44.84.29,1.61.71,2.29,1.25.68.55,1.27,1.2,1.77,1.96.5.77.87,1.63,1.12,2.59l5.72,31.96c.2.8.52,1.41.97,1.82.45.41.93.61,1.44.61s1-.2,1.46-.59.79-.99,1.01-1.8l6.32-32.21Z"/><path class="cls-1" d="M545.79,199.22c-1.19,0-2.25-.25-3.17-.74-.93-.5-1.66-1.16-2.2-1.99-.54-.83-.86-1.78-.96-2.84-.1-1.06.08-2.16.53-3.3l22.33-73.09c.45-1.07.95-1.96,1.49-2.7.54-.73,1.12-1.31,1.76-1.74.63-.43,1.32-.74,2.08-.93.76-.19,1.58-.28,2.46-.28h31.43c.92,0,1.76.09,2.52.28.76.19,1.47.5,2.12.93.65.43,1.24,1,1.77,1.71.53.71,1.02,1.6,1.47,2.67l22.76,73.07c.45,1.16.63,2.27.54,3.34-.09,1.07-.41,2.02-.95,2.85-.54.83-1.27,1.5-2.2,2.01s-1.99.76-3.2.76h-24.16c-1.21,0-2.24-.35-3.1-1.05-.86-.7-1.44-1.64-1.73-2.82l-.35-5.33c-.27-.8-.71-1.44-1.32-1.89-.61-.46-1.33-.69-2.16-.69h-16.55c-.79,0-1.49.22-2.09.66-.6.44-1.04,1.04-1.31,1.78l-.51,5.61c-.31,1.14-.89,2.05-1.74,2.73-.85.67-1.87,1.01-3.04,1.01h-22.49ZM587.77,166.64c.36,0,.68-.07.96-.21s.5-.34.67-.59c.17-.25.28-.54.32-.86.05-.32.01-.64-.09-.98l-2.21-14.8c-.16-.52-.39-.92-.69-1.18-.3-.26-.61-.39-.93-.39s-.63.13-.93.38c-.3.25-.54.64-.71,1.17l-2.48,14.71c-.11.36-.15.7-.11,1.03.04.33.14.62.31.87.17.25.4.46.69.62.29.16.62.24,1,.24h4.21Z"/><path class="cls-1" d="M700.4,111.61c1.78,0,3.13.48,4.04,1.42.91.94,1.36,2.34,1.36,4.2v9.55c0,1.82-.46,3.21-1.36,4.17-.91.96-2.26,1.45-4.04,1.45h-14.31c-1.5,0-2.63.4-3.42,1.21-.78.8-1.17,1.99-1.17,3.57v56.44c0,1.82-.46,3.21-1.36,4.17-.91.96-2.25,1.45-4.04,1.45h-25.92c-1.75,0-3.08-.48-4.01-1.45-.93-.96-1.39-2.35-1.39-4.17v-56.44c0-1.57-.39-2.76-1.16-3.57-.77-.8-1.92-1.21-3.43-1.21h-14.31c-1.75,0-3.08-.48-4.01-1.45-.93-.96-1.39-2.35-1.39-4.17v-9.55c0-1.85.46-3.25,1.39-4.2.93-.94,2.26-1.42,4.01-1.42h74.51Z"/><path class="cls-1" d="M713.66,117.22c0-1.85.46-3.25,1.39-4.2s2.26-1.42,4.01-1.42h25.92c1.78,0,3.13.48,4.04,1.42.91.94,1.36,2.34,1.36,4.2v76.38c0,1.82-.46,3.21-1.36,4.17-.91.96-2.26,1.45-4.04,1.45h-25.92c-1.75,0-3.08-.48-4.01-1.45s-1.39-2.35-1.39-4.17v-76.38Z"/><path class="cls-1" d="M820.2,110.6c4.49.45,8.4,1.12,11.72,2.01,3.32.89,6.1,1.99,8.34,3.3,2.24,1.31,4.05,2.82,5.41,4.52,1.37,1.7,2.35,3.6,2.93,5.7.59,2.1.88,4.37.88,6.82v44.93c0,2.45-.29,4.73-.88,6.82-.59,2.1-1.56,4-2.93,5.7-1.37,1.71-3.17,3.21-5.41,4.52-2.24,1.31-5.02,2.41-8.34,3.3-3.32.89-7.23,1.56-11.72,2.01-4.49.45-9.67.67-15.54.67s-11.02-.23-15.51-.67c-4.49-.45-8.4-1.12-11.72-2.01-3.32-.89-6.11-1.99-8.36-3.3-2.25-1.31-4.06-2.82-5.42-4.52-1.37-1.7-2.35-3.6-2.93-5.7-.59-2.09-.88-4.37-.88-6.82v-44.93c0-2.45.29-4.73.88-6.82.59-2.1,1.56-4,2.93-5.7,1.37-1.71,3.17-3.21,5.42-4.52,2.25-1.31,5.04-2.41,8.36-3.3,3.32-.89,7.23-1.56,11.72-2.01,4.49-.45,9.66-.67,15.51-.67s11.05.23,15.54.67ZM812.77,134.91c0-.78-.14-1.42-.42-1.89-.28-.48-.73-.85-1.36-1.11-.63-.26-1.46-.44-2.5-.52-1.03-.08-2.31-.13-3.82-.13s-2.79.04-3.82.13c-1.04.08-1.87.26-2.5.52-.63.26-1.08.63-1.36,1.11-.28.48-.42,1.11-.42,1.89v41c0,.79.14,1.42.42,1.89.28.48.73.84,1.36,1.1.63.25,1.46.43,2.5.52,1.03.09,2.31.14,3.82.14s2.79-.05,3.82-.14c1.04-.09,1.87-.27,2.5-.52.63-.25,1.08-.62,1.36-1.1.28-.48.42-1.11.42-1.89v-41Z"/><path class="cls-1" d="M861.89,199.22c-.79,0-1.53-.15-2.2-.44s-1.26-.69-1.74-1.19-.87-1.11-1.15-1.81c-.28-.7-.42-1.46-.42-2.29v-76.16c0-.82.14-1.59.42-2.29.28-.7.66-1.31,1.15-1.81.49-.51,1.07-.9,1.74-1.19.67-.29,1.41-.44,2.2-.44h23.46c1.1,0,2.08.25,2.96.73.87.49,1.59,1.17,2.15,2.05l18.63,26.48c.31.39.64.64,1.01.74s.71.09,1.02-.04c.32-.13.58-.37.78-.73s.31-.8.31-1.35l-.19-22.1c0-.84.14-1.62.41-2.32.27-.7.65-1.31,1.15-1.83.5-.51,1.08-.91,1.76-1.21.67-.29,1.42-.44,2.23-.44h22.95c.81,0,1.55.15,2.23.44.67.29,1.26.69,1.74,1.19s.86,1.11,1.13,1.81.41,1.47.41,2.29v76.16c0,.82-.14,1.59-.41,2.29s-.65,1.31-1.13,1.81c-.49.51-1.07.9-1.74,1.19-.67.29-1.42.44-2.23.44h-23.54c-1.06,0-2.03-.23-2.9-.7-.87-.47-1.59-1.13-2.15-1.99l-18.84-24.88c-.33-.45-.68-.74-1.07-.88-.39-.14-.74-.14-1.07,0s-.59.41-.81.8c-.22.39-.31.9-.3,1.52l.49,20.27c.02.84-.11,1.63-.38,2.35-.27.72-.65,1.34-1.15,1.87-.5.52-1.08.93-1.77,1.22s-1.43.44-2.24.44h-22.89Z"/><path class="cls-1" d="M157.75,963.79c-2.23,0-3.93-.61-5.1-1.83-1.17-1.22-1.76-2.99-1.76-5.31v-74.79c0-2.34.59-4.12,1.76-5.32,1.17-1.21,2.87-1.81,5.1-1.81h107.03c2.25,0,3.95.6,5.12,1.81,1.16,1.21,1.74,2.98,1.74,5.32v10.84c0,2.32-.58,4.09-1.74,5.31-1.16,1.22-2.87,1.83-5.12,1.83h-55.71c-1.08,0-1.9.29-2.46.87-.56.58-.84,1.43-.84,2.55v1.71c0,1.12.28,1.98.84,2.55.56.58,1.38.87,2.46.87h53.52c2.25,0,3.95.6,5.12,1.81,1.16,1.21,1.74,2.98,1.74,5.32v6.28c0,2.32-.58,4.09-1.74,5.31-1.16,1.22-2.87,1.83-5.12,1.83h-53.52c-1.08,0-1.9.29-2.46.87-.56.58-.84,1.43-.84,2.55v2.85c0,1.12.28,1.98.84,2.55.56.58,1.38.87,2.46.87h56.81c2.25,0,3.96.6,5.12,1.81,1.16,1.21,1.74,2.99,1.74,5.32v10.85c0,2.32-.58,4.09-1.74,5.31-1.16,1.22-2.87,1.83-5.12,1.83h-108.12Z"/><path class="cls-1" d="M291.48,963.79c-1.01,0-1.94-.18-2.8-.54-.86-.36-1.6-.87-2.22-1.51-.63-.65-1.11-1.42-1.46-2.31-.35-.89-.52-1.86-.52-2.91v-74.5c0-1.06.17-2.04.52-2.92.35-.89.83-1.65,1.46-2.3.62-.65,1.36-1.15,2.22-1.52.86-.36,1.79-.54,2.8-.54h36.69c1.17,0,2.29.18,3.35.53,1.06.35,2.07.88,3.04,1.58l33.73,24.95c.58.43,1.18.68,1.78.72.6.05,1.15-.06,1.64-.33.5-.26.9-.67,1.21-1.21.31-.54.47-1.18.47-1.93v-17.04c0-1.06.17-2.04.52-2.92.34-.89.83-1.65,1.45-2.3.62-.65,1.36-1.15,2.22-1.52.86-.36,1.79-.54,2.8-.54h35.4c1.02,0,1.96.18,2.81.54.85.36,1.59.87,2.21,1.52.62.65,1.11,1.41,1.45,2.3.35.88.52,1.86.52,2.92v74.5c0,1.05-.17,2.02-.52,2.91-.35.89-.83,1.66-1.45,2.31-.63.65-1.36,1.15-2.21,1.51-.85.36-1.79.54-2.81.54h-36.69c-1.17,0-2.29-.17-3.35-.53-1.06-.35-2.08-.88-3.05-1.58l-33.73-24.95c-.58-.44-1.18-.68-1.78-.73-.6-.05-1.15.06-1.64.33-.49.27-.9.67-1.21,1.21-.31.54-.46,1.18-.46,1.93v17.04c0,1.05-.18,2.02-.52,2.91-.35.89-.84,1.66-1.46,2.31-.62.65-1.36,1.15-2.21,1.51-.85.36-1.79.54-2.82.54h-35.4Z"/><path class="cls-1" d="M572.74,904.14c0,1.2-.58,2.12-1.74,2.75-1.16.64-2.87.96-5.12.96h-45.83c-.71,0-1.25-.19-1.63-.58-.38-.39-.56-.96-.56-1.7v-.57c0-1.37-.26-2.47-.77-3.3-.51-.83-1.37-1.46-2.55-1.9-1.19-.44-2.77-.73-4.73-.87-1.97-.14-4.41-.22-7.31-.22s-5.35.07-7.32.22c-1.97.14-3.54.43-4.73.87s-2.04,1.07-2.55,1.9c-.51.82-.77,1.93-.77,3.3v28.54c0,1.37.26,2.47.77,3.3.51.83,1.36,1.46,2.55,1.9,1.19.44,2.77.73,4.73.87,1.97.14,4.41.22,7.32.22s5.35-.07,7.31-.22c1.97-.14,3.54-.43,4.73-.87,1.19-.43,2.04-1.07,2.55-1.9.51-.83.77-1.93.77-3.3v-.57c0-.75-.19-1.31-.56-1.7-.37-.39-.92-.59-1.63-.59h-5.87c-2.24,0-3.93-.61-5.11-1.83-1.17-1.22-1.76-2.99-1.76-5.31v-2.86c0-2.34.58-4.11,1.76-5.32s2.87-1.81,5.11-1.81h56.09c2.25,0,3.95.6,5.12,1.81,1.16,1.21,1.74,2.98,1.74,5.32v17.41c0,2.95-.49,5.69-1.47,8.22-.98,2.53-2.58,4.83-4.79,6.91-2.22,2.07-5.11,3.91-8.7,5.49-3.59,1.59-7.98,2.93-13.19,4.02-5.2,1.1-11.28,1.93-18.23,2.48-6.95.56-14.91.84-23.87.84s-16.93-.28-23.88-.84c-6.95-.56-13.03-1.39-18.23-2.48-5.2-1.09-9.6-2.43-13.19-4.02-3.59-1.59-6.48-3.42-8.7-5.49-2.21-2.07-3.81-4.38-4.79-6.91-.98-2.53-1.47-5.27-1.47-8.22v-37.68c0-2.95.49-5.69,1.47-8.22.98-2.53,2.58-4.83,4.79-6.91,2.22-2.07,5.11-3.9,8.7-5.49,3.59-1.59,7.98-2.93,13.19-4.02,5.2-1.09,11.28-1.92,18.23-2.48,6.95-.56,14.91-.84,23.88-.84s16.92.28,23.87.84c6.95.56,13.03,1.39,18.23,2.48,5.2,1.09,9.6,2.43,13.19,4.02,3.59,1.59,6.48,3.42,8.7,5.49,2.21,2.07,3.81,4.38,4.79,6.91.98,2.53,1.47,5.27,1.47,8.22v3.71Z"/><path class="cls-1" d="M582.18,881.87c0-2.34.59-4.12,1.76-5.32,1.17-1.21,2.87-1.81,5.1-1.81h41.16c2.25,0,3.96.6,5.12,1.81,1.16,1.21,1.74,2.98,1.74,5.32v74.79c0,2.32-.58,4.09-1.74,5.31-1.16,1.22-2.87,1.83-5.12,1.83h-41.16c-2.23,0-3.93-.61-5.1-1.83-1.17-1.22-1.76-2.99-1.76-5.31v-74.79Z"/><path class="cls-1" d="M658.01,963.79c-1.01,0-1.94-.18-2.8-.54-.86-.36-1.6-.87-2.22-1.51-.63-.65-1.11-1.42-1.46-2.31-.35-.89-.52-1.86-.52-2.91v-74.5c0-1.06.17-2.04.52-2.92.35-.89.83-1.65,1.46-2.3.62-.65,1.36-1.15,2.22-1.52.86-.36,1.79-.54,2.8-.54h36.69c1.17,0,2.29.18,3.35.53,1.06.35,2.07.88,3.04,1.58l33.73,24.95c.58.43,1.18.68,1.78.72.6.05,1.15-.06,1.64-.33.5-.26.9-.67,1.21-1.21.31-.54.47-1.18.47-1.93v-17.04c0-1.06.17-2.04.52-2.92.34-.89.83-1.65,1.45-2.3.62-.65,1.36-1.15,2.22-1.52.86-.36,1.79-.54,2.8-.54h35.4c1.02,0,1.96.18,2.81.54.85.36,1.59.87,2.21,1.52.62.65,1.11,1.41,1.45,2.3.35.88.52,1.86.52,2.92v74.5c0,1.05-.17,2.02-.52,2.91-.35.89-.83,1.66-1.45,2.31-.63.65-1.36,1.15-2.21,1.51-.85.36-1.79.54-2.81.54h-36.69c-1.17,0-2.29-.17-3.35-.53-1.06-.35-2.08-.88-3.05-1.58l-33.73-24.95c-.58-.44-1.18-.68-1.78-.73-.6-.05-1.15.06-1.64.33-.49.27-.9.67-1.21,1.21-.31.54-.46,1.18-.46,1.93v17.04c0,1.05-.18,2.02-.52,2.91-.35.89-.84,1.66-1.46,2.31-.62.65-1.36,1.15-2.21,1.51-.85.36-1.79.54-2.82.54h-35.4Z"/><path class="cls-1" d="M810.12,963.79c-2.23,0-3.93-.61-5.1-1.83-1.17-1.22-1.76-2.99-1.76-5.31v-74.79c0-2.34.59-4.12,1.76-5.32,1.17-1.21,2.87-1.81,5.1-1.81h107.03c2.25,0,3.95.6,5.12,1.81,1.16,1.21,1.74,2.98,1.74,5.32v10.84c0,2.32-.58,4.09-1.74,5.31-1.16,1.22-2.87,1.83-5.12,1.83h-55.71c-1.08,0-1.9.29-2.46.87s-.84,1.43-.84,2.55v1.71c0,1.12.28,1.98.84,2.55s1.38.87,2.46.87h53.52c2.25,0,3.95.6,5.12,1.81,1.16,1.21,1.74,2.98,1.74,5.32v6.28c0,2.32-.58,4.09-1.74,5.31-1.16,1.22-2.87,1.83-5.12,1.83h-53.52c-1.08,0-1.9.29-2.46.87-.56.58-.84,1.43-.84,2.55v2.85c0,1.12.28,1.98.84,2.55s1.38.87,2.46.87h56.81c2.25,0,3.96.6,5.12,1.81,1.16,1.21,1.74,2.99,1.74,5.32v10.85c0,2.32-.58,4.09-1.74,5.31-1.16,1.22-2.87,1.83-5.12,1.83h-108.12Z"/></svg>