<?xml version="1.0" encoding="UTF-8"?><svg xmlns="http://www.w3.org/2000/svg" viewBox="0 0 1944 2880"><defs><style>.cls-1{letter-spacing:0em;}.cls-2{fill:#feb354;}.cls-3{letter-spacing:0em;}.cls-4{letter-spacing:-.07em;}.cls-5{letter-spacing:-.02em;}.cls-6{letter-spacing:-.03em;}.cls-7{letter-spacing:-.02em;}.cls-8{letter-spacing:-.02em;}.cls-9{letter-spacing:-.02em;}.cls-10{letter-spacing:-.03em;}.cls-11{letter-spacing:0em;}.cls-12{letter-spacing:0em;}.cls-13{letter-spacing:0em;}.cls-14{letter-spacing:0em;}.cls-15{letter-spacing:0em;}.cls-16{letter-spacing:-.01em;}.cls-17{letter-spacing:-.01em;}.cls-18{letter-spacing:0em;}.cls-19{letter-spacing:0em;}.cls-20{letter-spacing:0em;}.cls-21,.cls-22{fill:#eadcbf;}.cls-23{letter-spacing:.03em;}.cls-24{letter-spacing:.02em;}.cls-25{letter-spacing:.01em;}.cls-26{letter-spacing:.01em;}.cls-27{letter-spacing:.01em;}.cls-28{letter-spacing:.04em;}.cls-22{font-family:MinionVariableConcept-Roman, 'Minion Variable Concept';font-size:60px;font-variation-settings:'wght' 400, 'opsz' 11;}.cls-29{letter-spacing:.03em;}.cls-30{letter-spacing:.03em;}.cls-31{letter-spacing:0em;}.cls-32{letter-spacing:0em;}.cls-33{letter-spacing:0em;}.cls-34{letter-spacing:0em;}</style></defs><g id="Layer_1"><path d="M-18.18-18v2916h1980V-18H-18.18Z"/><path class="cls-2" d="M-18-18v2916h1980V-18H-18ZM1890,2826H54V54h1836v2772Z"/><polygon class="cls-21" points="1590.06 160.46 1590.06 159.32 1591.17 159.9 1590.06 160.46"/><path class="cls-2" d="M148.41,247.55v18.16h71.52v-18.16h-71.52ZM161.66,264.55h-7.16v-16.92h7.16v16.92ZM174.47,264.55h-7.16v-16.92h7.16v16.92ZM187.28,264.55h-7.16v-16.92h7.16v16.92ZM200.09,264.55h-7.16v-16.92h7.16v16.92ZM213.45,264.55h-7.16v-16.92h7.16v16.92Z"/><polygon class="cls-2" points="213.11 231.2 213.11 240.81 206.62 240.81 206.62 231.2 199.75 231.2 199.75 240.81 193.27 240.81 193.27 231.2 186.94 231.2 186.94 240.81 180.46 240.81 180.46 231.2 174.13 231.2 174.13 240.81 167.65 240.81 167.65 231.2 161.32 231.2 161.32 240.81 154.84 240.81 154.84 231.2 148.41 231.2 148.41 244.49 219.93 244.49 219.93 231.2 213.11 231.2"/><path class="cls-2" d="M224.59,262.08v34.43h37.72v-34.43h-37.72ZM228.29,289.72h-1.55v-8.24h1.55v8.24ZM228.29,275.96h-1.55v-5.78h1.55v5.78ZM230.78,289.72h-1.55v-8.24h1.55v8.24ZM230.78,275.96h-1.55v-5.78h1.55v5.78ZM235.82,289.72h-3.81v-8.24h3.81v8.24ZM235.82,275.96h-3.81v-5.78h3.81v5.78ZM238.61,289.72h-1.55v-8.24h1.55v8.24ZM238.61,275.96h-1.55v-5.78h1.55v5.78ZM241.1,289.72h-1.55v-8.24h1.55v8.24ZM241.1,275.96h-1.55v-5.78h1.55v5.78ZM246.14,289.72h-3.81v-8.24h3.81v8.24ZM246.14,275.96h-3.81v-5.78h3.81v5.78ZM248.92,289.72h-1.55v-8.24h1.55v8.24ZM248.92,275.96h-1.55v-5.78h1.55v5.78ZM251.41,289.72h-1.55v-8.24h1.55v8.24ZM251.41,275.96h-1.55v-5.78h1.55v5.78ZM256.46,289.72h-3.81v-8.24h3.81v8.24ZM256.46,275.96h-3.81v-5.78h3.81v5.78ZM259.24,289.72h-1.55v-8.24h1.55v8.24ZM259.24,275.96h-1.55v-5.78h1.55v5.78Z"/><polygon class="cls-2" points="571.58 367.91 588.15 367.91 571.58 325.91 571.58 367.91"/><polygon class="cls-2" points="305.95 345.58 305.95 367.91 321.66 367.91 311.95 345.58 305.95 345.58"/><polygon class="cls-2" points="265.59 313.08 259.46 347.45 271.98 347.45 265.59 313.08"/><path class="cls-2" d="M319.92,319.97c0-2.34-.45-5.85-1.34-7.34-.89-1.5-1.94-2.51-3.12-3.04-1.19-.53-2.93-.8-5.24-.8h-4.27v22.43h4.89c6.05,0,9.08-4.47,9.08-11.24Z"/><rect class="cls-2" x="212.3" y="338.58" width="12.37" height="29.33"/><path class="cls-2" d="M679.17,294.14h-10.68l-15.48,73.78h13.63l1.77-8.9h17.22l1.77,8.9h13.63l-15.48-73.78h-6.37ZM670.75,346.87l6.13-35.36,6.39,35.36h-12.52Z"/><path class="cls-2" d="M747.4,324.49v-4.67c0-6.55-.55-11.38-1.65-14.49-1.1-3.1-3.4-5.7-6.9-7.77-3.5-2.08-7.94-3.12-13.31-3.12-3.96,0-7.47.67-10.52,2.02-3.05,1.34-5.44,3.19-7.16,5.53-1.72,2.34-2.75,4.78-3.1,7.31-.35,2.53-.52,6.33-.52,11.38v21.73c0,.07,0,.13,0,.2h0c0,5.06.17,8.85.52,11.38.22,1.59.71,3.14,1.47,4.66,1.21,3.05,3.4,5.48,6.6,7.26,1.63.91,3.48,1.6,5.54,2.08h.07c2.18.56,4.54.85,7.1.85,5.38,0,9.82-1.04,13.31-3.12,3.5-2.08,5.8-4.67,6.9-7.77,1.1-3.1,1.65-7.93,1.65-14.49v-5.48l-9.74.81h-4.85v10.4c0,4.12-3.37,7.5-7.5,7.5s-7.5-3.37-7.5-7.5v-35.13c0-4.12,3.37-7.5,7.5-7.5s7.5,3.37,7.5,7.5v10.43h14.6Z"/><polygon class="cls-2" points="797.73 294.45 783.74 294.45 768.13 324.46 768.13 294.34 755.03 294.34 755.03 367.84 768.13 367.84 768.13 349.41 773.53 339.37 785.71 367.97 799.76 367.97 780.92 325.66 797.73 294.45"/><polygon class="cls-2" points="633.47 324.12 619.52 324.12 619.52 294.05 605.23 294.05 605.23 367.68 619.52 367.68 619.52 337.61 633.47 337.61 633.47 367.68 647.76 367.68 647.76 294.05 633.47 294.05 633.47 324.12"/><polygon class="cls-2" points="267.51 359.89 263.2 359.89 256.75 359.89 254.98 368.54 275.74 368.54 273.97 359.89 267.51 359.89"/><path class="cls-2" d="M535.67,348.77v-33.23c0-4.45-3.61-8.06-8.06-8.06s-8.06,3.61-8.06,8.06v33.23c0,4.45,3.61,8.06,8.06,8.06s8.06-3.61,8.06-8.06Z"/><rect class="cls-2" x="148.41" y="224.19" width="71.52" height="5.26"/><polyline class="cls-2" points="218.67 224.19 212.89 224.19 212.89 218.44 212.51 218.44 208.56 218.44 208.18 218.44 208.18 224.19 200.65 224.19 200.65 218.62 199.72 218.62 194.71 218.62 193.78 218.62 193.78 224.19 187.61 224.19 187.61 218.62 186.67 218.62 181.66 218.62 180.73 218.62 180.73 224.19 174.56 224.19 174.56 218.62 173.63 218.62 168.62 218.62 167.69 218.62 167.69 224.19 160.16 224.19 160.16 218.44 159.78 218.44 155.83 218.44 155.45 218.44 155.45 224.19 149.67 224.19"/><path class="cls-2" d="M148.41,271.49v22.04h71.52v-22.04h-71.52ZM162.37,292.41h-8.57v-14.69c0-1.86,1.79-3.37,3.99-3.37h.58c2.2,0,3.99,1.51,3.99,3.37v14.69ZM175.17,292.41h-8.57v-14.69c0-1.86,1.79-3.37,3.99-3.37h.58c2.2,0,3.99,1.51,3.99,3.37v14.69ZM187.98,292.41h-8.57v-14.69c0-1.86,1.79-3.37,3.99-3.37h.58c2.2,0,3.99,1.51,3.99,3.37v14.69ZM200.79,292.41h-8.57v-14.69c0-1.86,1.79-3.37,3.99-3.37h.58c2.2,0,3.99,1.51,3.99,3.37v14.69ZM214.15,292.41h-8.57v-14.69c0-1.86,1.79-3.37,3.99-3.37h.58c2.2,0,3.99,1.51,3.99,3.37v14.69Z"/><polygon class="cls-2" points="218.91 229.45 223.58 224.19 218.91 224.19 147.68 224.19 147.45 224.19 147.68 229.45 218.91 229.45"/><polygon class="cls-2" points="218.91 245.8 223.58 240.54 218.91 240.54 147.68 240.54 147.45 240.54 147.68 245.8 218.91 245.8"/><polygon class="cls-2" points="218.91 269.74 223.58 264.48 218.91 264.48 147.68 264.48 147.45 264.48 147.68 269.74 218.91 269.74"/><path class="cls-2" d="M325.64,251.83c-3.45-1.08-6.8-2.18-10.18-3.17-6.78-2-25.34-7.33-25.34-7.33,0,0-18.56,5.34-25.34,7.33-3.38,1-6.73,2.09-10.18,3.17,1.4,2.82,2.8,5.6,4.13,8.41.23.48,1.02,4.1,1.28,4.68.02,0,.07,0,.12,0v31.35c-1.46.38,61.44.38,59.98,0v-31.35c.06,0,.1,0,.12,0,.26-.58,1.05-4.2,1.28-4.68,1.34-2.81,2.74-5.59,4.13-8.41ZM266.52,290.98c.15,2.97-1.16,2.97-4.15,3.02-.03,0-.05,0-.08,0v-29.17c2.63-.36,4.23-.04,4.24,2.76,0,6.86-.02,23.3-.01,23.38ZM271.07,293.72s.52-1.83.54-2.66c.17-6.71.28-13.42.42-20.14.03-1.61.13-3.22.15-4.83.02-1.42,1.03-1.3,1.94-1.32.94-.02,1.66.11,1.67,1.41.04,7.64.2,27.52.2,27.52h-4.92ZM281.89,293.72s.52-1.83.54-2.66c.17-6.71.28-13.42.42-20.14.03-1.61.13-3.22.15-4.83.01-1.42,1.03-1.3,1.94-1.32.94-.02,1.66.11,1.67,1.41.04,7.64.2,27.52.2,27.52h-4.92ZM292.7,293.69s.16-19.88.2-27.52c0-1.29.73-1.43,1.67-1.41.91.02,1.92-.1,1.94,1.32.02,1.61.12,3.22.15,4.83.14,6.71.25,13.42.42,20.14.02.83.54,2.66.54,2.66h-4.92ZM303.52,293.78s.16-19.88.2-27.52c0-1.29.73-1.43,1.67-1.41.91.02,1.92-.1,1.94,1.32.02,1.61.12,3.22.15,4.83.14,6.71.25,13.42.42,20.14.02.83.54,2.66.54,2.66h-4.92ZM317.93,294.01s-.05,0-.08,0c-2.98-.05-4.3-.05-4.15-3.02,0-.08-.02-16.52-.01-23.38,0-2.8,1.61-3.12,4.24-2.76v29.17ZM261.09,252.74l29.02-8.32,29.02,8.32h-58.04Z"/><polygon class="cls-2" points="457.5 204.81 462.06 204.81 460.7 192.67 460.82 192.67 460.42 182.15 459.13 182.15 458.73 192.67 458.86 192.67 457.5 204.81"/><path class="cls-2" d="M462.79,256.12c0-1.67-1.36-3.03-3.03-3.03s-3.03,1.36-3.03,3.03,1.36,3.03,3.03,3.03,3.03-1.36,3.03-3.03Z"/><path class="cls-2" d="M461.24,267.97l1.21-.84h-10.02l-1.34.85c3.45,0,7,0,10.15,0Z"/><polygon class="cls-2" points="452.45 234.01 451.69 234.43 452.45 234.43 452.45 234.01"/><polygon class="cls-2" points="452.45 234.01 451.69 234.43 452.45 234.43 452.45 234.01"/><path class="cls-2" d="M451.09,267.97c3.45,0,7,0,10.15,0l1.21-.84h-10.02l-1.34.85Z"/><polygon class="cls-2" points="452.43 267.13 462.45 267.13 462.42 267.15 464.13 267.15 464.17 267.13 468.32 267.13 469.45 267.13 459.69 260.44 449.94 267.13 452.43 267.13"/><rect class="cls-2" x="445.88" y="267.68" width="27.88" height="4.78"/><rect class="cls-2" x="444.34" y="289.4" width="30.95" height="4.78"/><rect class="cls-2" x="456.86" y="205.49" width="5.92" height="3.46"/><rect class="cls-2" x="454.49" y="209.44" width="10.66" height="3.46"/><path class="cls-2" d="M464.6,221.29v-6.89c0-.61-.49-1.1-1.1-1.1h-7.35c-.61,0-1.1.49-1.1,1.1v6.89h9.55ZM462.37,215.78c0-.67.6-1.22,1.33-1.22h.63v5.9h-1.96v-4.68ZM458.42,215.72c0-.64.52-1.16,1.16-1.16h.4c.64,0,1.16.52,1.16,1.16v4.76l-2.72-.03v-4.73ZM455.32,214.56h.63c.74,0,1.33.55,1.33,1.22v4.68h-1.96v-5.9Z"/><rect class="cls-2" x="454.23" y="273.11" width="2.96" height="20.73"/><rect class="cls-2" x="462.45" y="273.11" width="2.96" height="20.73"/><rect class="cls-2" x="470.68" y="273.11" width="2.96" height="20.73"/><rect class="cls-2" x="446" y="273.11" width="2.96" height="20.73"/><path class="cls-2" d="M469.97,251.46v-6.99h-.9v-9.73h-1.88v-9.91l-.13-1.3c-.32-1-1.25-1.73-2.36-1.73h-1.27l-.04-.02h-2.59l.04.02h-2.05l.04-.02h-2.59l-.04.02h-1.27c-1.11,0-2.04.73-2.36,1.73l-.13,1.3v9.91h-1.88v9.73h-.9v6.99l-1.21.74v14.93h.31l-.02-.03,10.28-7.05c-1.81-.39-3.18-2-3.18-3.93,0-2.2,1.77-3.98,3.96-4.01,2.19.03,3.96,1.82,3.96,4.01,0,1.93-1.36,3.54-3.18,3.93l10.28,7.05-.02.03h.31v-14.93l-1.21-.74ZM454.47,244.51h-3.34v-8.04h.76c1.42,0,2.58.96,2.58,2.13v5.91ZM462.49,244.61l-5.51-.05v-6.14c0-1.05,1.05-1.9,2.35-1.9h.85c1.3,0,2.35.85,2.35,1.9v6.19s-.04,0-.04,0h0ZM459.82,231.11c-1.55,0-2.81-1.26-2.81-2.81s1.26-2.81,2.81-2.81,2.81,1.26,2.81,2.81-1.26,2.81-2.81,2.81ZM468.47,244.51h-3.34v-5.91c0-1.18,1.15-2.13,2.58-2.13h.76v8.04Z"/><rect class="cls-2" x="375" y="285.03" width="1.45" height="3.15"/><rect class="cls-2" x="375" y="279.6" width="1.45" height="3.15"/><rect class="cls-2" x="379.55" y="285.03" width="1.45" height="3.15"/><rect class="cls-2" x="379.55" y="279.6" width="1.45" height="3.15"/><rect class="cls-2" x="384.1" y="285.03" width="1.45" height="3.15"/><rect class="cls-2" x="384.1" y="279.6" width="1.45" height="3.15"/><rect class="cls-2" x="388.65" y="285.03" width="1.45" height="3.15"/><rect class="cls-2" x="388.65" y="279.6" width="1.45" height="3.15"/><rect class="cls-2" x="393.21" y="285.03" width="1.45" height="3.15"/><rect class="cls-2" x="393.21" y="279.6" width="1.45" height="3.15"/><rect class="cls-2" x="397.76" y="285.03" width="1.45" height="3.15"/><rect class="cls-2" x="397.76" y="279.6" width="1.45" height="3.15"/><rect class="cls-2" x="355.98" y="281.48" width="3.81" height="8.24"/><rect class="cls-2" x="355.98" y="270.18" width="3.81" height="5.78"/><rect class="cls-2" x="361.02" y="281.48" width="1.55" height="8.24"/><rect class="cls-2" x="361.02" y="270.18" width="1.55" height="5.78"/><path class="cls-2" d="M319.18,262.08v34.43h36.05v-34.43h-36.05ZM323.8,289.72h-1.55v-8.24h1.55v8.24ZM323.8,275.96h-1.55v-5.78h1.55v5.78ZM328.84,289.72h-3.81v-8.24h3.81v8.24ZM328.84,275.96h-3.81v-5.78h3.81v5.78ZM331.63,289.72h-1.55v-8.24h1.55v8.24ZM331.63,275.96h-1.55v-5.78h1.55v5.78ZM334.12,289.72h-1.55v-8.24h1.55v8.24ZM334.12,275.96h-1.55v-5.78h1.55v5.78ZM339.16,289.72h-3.81v-8.24h3.81v8.24ZM339.16,275.96h-3.81v-5.78h3.81v5.78ZM341.94,289.72h-1.55v-8.24h1.55v8.24ZM341.94,275.96h-1.55v-5.78h1.55v5.78ZM344.43,289.72h-1.55v-8.24h1.55v8.24ZM344.43,275.96h-1.55v-5.78h1.55v5.78ZM349.47,289.72h-3.81v-8.24h3.81v8.24ZM349.47,275.96h-3.81v-5.78h3.81v5.78ZM352.26,289.72h-1.55v-8.24h1.55v8.24ZM352.26,275.96h-1.55v-5.78h1.55v5.78ZM354.75,289.72h-1.55v-8.24h1.55v8.24ZM354.75,275.96h-1.55v-5.78h1.55v5.78Z"/><path class="cls-2" d="M459.82,230.42c-1.17,0-2.12-.95-2.12-2.12s.95-2.12,2.12-2.12,2.12.95,2.12,2.12-.95,2.12-2.12,2.12Z"/><path class="cls-2" d="M822.78,280.2h-2.46s-237.19-111.39-237.25-111.43l-.52-8.31h-8.06l-6.53,124.31-.37,8.57-231.14,1.04-189.01-1.04v74.57h17.24c-2.05-.48-3.9-1.17-5.54-2.08-3.47-1.94-5.77-4.62-6.9-8.05-1.13-3.43-1.69-8.58-1.69-15.46v-20.51c0-5.06.17-8.85.52-11.38.35-2.53,1.38-4.97,3.1-7.31,1.72-2.34,4.11-4.18,7.16-5.53,3.05-1.34,6.56-2.02,10.52-2.02,5.38,0,9.82,1.04,13.31,3.12,3.5,2.08,5.8,4.67,6.9,7.77,1.1,3.1,1.65,7.93,1.65,14.49v4.67h-14.6v-10.43c0-4.12-3.37-7.5-7.5-7.5s-7.5,3.37-7.5,7.5v33.92c0,4.12,3.37,7.5,7.5,7.5s7.5-3.37,7.5-7.5v-10h14.6v2.74c0,7.27-.51,12.42-1.54,15.46-1.03,3.04-3.3,5.7-6.81,7.99-1.8,1.17-3.82,2.04-6.04,2.61h18v-71.71h14.97v29.33h12.37v-29.33h14.97v71.71h2.07l15.48-71.71h17.05l15.48,71.71h1.96v-71.71h22.07c8.74,0,19.52,7.12,19.52,23.69s-9.6,21.29-9.6,21.29l12.61,26.73h4.48v-71.71h13.49v58.75h22.11v12.96h5v-71.71h36.23v13.34h-21.11v15.62h18.11v14.12h-18.11v15.49h21.11v13.15h13.05c-12.79-5.3-11.68-21.8-11.68-21.8h14.04l-.13,4.89c-.02,1.15,1.41,3.13,2.71,4.1,2.66,1.98,12.24,2.5,12.24-4.68,0-8.71-10.22-13.11-14.71-16.3-4.49-3.22-12.5-10.72-12.5-22.9,0-5.76,5-16.45,19.71-16.45,15.68,0,18.76,12.61,18.68,18.59l-.04,3.46h-13.01c0-4.71-2.19-8.64-6.65-8.64-1.69,0-6.16.18-6.16,4.96s6.11,8.99,8.92,10.78c8.05,5.17,13.11,10.55,15.18,13.86,2.06,3.32,2.4,6.3,2.3,13.67-.06,4.19-1.28,12.86-10.32,16.46h26.25v-58.21h-13.05v-13.49h41.1v13.49h-13.05v58.21h27.51c-7.3-3.58-12.33-11.06-12.33-19.73v-32.06c0-9.52,6.06-17.6,14.53-20.66l11.57-.93c10.17,1.93,17.87,10.85,17.87,21.59v32.06c0,8.67-5.04,16.15-12.33,19.73h20.61v-71.71h14.2l19.2,46.15v-49.01.45s-.41-9.39-.41-9.39h231.91v-4.21ZM578.65,195.89l2.38,84.31h-3.23l.85-84.31ZM577.45,293.79l.24-9.2h3.45l.25,9.2h-3.94ZM590.58,280.2l-1.71-24.23,10.03,24.23h-8.33ZM600.12,280.2l-11.5-27.77-.82-11.59,19.23,39.36h-6.92ZM608.29,280.2l-20.7-42.35-.51-7.29,27.55,49.64h-6.34ZM615.91,280.2l-29.02-52.3-.56-7.92,41.21,60.22h-11.63ZM628.91,280.2l-42.73-62.44-.42-6.01,51.56,68.45h-8.41ZM638.72,280.2l-53.11-70.51-.47-7.15,65.03,77.66h-11.45ZM651.64,280.2l-66.63-79.57-.55-5.81,77.55,85.38h-10.37ZM663.52,280.2l-79.18-87.19-.25-3.76,90.56,90.95h-11.13ZM676.22,280.2l-92.16-92.08-.12-1.72,99.84,93.8h-7.56ZM685.43,280.2l-101.5-95.06-.18-1.64,113.53,96.7h-11.84ZM699.01,280.2l-115.26-97.91-.08-1.15,125.34,99.06h-10ZM710.84,280.2l-127.23-100.3-.09-1.33,136.89,101.63h-9.57ZM722.29,280.2l-138.81-102.79-.08-1.12c39.09,26.37,135.7,93.24,151.3,103.91h-12.42ZM736.66,280.2c-9.6-6.62-138.29-95.11-153.29-105.08l-.04-1.11,171.66,106.18h-18.33ZM757.15,280.2l-173.86-107.34-.08-1.12,199.04,108.46h-25.11ZM784.59,280.2l-201.41-109.56-.05-.9,234.58,110.46h-33.12Z"/><polygon class="cls-2" points="392.13 278.06 371.2 278.06 371.2 293.16 400.32 293.16 400.32 276.65 392.13 276.65 392.13 278.06"/><path class="cls-2" d="M431.41,217.18c-23.77,1.49-42.13,5.31-64.58,11-3.79.96-7.57,2.1-11.2,3.45-.24.09-.4.3-.4.53v8.56c0,.4.47.68.9.53,19.07-6.55,36.81-8.63,58.02-11.24,6.22-.76,10.25-1.15,16.61-1.19.42,0,.8-.03,1.16-.06v-11.62c-.17.01-.34.02-.52.03Z"/><path class="cls-2" d="M390.02,192.16c-13.8,4.88-27.36,14.24-34.57,19.75-.14.11-.22.26-.22.43v5.73c0,.46.59.74,1.03.47,5.78-3.46,14.17-8.09,19.7-9.99,15.98-5.48,47.58-12.6,55.96-14.45v-12.25c-4.48.73-24.62,4.19-41.91,10.3Z"/><path class="cls-2" d="M428.7,234.69c-23.93.97-42.73,3.64-65.69,8.27-2.44.49-4.88,1.17-7.32,1.85-.27.08-.46.3-.46.55v8.36c0,.38.41.65.83.55,25.61-5.94,47.34-7.27,75.11-7.94.27,0,.52-.02.76-.03v-11.7c-.86.01-1.92.05-3.23.11Z"/><path class="cls-2" d="M428.28,200.2c-25.83,3.83-45.95,10.01-69.44,19.17-.88.34-2.04,1.01-3.33,1.81-.17.11-.28.28-.28.47v6.9c0,.43.52.7.96.51,16.73-7.28,31.62-11.51,50.88-14.75,8.81-1.48,15.39-2.62,24.45-3.11.14,0,.27-.02.41-.03v-11.49c-.95.12-2.15.3-3.65.53Z"/><path class="cls-2" d="M431.07,252.15c-26.56.03-48.15,1.46-73.96,5.23-.45.07-.9.14-1.35.22-.31.05-.53.29-.53.56v3.92h11.38v4.39c11.2-.67,30.68-1.92,39.39-2.49v-.38l-1.09-2.02v-6.91h2.52v2.7h1.11v-2.7h1.9v2.68h1.15v-2.68h1.72v2.68h1.15v-2.68h1.9v2.7h1.11v-2.7h2.52v6.91l-1.05,1.96c3.6.03,7.02.17,11.3.26.64.01,1.57.03,2.05.03v-11.68c-.27,0-.93,0-1.24,0Z"/><path class="cls-2" d="M418.92,266.58v1.73h5.09v4.03l-1.73.35v20.47h-7.2v-8.39h-5.22v8.39h-7.13v-20.47l-1.8-.35v-4.03h5.09v-1.64c-13.21.26-25.85,1.04-39.39,2.45v25.53c21.1.01,65.69,0,65.69,0v-27.88h-.38c-.27,0-9.06-.17-13.01-.19ZM400.32,293.16h-29.12v-15.1h20.93v-1.41h8.19v16.51Z"/><path class="cls-2" d="M575.21,176.41l.08-1.2c-13.5,8.99-111.06,76.03-143.36,98.24v1.35c28.15-19.38,108.36-74.84,143.28-98.4Z"/><polygon class="cls-2" points="575.52 171.77 575.59 170.65 431.93 248.8 431.93 250.01 575.52 171.77"/><polygon class="cls-2" points="575.36 174.08 575.44 172.89 431.93 261.5 431.93 262.8 575.36 174.08"/><path class="cls-2" d="M575.66,169.73l.07-.97s-77.42,36.37-143.79,67.54v1.11l143.73-67.68Z"/><polygon class="cls-2" points="567.92 284.41 568.21 280.2 559.89 280.2 569.82 256.21 570.06 252.7 558.68 280.2 551.75 280.2 570.84 241.14 571.04 238.17 550.5 280.2 544.17 280.2 571.53 230.88 571.71 228.24 542.88 280.2 531.25 280.2 572.25 220.28 572.4 218.07 529.88 280.2 521.48 280.2 572.8 212.06 572.94 210.01 520.07 280.2 508.62 280.2 573.43 202.8 573.55 200.9 507.15 280.2 496.78 280.2 573.94 195.25 574.06 193.45 495.28 280.2 484.15 280.2 574.31 189.64 574.39 188.45 482.57 280.2 475.01 280.2 574.51 186.71 574.6 185.38 473.36 280.2 461.51 280.2 574.71 183.79 574.8 182.5 459.78 280.2 449.78 280.2 574.87 181.33 574.96 180.07 447.95 280.2 438.38 280.2 575.05 178.74 575.13 177.54 436.51 280.2 431.93 280.2 431.93 284.41 567.92 284.41"/><path class="cls-2" d="M833.88,331.51h.1c-2.7-2.73-6.57-5.91-11.64-9.02-2.81-1.72-8.92-5.93-8.92-10.32s4.47-4.74,6.16-4.74c4.46,0,6.92,5.03,6.92,9.54l14.15.11s.75-10.73-6.16-17.34c-2.84-2.95-7.22-5.14-13.89-5.14-3.6,0-10.2,1.62-10.2,1.62-9.04,3.45-10.26,11.74-10.32,15.75-.11,7.06.24,9.91,2.3,13.08.91,1.4,2.41,3.18,4.48,5.16h-.1c2.7,2.73,6.57,5.91,11.64,9.02,2.81,1.72,8.92,5.93,8.92,10.32s-4.47,4.74-6.16,4.74c-4.46,0-6.92-5.03-6.92-9.54l-14.15-.11s-.75,10.73,6.16,17.34c2.84,2.95,7.22,5.14,13.89,5.14,3.6,0,10.2-1.62,10.2-1.62,9.04-3.45,10.26-11.74,10.32-15.75.11-7.06-.24-9.91-2.3-13.08-.91-1.4-2.41-3.18-4.48-5.16Z"/></g><g id="main_logo"><path class="cls-2" d="M1162.87,1516.21c0,23.7,19.21,42.91,42.91,42.91,23.7,0,42.91-19.21,42.91-42.91,0-23.7-19.21-42.91-42.91-42.91-23.7,0-42.91,19.21-42.91,42.91ZM1228.6,1516.21c0,12.6-10.21,22.81-22.81,22.81-12.6,0-22.81-10.21-22.81-22.81s10.21-22.81,22.81-22.81c12.6,0,22.81,10.21,22.81,22.81Z"/><path class="cls-2" d="M975.38,1408.09l.72,14.73c29.15-.6,52.6-24.4,52.6-53.7,0-29.67-24.05-53.73-53.73-53.73-1.39,0-2.76.07-4.12.17l.72,14.73c1.12-.1,2.25-.17,3.4-.17,21.54,0,38.99,17.46,38.99,38.99,0,21.4-17.24,38.75-38.59,38.97Z"/><circle class="cls-2" cx="974.98" cy="1369.12" r="22.81" transform="translate(-632.06 876.66) rotate(-37.51)"/><path class="cls-2" d="M972.17,1581.49c22.52,0,40.77-18.25,40.77-40.77,0-22.52-18.25-40.77-40.77-40.77-22.52,0-40.77,18.25-40.77,40.77,0,22.52,18.25,40.77,40.77,40.77ZM972.17,1513.77c14.89,0,26.96,12.07,26.96,26.96,0,14.89-12.07,26.96-26.96,26.96-14.89,0-26.96-12.07-26.96-26.96,0-14.89,12.07-26.96,26.96-26.96Z"/><path class="cls-2" d="M798.12,1582.57l-65.74,84.02-11-1.07,72.59-91.25-5.13-30.79-79.89,105.45-1.42-14.63,78.65-104.08-2.57-14.01s-84.22,111.17-89.26,126.95c-.25.79-1.69.76-1.86,1.46-.38,1.6-.38,11.81,0,13.41.16.68,1.57.64,1.84,1.47,3.87,11.58,6.96,14.64,18.08,19.03.69.27.66,1.6,1.49,1.84,4.22,1.22,13.05,1.31,17.26-.02.86-.27.81-1.49,1.53-1.81,3.03-1.35,11.42-5.56,13.44-8.07,7.34-9.14,54.01-71.3,54.01-71.3,0,0-1.27-12.59-2.01-16.59Z"/><path class="cls-2" d="M753.14,1678.94c-.37,2.26.97,1.37,2.46,1.49,16.64,1.3,48.26,1.61,64.64,0-.07-.64-17.98-62.6-17.98-62.6l-49.13,61.12Z"/><path class="cls-2" d="M845.51,1729.22c2.39,25.18,29.34,23.68,29.34,23.68h37.75c.06-7.88-.03-15.73,0-20.33h29.6s0,20.33,0,20.33h62.32s0-20.33,0-20.33h29.6c.03,4.59-.06,12.45,0,20.33h37.75s26.96,1.5,29.35-23.68c1.79-18.87,1.97-31.51,1.97-31.51h-259.65s.19,12.64,1.97,31.51Z"/><path class="cls-2" d="M802.56,1096.84h169.17s1.21,0,1.21,0h169.17c-.2-3.71.35-7.53-.11-11.24-.79-6.31-3.84-11.52-8.52-15.43-4.89-4.1-19.98-9.84-19.98-9.84l-58.21-3.95-1.97-1.97-.46-1.98s-8.32-5.51-11.88-5.91l-68.64.13-68.64-.13c-3.56.41-11.88,5.91-11.88,5.91l-.46,1.98-1.97,1.97-58.21,3.95s-15.09,5.74-19.99,9.84c-4.68,3.91-7.73,9.12-8.52,15.43-.46,3.7.09,7.53-.11,11.24Z"/><path class="cls-2" d="M830.18,1102.76v38.97c0,3.13,5.06,13.05,7.34,15.36,5.29,5.35,18.74,8.89,18.74,8.89h232.13s13.46-3.54,18.74-8.89c2.28-2.31,7.34-12.23,7.34-15.36v-38.97s-159.97,0-159.97,0v42.43s-11.84,0-11.84,0v-42.43s-18.75,0-18.75,0v42.43s-13.81,0-13.81,0v-42.43s-18.75,0-18.75,0v42.43s-12.83,0-12.83,0v-42.43s-15.79,0-15.79,0v42.43s-7.89,0-7.89,0v-42.43s-9.87,0-9.87,0v42.43s-6.91,0-6.91,0v-42.43s-7.89,0-7.89,0Z"/><path class="cls-2" d="M1350.54,1325.11c1.22-2.36,14.76-15.25,14.75-15.86,0-.6-18.48-16.98-18.55-17.74.57-3.32,22.04-22.99,22.44-23.99,3.3-8.21.79-25.89-6.34-31.78-1.52-1.26-29.11-26.16-30.15-27.19-.32-4.11,12.35-10.9,13.63-13.49.83-1.69.38-7.56-.29-9.59-.33-1-3.88-5.21-8.87-10.59,51.6-50.85,109.24-107.82,109.49-108.76.4-1.57-1.21-.97-1.31-.99-.64-.1-1.53-.28-2.13-.2-11.34,1.43-70.11,12.08-70.78,12.07.48-1.32,332-377.2,339.74-388.37-7.52,8.28-270.54,264.09-280.78,276.27-11.24,13.37-126.91,141.73-128.99,144.94-.4.61-1.15,1.01-.42,1.78,1.4,1.46,62-7.56,63.14-7.37,2.45.4-1.15,4.27-1.44,4.63-.55.68-18.42,24.21-39.87,52.41-9.61-9.25-19.48-17.54-23.13-17.36-8.62.45-11.04,10.05-16.28,12.42-4.34,1.97-8.8-6.99-11.75-9.93-1.66-1.65-18.76-20.7-27.27-26-7.47-4.65-18.04-6.64-26.73-2.74-.32.14-14.91,14.86-21.72,21.25-5.7,1.26-11.39-11.37-14.52-10.76-4.37.85-6.32,5.94-8.82,8.55-2.12,2.21-6.44,2.85-6.46,6.68l181.77,181.39,1.68.32ZM1344.56,1265.89c-1.16-3.94-1.26-9.2-2.78-12.99-2.72-6.78-10.49-13.39-15.58-18.49-15.24-15.24-31.8-30.44-47.59-45.65-12.99-12.5-34-37.78-49.23-43.71-1.08-.42-16.02-2.23-13.04-5,6.72-1.12,12.14-2.57,19.13-1.87,20.5,2.03,43.22,31.57,58.17,45.93,2.46,2.36,4.96,4.67,7.48,6.97h0s0,0,0,0c3.36,3.07,6.76,6.12,10.18,9.19.02.01.03.03.05.04h0c6.72,6.04,13.49,12.21,20.08,19.01,9.1,9.39,18.89,26.26,19.06,26.98.35,1.49.32,7.07.1,8.75-.23,1.76-3.51,11.71-4.03,12.27-1.57,1.7-1.68-.37-2-1.44Z"/><path class="cls-2" d="M1141.73,1617.83s-17.9,61.97-17.98,62.6c16.38,1.61,48,1.3,64.64,0,1.49-.12,2.83.77,2.46-1.49l-49.13-61.12Z"/><path class="cls-2" d="M1249.65,1643.16c-2.37-7.43-22.27-35.96-42.68-64.1-.4,0-.79.03-1.19.03-4.07,0-8.05-.4-11.9-1.14l42.58,56.35-1.42,14.63-58.31-76.97c-9.22-4.81-17.1-11.84-22.93-20.38l-3.78,22.69,72.58,91.25-11,1.07-65.73-84.02c-.74,4.01-2.01,16.59-2.01,16.59,0,0,46.67,62.16,54.01,71.3,2.02,2.51,10.41,6.72,13.44,8.07.72.32.66,1.54,1.53,1.81,4.21,1.33,13.03,1.25,17.26.02.83-.24.8-1.57,1.49-1.84,11.12-4.4,14.21-7.46,18.08-19.03.28-.83,1.68-.79,1.84-1.47.38-1.6.38-11.8,0-13.41-.16-.7-1.61-.67-1.86-1.46Z"/><path class="cls-2" d="M1040.9,1590.24c-.71,1.17-1.69,1.97-2.9,2.45-15.36,19.43-39.13,31.92-65.82,31.92-46.33,0-83.88-37.56-83.88-83.88,0-19.78,6.86-37.95,18.32-52.29-1.88-2.38-2.89-3.97-2.85-4.56l-35.67-35.67c.2,1.22.34,2.47.34,3.75,0,12.6-10.21,22.81-22.81,22.81-12.6,0-22.81-10.21-22.81-22.81,0-12.6,10.21-22.81,22.81-22.81,1.28,0,2.53.13,3.75.33l-53.71-53.71-10.04,10.04c-3.71,3.71-8.3,41.62-11.17,49.95-1.2,3.48-2.96,6.75-5.87,9.1l-76.56-76.56,12.37-12.37c.1-.1,1.23.17,1.16-.23l-8.93-8.94-13.07,13.07-15.41-15.41,13.07-13.07-11.32-11.32-13.07,13.07-22.01-22.01c8.74-10.05,135.16-133.75,135.16-133.75l21.31,21.31-13.54,13.54,8.26,10.54,14.44-12.06,17.57,14.71-13.54,13.54,8.46,8.46,12.84-12.84h1.4s75.86,75.86,75.86,75.86c-3,3.65-6.08,5.69-10.5,7.13-8.52,2.78-45.95,7.31-49.95,11.31l-8.64,8.64c3.54,3.76,105.95,106.26,110.21,110.9-.02-.9.4-7.8,1.22-18.08-22.72-11.02-38.43-34.24-38.43-61.19,0-37.58,30.46-68.04,68.04-68.04,35.28,0,64.28,26.85,67.7,61.23.42,1.34.74,2.35.74,2.35l22.08,17.43c11.28-11.05,22.67-21.99,33.56-33.62,3.53-3.77,7.47-7.21,11.01-10.97l-8.64-8.64c-4.01-4-41.44-8.53-49.95-11.31-4.43-1.44-7.5-3.49-10.51-7.13l75.87-75.86,14.24,12.84,8.46-8.46-13.54-13.54,18.97-17.57,12.84,12.84,8.46-8.46-13.54-13.54,15.59-15.59s126.41,123.7,135.15,133.75l-16.29,16.29-13.07-13.07-8.46,8.46,13.07,13.07-18.27,18.27-13.07-13.07-8.92,8.94c-.06.4,1.06.13,1.16.23l12.37,12.37-76.56,76.56c-2.92-2.35-4.68-5.62-5.87-9.1-2.87-8.34-7.45-46.24-11.17-49.95l-10.04-10.04-40.07,40.07,51.16,40.38,7.85,6.07,5.56.37c7.16-4.42,15.27-7.43,23.96-8.68l22.17-22.2s-6.33-5.94-7.57-7.12c-1.02-.97,15.37-16.29,15.37-16.29l8.29,6.22,30.27-29.23-5.55-7.19,14.17-15.14,7.2,5.62s49.64-50.6,49.24-52.1l-161.43-160.89-54.2,51.44s-10.72-.76-12.27-4.43c-1.6-3.8-10.52-14.52-14.5-16.53-1.5-.76-5.83-2.84-7.57-3.06-6.91-.88-23.43-.55-30.69.03-1.9.15-3.57.58-5.38,1.04v29.6s-36.5,0-36.5,0v-30.59s-34.91,0-34.91,0h-1.87s-34.91,0-34.91,0v30.59s-36.51,0-36.51,0v-29.6c-1.81-.46-3.48-.89-5.38-1.04-7.27-.57-23.79-.91-30.69-.03-1.73.22-6.06,2.3-7.57,3.06-3.98,2.01-12.9,12.74-14.5,16.53-1.55,3.67-6.54,10.15-6.54,10.15l-62.78-57.16-161.44,160.89c-.4,1.5,52.1,52.1,52.1,52.1l7.2-5.62,14.17,15.14-5.55,7.19,30.27,29.23,8.3-6.22s16.39,15.32,15.36,16.29c-1.24,1.18-7.57,7.12-7.57,7.12l22.7,22.73s-78.66,97.3-80.92,99.86c-4.42,4.99-14.09-1.56-10.91-6.44.64-.99,75.33-92.54,75.33-92.54l-5.43-2.95s-84.7,99.12-95.14,112.45c-10.91,13.92-26.87,26.31-21.01,46.71.08.26,1.96,5.3,5.72,10.26-53.55,52.76-117.77,116.18-118.03,117.17-.41,1.57,1.21.97,1.31.99.64.1,1.53.28,2.13.2,11.34-1.43,70.11-12.08,70.78-12.07-.48,1.32-332,377.2-339.74,388.37,7.52-8.28,270.54-264.09,280.78-276.27,11.24-13.37,126.91-141.73,129-144.94.4-.61,1.15-1.01.42-1.78-1.4-1.46-62,7.56-63.14,7.37-2.45-.4,1.15-4.27,1.44-4.63.64-.79,24.12-31.72,49.64-65.25,16.85,2.73,54.06,1.04,54.06,1.04l98.68-136.59c0-3.67-5.34-26.96-5.34-26.96l-128.35,155.18-11.48.36,145.74-176.04s13.18,85.07,18.78,112.45c7.26,35.5,36.38,116.76,38.38,120.66h130.61s1.87,0,1.87,0h130.61c1.95-3.79,29.54-80.75,37.73-117.63l-100.38,26.75Z"/><path class="cls-2" d="M1118.92,1461.84c-3.68,7.64-11.48,12.93-20.54,12.93-12.6,0-22.81-10.21-22.81-22.81,0-1.28.13-2.53.33-3.75l-9.61,9.61-28.91,30.18c11.66,14.41,18.66,32.75,18.66,52.73,0,3.35-.22,6.66-.6,9.91l88.57-22.65c-.72-3.82-1.12-7.75-1.12-11.78,0-10.93,2.79-21.21,7.7-30.16l-31.68-24.21Z"/><path class="cls-2" d="M902.63,1467.08l17.91,17.91c8.66-8.03,19.17-14.06,30.85-17.38-2.03-.34-4.06-.72-5.52-1.32-.68-.28-2-.9-3.4-1.6-2.1-1.06-4.39-2.32-5-2.93l-9.81-9.81-22.25-22.25-2.16-2.15-15.88-15.89-54.56-54.56c-8.36,8.31-9.41,20.91-8.17,31.98l78,78Z"/><path class="cls-2" d="M1042.31,1467.08l78-78c1.24-11.07.19-23.67-8.17-31.98l-54.56,54.56-15.88,15.89-2.16,2.15-22.25,22.25-9.81,9.81c-.61.61-2.9,1.87-5,2.93-1.4.71-2.72,1.33-3.4,1.6-1.56.63-3.74,1.02-5.89,1.38,11.73,3.37,22.26,9.48,30.93,17.6l18.19-18.19Z"/><path class="cls-2" d="M500.81,1064.95c-.6-.08-1.49.1-2.13.2-.1.02-1.72-.58-1.31.99.24.92,55.69,55.74,106.5,105.82-6.42,6.73-11.25,12.35-11.64,13.53-.67,2.03-1.12,7.9-.29,9.59,1.28,2.6,13.95,9.38,13.63,13.49-1.04,1.03-28.63,25.93-30.15,27.19-7.13,5.9-9.65,23.57-6.34,31.78.4,1,21.87,20.67,22.44,23.99-.07.75-18.55,17.14-18.55,17.74,0,.61,13.53,13.5,14.75,15.86l1.68-.32,181.77-181.39c-.02-3.83-4.34-4.46-6.46-6.68-2.5-2.61-4.45-7.7-8.82-8.55-3.14-.61-8.82,12.01-14.52,10.76-6.81-6.39-21.4-21.11-21.72-21.25-8.69-3.89-19.26-1.91-26.73,2.74-8.52,5.3-25.62,24.35-27.28,26-2.95,2.94-7.41,11.9-11.75,9.93-5.24-2.38-7.66-11.98-16.28-12.42-3.23-.17-11.32,6.3-19.79,14.19-20.37-26.77-36.93-48.58-37.47-49.24-.29-.36-3.88-4.22-1.44-4.63,1.14-.19,61.74,8.83,63.14,7.37.74-.77-.02-1.17-.42-1.78-2.08-3.2-117.75-131.57-128.99-144.94-10.24-12.18-273.26-267.99-280.78-276.27,7.73,11.17,339.25,387.05,339.73,388.37-.67,0-59.44-10.64-70.78-12.07ZM702.78,1138.18c6.99-.69,12.41.76,19.13,1.87,2.98,2.77-11.96,4.58-13.04,5-15.23,5.93-36.24,31.21-49.23,43.71-15.8,15.2-32.35,30.41-47.59,45.65-5.1,5.1-12.86,11.71-15.58,18.49-1.52,3.79-1.62,9.05-2.78,12.99-.31,1.07-.43,3.14-2,1.44-.52-.56-3.81-10.5-4.03-12.27-.22-1.68-.25-7.26.1-8.75.17-.72,9.96-17.59,19.06-26.98,12.46-12.86,25.56-23.47,37.79-35.22,14.94-14.36,37.67-43.89,58.17-45.93Z"/><path class="cls-2" d="M1443.19,1740.21c.6.08,1.49-.1,2.13-.2.1-.02,1.72.58,1.31-.99-.26-.99-64.48-64.42-118.03-117.17,3.77-4.96,5.65-9.99,5.73-10.26,5.85-20.4-10.11-32.79-21.01-46.71-4.71-6.01-24.52-29.47-44.85-53.42.12,1.57.2,3.15.2,4.75,0,2.45-.16,4.86-.43,7.24,11.18,13.73,19.64,24.15,19.85,24.48,3.18,4.88-6.49,11.43-10.91,6.44-.54-.61-5.5-6.7-12.71-15.58-2.84,7.37-7,14.07-12.23,19.8l54.2,65.47-11.48-.36-48.94-59.17c-7.31,6.1-16.03,10.55-25.6,12.84l39.52,54.71s37.22,1.69,54.06-1.04c25.52,33.53,49.01,64.46,49.64,65.25.29.36,3.88,4.22,1.44,4.63-1.14.19-61.74-8.83-63.14-7.37-.74.77.02,1.17.42,1.78,2.08,3.2,117.75,131.57,128.99,144.94,10.24,12.18,273.26,267.99,280.78,276.27-7.73-11.17-339.25-387.05-339.73-388.37.67,0,59.44,10.64,70.78,12.07Z"/><path class="cls-2" d="M766.19,1428.79c2.32-14.21,3.59-20.16,4.84-22.78.37-1.81.66-3.8.98-5.89,1.04-6.98,2.22-14.89,6.75-20.6,8.38-10.56,19.36-20.62,29.99-30.35,9.29-8.51,18.91-17.31,26.49-26.23l.23-.27.27-.23c6.61-5.51,21.15-7.9,35.21-10.21,6.71-1.11,13.05-2.15,17.13-3.37l.08-.02-60.99-60.99-121.38,120.94,60.31,60.31.09-.3ZM773.83,1318.23c3.61-4.31,9.43-6.88,15.59-6.88,4.95,0,9.54,1.64,12.93,4.61,5.22,4.57,7.8,11.33,6.91,18.08-.88,6.69-4.92,12.27-11.08,15.29-2.92,1.43-5.94,2.16-8.99,2.16-7.61,0-14.73-4.7-18.13-11.97-3.38-7.23-2.34-15.18,2.76-21.28Z"/><path class="cls-2" d="M1055.84,1308.83l.08.02c4.09,1.22,10.43,2.27,17.13,3.37,14.06,2.31,28.6,4.71,35.21,10.21l.27.23.23.27c7.59,8.92,17.2,17.72,26.49,26.23,10.63,9.73,21.61,19.79,29.99,30.35,4.53,5.71,5.71,13.62,6.75,20.6.31,2.09.61,4.08.97,5.89,1.25,2.62,2.53,8.57,4.84,22.78l.09.3,60.31-60.31-121.38-120.94-60.99,60.99ZM1141.65,1315.96c3.39-2.97,7.99-4.61,12.93-4.61,6.16,0,11.98,2.57,15.59,6.88,5.1,6.1,6.14,14.06,2.76,21.28-3.4,7.27-10.51,11.97-18.12,11.97-3.04,0-6.07-.73-8.99-2.16-6.16-3.02-10.2-8.59-11.08-15.29-.89-6.75,1.69-13.52,6.9-18.08Z"/><path class="cls-2" d="M1282.84,1321.3l6.73-6.81c-20-22.91-33.79-37.26-56.3-59.87l-61.72-62.23-8.75,8.86,18.31,18.31,75.95,75.95,25.78,25.78Z"/><path class="cls-2" d="M1136.47,1227.85l18.18,18.18,75.95,75.95,25.92,25.92,6.72-6.8c-20.06-22.99-33.87-37.36-56.42-60.01l-61.59-62.09-8.75,8.86Z"/><path class="cls-2" d="M781.18,1201.25l-8.75-8.86-61.72,62.23c-22.51,22.61-36.3,36.96-56.3,59.87l6.73,6.81,25.78-25.78,75.95-75.95,18.31-18.31Z"/><path class="cls-2" d="M687.46,1347.89l25.92-25.92,75.95-75.95,18.18-18.18-8.75-8.86-61.59,62.09c-22.56,22.66-36.36,37.02-56.42,60.01l6.72,6.8Z"/><path class="cls-2" d="M430.7,2050.02c-2.93,0-5.16-.78-6.69-2.34-1.54-1.56-2.31-3.83-2.31-6.8v-95.75c0-3,.77-5.27,2.31-6.82,1.53-1.55,3.77-2.32,6.69-2.32h140.45c2.96,0,5.19.77,6.72,2.32,1.53,1.55,2.29,3.82,2.29,6.82v13.88c0,2.97-.76,5.24-2.29,6.8-1.53,1.56-3.76,2.34-6.72,2.34h-73.11c-1.41,0-2.49.37-3.22,1.11-.73.74-1.1,1.83-1.1,3.27v2.19c0,1.44.36,2.53,1.1,3.27s1.81,1.11,3.22,1.11h70.23c2.95,0,5.19.77,6.72,2.32,1.52,1.55,2.29,3.82,2.29,6.81v8.04c0,2.97-.77,5.24-2.29,6.8-1.53,1.56-3.77,2.34-6.72,2.34h-70.23c-1.41,0-2.49.37-3.22,1.11-.73.74-1.1,1.83-1.1,3.27v3.65c0,1.44.36,2.53,1.1,3.27.73.74,1.81,1.11,3.22,1.11h74.55c2.96,0,5.19.77,6.72,2.32,1.53,1.55,2.29,3.82,2.29,6.82v13.89c0,2.97-.76,5.24-2.29,6.8-1.52,1.56-3.76,2.34-6.72,2.34h-141.89Z"/><path class="cls-2" d="M609.26,2050.02c-1.32,0-2.54-.23-3.67-.69-1.12-.46-2.1-1.11-2.91-1.93-.82-.83-1.46-1.82-1.91-2.96-.46-1.15-.68-2.39-.68-3.73v-95.38c0-1.36.23-2.61.68-3.74.46-1.13,1.09-2.12,1.91-2.94.82-.83,1.79-1.47,2.91-1.94,1.13-.46,2.35-.69,3.67-.69h48.15c1.54,0,3,.23,4.4.68,1.39.45,2.72,1.12,3.99,2.03l44.26,31.94c.77.56,1.55.87,2.34.93.79.06,1.51-.07,2.16-.42.65-.34,1.18-.86,1.59-1.55.41-.69.61-1.52.61-2.47v-21.82c0-1.36.23-2.61.68-3.74.45-1.13,1.09-2.12,1.91-2.94.82-.83,1.79-1.47,2.92-1.94,1.12-.46,2.35-.69,3.67-.69h46.46c1.34,0,2.58.23,3.69.69,1.12.47,2.08,1.11,2.9,1.94.82.83,1.45,1.81,1.91,2.94.46,1.13.68,2.38.68,3.74v95.38c0,1.34-.23,2.58-.68,3.73-.46,1.15-1.09,2.13-1.91,2.96-.82.83-1.78,1.47-2.9,1.93-1.11.46-2.35.69-3.69.69h-48.15c-1.54,0-3-.22-4.39-.68-1.4-.45-2.73-1.12-4-2.03l-44.26-31.94c-.77-.56-1.55-.87-2.34-.93-.79-.06-1.51.08-2.16.42-.65.34-1.18.86-1.59,1.55-.41.69-.61,1.52-.61,2.47v21.82c0,1.34-.23,2.58-.68,3.73-.46,1.15-1.1,2.13-1.91,2.96-.82.83-1.78,1.47-2.9,1.93-1.12.46-2.35.69-3.69.69h-46.46Z"/><path class="cls-2" d="M992.76,1973.65c0,1.53-.76,2.71-2.29,3.53-1.53.82-3.77,1.22-6.72,1.22h-60.14c-.93,0-1.65-.25-2.14-.75-.49-.5-.74-1.22-.74-2.17v-.73c0-1.75-.34-3.16-1.01-4.22-.67-1.06-1.79-1.87-3.35-2.43-1.56-.56-3.63-.93-6.21-1.11-2.58-.19-5.78-.28-9.6-.28s-7.02.09-9.6.28c-2.58.18-4.65.55-6.21,1.11-1.56.56-2.68,1.37-3.35,2.43-.67,1.05-1.01,2.47-1.01,4.22v36.55c0,1.75.34,3.16,1.01,4.22.67,1.06,1.79,1.87,3.35,2.43,1.56.56,3.63.93,6.21,1.11,2.58.19,5.78.28,9.6.28s7.01-.09,9.6-.28c2.58-.18,4.65-.55,6.21-1.11,1.56-.56,2.68-1.37,3.35-2.43.67-1.06,1.01-2.47,1.01-4.22v-.73c0-.95-.24-1.68-.74-2.17-.49-.5-1.21-.75-2.14-.75h-7.7c-2.93,0-5.16-.78-6.7-2.34-1.54-1.56-2.3-3.83-2.3-6.8v-3.66c0-3,.77-3.05,2.3-4.6,1.54-1.55,3.77-2.32,6.7-2.32h73.61c2.95,0,5.19.77,6.72,2.32,1.53,1.55,2.29,3.82,2.29,6.81v20.09c0,3.77-.64,7.28-1.93,10.52-1.28,3.24-3.38,6.19-6.28,8.84-2.91,2.66-6.71,5-11.42,7.03-4.71,2.04-10.48,3.75-17.31,5.15-6.83,1.4-14.81,2.47-23.93,3.18-9.12.72-19.57,1.08-31.33,1.08s-22.21-.36-31.34-1.08c-9.12-.72-17.1-1.78-23.93-3.18-6.83-1.4-12.6-3.12-17.31-5.15-4.71-2.03-8.51-4.38-11.42-7.03-2.9-2.66-5-5.6-6.28-8.84-1.29-3.24-1.93-6.75-1.93-10.52v-48.24c0-3.78.64-7.28,1.93-10.53,1.28-3.24,3.38-6.19,6.28-8.84,2.91-2.66,6.71-5,11.42-7.03,4.71-2.04,10.48-3.75,17.31-5.15,6.83-1.4,14.81-2.46,23.93-3.18,9.12-.72,19.57-1.08,31.34-1.08s22.21.36,31.33,1.08c9.12.72,17.1,1.78,23.93,3.18,6.83,1.4,12.6,3.12,17.31,5.15,4.71,2.04,8.51,4.38,11.42,7.03,2.9,2.66,5,5.6,6.28,8.84,1.29,3.24,1.93,6.75,1.93,10.53v4.75Z"/><path class="cls-2" d="M1015.44,1945.14c0-3,.77-5.27,2.31-6.82,1.53-1.55,3.77-2.32,6.69-2.32h54.02c2.96,0,5.19.77,6.72,2.32,1.53,1.55,2.29,3.82,2.29,6.82v95.75c0,2.97-.76,5.24-2.29,6.8-1.52,1.56-3.76,2.34-6.72,2.34h-54.02c-2.93,0-5.16-.78-6.69-2.34-1.54-1.56-2.31-3.83-2.31-6.8v-95.75Z"/><path class="cls-2" d="M1131.41,2050.02c-1.32,0-2.54-.23-3.67-.69-1.12-.46-2.1-1.11-2.91-1.93-.82-.83-1.46-1.82-1.91-2.96-.46-1.15-.68-2.39-.68-3.73v-95.38c0-1.36.23-2.61.68-3.74.46-1.13,1.09-2.12,1.91-2.94.82-.83,1.79-1.47,2.91-1.94,1.13-.46,2.35-.69,3.67-.69h48.15c1.54,0,3,.23,4.4.68,1.39.45,2.72,1.12,3.99,2.03l44.26,31.94c.77.56,1.55.87,2.34.93.79.06,1.51-.07,2.16-.42.65-.34,1.18-.86,1.59-1.55.41-.69.61-1.52.61-2.47v-21.82c0-1.36.23-2.61.68-3.74.45-1.13,1.09-2.12,1.91-2.94.82-.83,1.79-1.47,2.92-1.94,1.12-.46,2.35-.69,3.67-.69h46.46c1.34,0,2.58.23,3.69.69,1.12.47,2.08,1.11,2.9,1.94.82.83,1.45,1.81,1.91,2.94.46,1.13.68,2.38.68,3.74v95.38c0,1.34-.23,2.58-.68,3.73-.46,1.15-1.09,2.13-1.91,2.96-.82.83-1.78,1.47-2.9,1.93-1.11.46-2.35.69-3.69.69h-48.15c-1.54,0-3-.22-4.39-.68-1.4-.45-2.73-1.12-4-2.03l-44.26-31.94c-.77-.56-1.55-.87-2.34-.93-.79-.06-1.51.08-2.16.42-.65.34-1.18.86-1.59,1.55-.41.69-.61,1.52-.61,2.47v21.82c0,1.34-.23,2.58-.68,3.73-.46,1.15-1.1,2.13-1.91,2.96-.82.83-1.78,1.47-2.9,1.93-1.12.46-2.35.69-3.69.69h-46.46Z"/><path class="cls-2" d="M1341.32,2050.02c-2.93,0-5.16-.78-6.69-2.34-1.54-1.56-2.31-3.83-2.31-6.8v-95.75c0-3,.77-5.27,2.31-6.82,1.53-1.55,3.77-2.32,6.69-2.32h140.45c2.96,0,5.19.77,6.72,2.32,1.53,1.55,2.29,3.82,2.29,6.82v13.88c0,2.97-.76,5.24-2.29,6.8s-3.76,2.34-6.72,2.34h-73.11c-1.41,0-2.49.37-3.22,1.11-.73.74-1.1,1.83-1.1,3.27v2.19c0,1.44.36,2.53,1.1,3.27s1.81,1.11,3.22,1.11h70.23c2.95,0,5.19.77,6.72,2.32,1.52,1.55,2.29,3.82,2.29,6.81v8.04c0,2.97-.77,5.24-2.29,6.8-1.53,1.56-3.77,2.34-6.72,2.34h-70.23c-1.41,0-2.49.37-3.22,1.11-.73.74-1.1,1.83-1.1,3.27v3.65c0,1.44.36,2.53,1.1,3.27.73.74,1.81,1.11,3.22,1.11h74.55c2.96,0,5.19.77,6.72,2.32,1.53,1.55,2.29,3.82,2.29,6.82v13.89c0,2.97-.76,5.24-2.29,6.8-1.52,1.56-3.76,2.34-6.72,2.34h-141.89Z"/><path class="cls-2" d="M438.7,721.44c0-2.6.6-4.56,1.81-5.89,1.21-1.32,2.95-1.99,5.23-1.99h33.83c2.33,0,4.08.67,5.27,1.99,1.18,1.32,1.78,3.29,1.78,5.89v107.09c0,2.55-.59,4.5-1.78,5.85-1.19,1.35-2.95,2.03-5.27,2.03h-33.83c-2.28,0-4.02-.68-5.23-2.03-1.21-1.35-1.81-3.3-1.81-5.85v-107.09Z"/><path class="cls-2" d="M507.22,836.41c-1.04,0-1.99-.21-2.87-.61-.88-.41-1.64-.96-2.27-1.67-.63-.71-1.13-1.56-1.5-2.54-.36-.98-.55-2.05-.55-3.21v-106.78c0-1.16.18-2.23.55-3.21.36-.98.86-1.83,1.5-2.54.63-.71,1.39-1.26,2.27-1.67.88-.41,1.84-.61,2.87-.61h30.63c1.43,0,2.72.34,3.86,1.03,1.14.68,2.07,1.64,2.8,2.88l24.32,37.13c.4.55.84.9,1.32,1.04.48.14.92.13,1.34-.06.41-.18.76-.52,1.02-1.02.27-.5.4-1.13.4-1.89l-.25-30.98c0-1.18.18-2.27.53-3.25.35-.99.85-1.84,1.5-2.56.65-.72,1.41-1.28,2.29-1.69.88-.41,1.85-.61,2.91-.61h29.96c1.06,0,2.03.21,2.91.61.88.41,1.64.96,2.27,1.67.63.71,1.13,1.56,1.48,2.54s.53,2.06.53,3.21v106.78c0,1.16-.18,2.22-.53,3.21-.35.98-.85,1.83-1.48,2.54-.63.71-1.39,1.27-2.27,1.67-.88.41-1.85.61-2.91.61h-30.73c-1.39,0-2.65-.33-3.79-.98-1.14-.66-2.07-1.59-2.8-2.8l-24.6-34.89c-.43-.63-.89-1.04-1.39-1.24-.51-.2-.97-.2-1.39,0-.42.2-.78.57-1.06,1.12-.28.55-.41,1.26-.39,2.13l.63,28.43c.03,1.18-.14,2.28-.49,3.29-.36,1.01-.85,1.88-1.5,2.62-.65.73-1.41,1.31-2.31,1.71-.89.41-1.87.61-2.92.61h-29.88Z"/><path class="cls-2" d="M637.3,836.41c-1.04,0-1.99-.21-2.87-.61-.88-.41-1.64-.96-2.27-1.67-.63-.71-1.13-1.56-1.5-2.54-.36-.98-.55-2.05-.55-3.21v-106.78c0-1.16.18-2.23.55-3.21.36-.98.86-1.83,1.5-2.54.63-.71,1.39-1.26,2.27-1.67.88-.41,1.84-.61,2.87-.61h30.63c1.43,0,2.72.34,3.86,1.03,1.14.68,2.07,1.64,2.8,2.88l24.32,37.13c.4.55.84.9,1.32,1.04s.92.13,1.34-.06c.41-.18.76-.52,1.02-1.02.27-.5.4-1.13.4-1.89l-.25-30.98c0-1.18.18-2.27.53-3.25.35-.99.85-1.84,1.5-2.56.65-.72,1.41-1.28,2.29-1.69.88-.41,1.85-.61,2.91-.61h29.96c1.06,0,2.03.21,2.91.61.88.41,1.64.96,2.27,1.67.63.71,1.13,1.56,1.48,2.54.35.98.53,2.06.53,3.21v106.78c0,1.16-.18,2.22-.53,3.21-.35.98-.85,1.83-1.48,2.54-.63.71-1.39,1.27-2.27,1.67s-1.85.61-2.91.61h-30.73c-1.39,0-2.65-.33-3.79-.98-1.14-.66-2.07-1.59-2.8-2.8l-24.6-34.89c-.43-.63-.89-1.04-1.39-1.24-.51-.2-.97-.2-1.39,0-.42.2-.78.57-1.06,1.12-.28.55-.41,1.26-.39,2.13l.63,28.43c.03,1.18-.14,2.28-.49,3.29-.36,1.01-.85,1.88-1.5,2.62-.65.73-1.41,1.31-2.31,1.71s-1.87.61-2.92.61h-29.88Z"/><path class="cls-2" d="M834.9,712.14c5.86.63,10.96,1.57,15.3,2.82,4.33,1.25,7.97,2.79,10.89,4.63,2.92,1.84,5.28,3.95,7.06,6.34,1.79,2.39,3.06,5.05,3.83,7.99.76,2.94,1.15,6.13,1.15,9.57v63c0,3.43-.38,6.63-1.15,9.56-.76,2.94-2.04,5.61-3.83,7.99-1.78,2.39-4.14,4.5-7.06,6.34-2.92,1.84-6.56,3.38-10.89,4.63-4.33,1.25-9.43,2.19-15.3,2.82-5.86.63-12.62.95-20.28.95s-14.38-.32-20.25-.95c-5.86-.63-10.96-1.57-15.3-2.82-4.33-1.24-7.97-2.79-10.91-4.63-2.94-1.84-5.3-3.95-7.08-6.34-1.79-2.39-3.06-5.05-3.83-7.99-.76-2.94-1.15-6.13-1.15-9.56v-63c0-3.44.38-6.63,1.15-9.57.76-2.94,2.04-5.61,3.83-7.99,1.78-2.39,4.14-4.5,7.08-6.34,2.94-1.84,6.57-3.38,10.91-4.63,4.33-1.24,9.43-2.19,15.3-2.82,5.86-.63,12.61-.95,20.25-.95s14.42.32,20.28.95ZM825.2,746.24c0-1.1-.18-1.99-.55-2.66-.36-.67-.96-1.19-1.78-1.56-.82-.37-1.91-.61-3.26-.73-1.35-.12-3.01-.18-4.99-.18s-3.64.06-4.99.18c-1.35.12-2.44.36-3.26.73-.82.37-1.41.89-1.78,1.56-.36.67-.55,1.56-.55,2.66v57.49c0,1.1.18,1.99.55,2.66.36.67.96,1.18,1.78,1.54.82.35,1.91.6,3.26.73,1.35.13,3.01.2,4.99.2s3.64-.07,4.99-.2c1.35-.13,2.44-.37,3.26-.73.82-.35,1.41-.87,1.78-1.54.36-.67.55-1.55.55-2.66v-57.49Z"/><path class="cls-2" d="M944.88,722.03c.35-1.29.85-2.46,1.48-3.5.63-1.05,1.39-1.94,2.27-2.68.88-.73,1.86-1.3,2.94-1.69,1.08-.4,2.23-.59,3.45-.59h26.92c1.53,0,2.87.34,4.04,1.01,1.16.67,2.1,1.56,2.8,2.68.7,1.12,1.14,2.4,1.3,3.86.16,1.46-.02,2.97-.56,4.55l-27.52,103.94c-.38,1.16-.85,2.17-1.41,3.03-.56.87-1.22,1.58-1.97,2.13-.75.55-1.6.96-2.53,1.24-.94.27-2,.41-3.17.41h-39.19c-1.18,0-2.23-.13-3.15-.37-.93-.25-1.76-.64-2.49-1.16-.73-.53-1.36-1.2-1.9-2.03-.54-.82-1.01-1.8-1.41-2.93l-28.79-104.07c-.56-1.6-.78-3.14-.63-4.6.14-1.47.57-2.78,1.28-3.92.72-1.14,1.67-2.06,2.86-2.74,1.19-.68,2.56-1.03,4.1-1.03h28.9c1.25,0,2.42.21,3.52.61,1.1.41,2.1.99,2.99,1.75.89.76,1.66,1.68,2.31,2.75.65,1.08,1.13,2.28,1.46,3.63l7.47,44.81c.26,1.13.68,1.98,1.27,2.56.59.58,1.21.86,1.88.86s1.31-.27,1.9-.82,1.04-1.39,1.32-2.52l8.25-45.16Z"/><path class="cls-2" d="M981.81,836.41c-1.55,0-2.93-.35-4.14-1.04-1.21-.69-2.17-1.63-2.87-2.8-.7-1.17-1.12-2.49-1.25-3.98-.13-1.48.1-3.02.69-4.63l29.15-102.49c.59-1.5,1.24-2.75,1.94-3.78.7-1.02,1.47-1.84,2.29-2.44.82-.61,1.73-1.04,2.71-1.3.99-.27,2.06-.4,3.21-.4h41.03c1.2,0,2.3.13,3.29.4,1,.26,1.92.69,2.77,1.3.85.6,1.61,1.4,2.31,2.4.69,1,1.33,2.24,1.92,3.74l29.71,102.45c.59,1.63.82,3.19.71,4.68-.12,1.5-.53,2.83-1.24,4-.7,1.17-1.66,2.11-2.87,2.82-1.21.71-2.6,1.06-4.17,1.06h-31.54c-1.58,0-2.93-.49-4.05-1.48-1.13-.98-1.88-2.3-2.26-3.96l-.46-7.48c-.35-1.13-.93-2.01-1.73-2.66s-1.74-.96-2.82-.96h-21.6c-1.04,0-1.94.31-2.73.92-.79.62-1.36,1.45-1.71,2.5l-.67,7.87c-.4,1.6-1.16,2.88-2.27,3.82-1.12.95-2.44,1.42-3.97,1.42h-29.35ZM1036.61,790.73c.47,0,.89-.1,1.25-.29.36-.2.66-.47.88-.82.22-.35.36-.76.42-1.2.06-.45.02-.9-.12-1.38l-2.89-20.75c-.21-.73-.51-1.29-.9-1.65-.39-.37-.79-.55-1.21-.55s-.83.18-1.22.53c-.39.35-.7.9-.93,1.64l-3.24,20.63c-.14.5-.19.98-.14,1.44.05.46.18.87.41,1.22.22.35.52.64.9.87.37.22.81.33,1.3.33h5.5Z"/><path class="cls-2" d="M1183.64,713.56c2.33,0,4.08.67,5.27,1.99,1.18,1.32,1.78,3.29,1.78,5.89v13.39c0,2.55-.59,4.5-1.78,5.85-1.19,1.35-2.95,2.03-5.27,2.03h-18.68c-1.95,0-3.44.56-4.46,1.69-1.02,1.13-1.53,2.8-1.53,5v79.14c0,2.55-.59,4.5-1.78,5.85-1.19,1.35-2.94,2.03-5.27,2.03h-33.83c-2.28,0-4.02-.68-5.23-2.03-1.21-1.35-1.81-3.3-1.81-5.85v-79.14c0-2.2-.51-3.87-1.51-5-1.01-1.13-2.5-1.69-4.48-1.69h-18.68c-2.28,0-4.02-.68-5.23-2.03-1.21-1.35-1.81-3.3-1.81-5.85v-13.39c0-2.6.6-4.56,1.81-5.89,1.21-1.32,2.95-1.99,5.23-1.99h97.27Z"/><path class="cls-2" d="M1200.95,721.44c0-2.6.6-4.56,1.81-5.89,1.21-1.32,2.95-1.99,5.23-1.99h33.83c2.33,0,4.08.67,5.27,1.99,1.18,1.32,1.78,3.29,1.78,5.89v107.09c0,2.55-.59,4.5-1.78,5.85-1.19,1.35-2.95,2.03-5.27,2.03h-33.83c-2.28,0-4.02-.68-5.23-2.03-1.21-1.35-1.81-3.3-1.81-5.85v-107.09Z"/><path class="cls-2" d="M1340.04,712.14c5.86.63,10.96,1.57,15.3,2.82,4.33,1.25,7.97,2.79,10.89,4.63,2.92,1.84,5.28,3.95,7.06,6.34,1.79,2.39,3.06,5.05,3.83,7.99s1.15,6.13,1.15,9.57v63c0,3.43-.38,6.63-1.15,9.56-.76,2.94-2.04,5.61-3.83,7.99-1.78,2.39-4.14,4.5-7.06,6.34-2.92,1.84-6.56,3.38-10.89,4.63-4.33,1.25-9.43,2.19-15.3,2.82-5.86.63-12.62.95-20.28.95s-14.38-.32-20.25-.95c-5.86-.63-10.96-1.57-15.3-2.82-4.33-1.24-7.97-2.79-10.91-4.63-2.94-1.84-5.3-3.95-7.08-6.34-1.79-2.39-3.06-5.05-3.83-7.99-.76-2.94-1.15-6.13-1.15-9.56v-63c0-3.44.38-6.63,1.15-9.57.76-2.94,2.04-5.61,3.83-7.99,1.78-2.39,4.14-4.5,7.08-6.34,2.94-1.84,6.57-3.38,10.91-4.63,4.33-1.24,9.43-2.19,15.3-2.82,5.86-.63,12.61-.95,20.25-.95s14.42.32,20.28.95ZM1330.33,746.24c0-1.1-.18-1.99-.55-2.66-.36-.67-.96-1.19-1.78-1.56-.82-.37-1.91-.61-3.26-.73-1.35-.12-3.01-.18-4.99-.18s-3.64.06-4.99.18c-1.35.12-2.44.36-3.26.73-.82.37-1.41.89-1.78,1.56-.36.67-.55,1.56-.55,2.66v57.49c0,1.1.18,1.99.55,2.66.36.67.96,1.18,1.78,1.54.82.35,1.91.6,3.26.73,1.35.13,3.01.2,4.99.2s3.64-.07,4.99-.2c1.35-.13,2.44-.37,3.26-.73.82-.35,1.41-.87,1.78-1.54.36-.67.55-1.55.55-2.66v-57.49Z"/><path class="cls-2" d="M1394.45,836.41c-1.04,0-1.99-.21-2.87-.61-.88-.41-1.64-.96-2.27-1.67-.63-.71-1.13-1.56-1.5-2.54-.36-.98-.55-2.05-.55-3.21v-106.78c0-1.16.18-2.23.55-3.21.36-.98.86-1.83,1.5-2.54.63-.71,1.39-1.26,2.27-1.67.88-.41,1.84-.61,2.87-.61h30.63c1.43,0,2.72.34,3.86,1.03,1.14.68,2.07,1.64,2.8,2.88l24.32,37.13c.4.55.84.9,1.32,1.04.48.14.92.13,1.34-.06.41-.18.76-.52,1.02-1.02.27-.5.4-1.13.4-1.89l-.25-30.98c0-1.18.18-2.27.53-3.25.35-.99.85-1.84,1.5-2.56.65-.72,1.41-1.28,2.29-1.69.88-.41,1.85-.61,2.91-.61h29.96c1.06,0,2.03.21,2.91.61.88.41,1.64.96,2.27,1.67.63.71,1.13,1.56,1.48,2.54.35.98.53,2.06.53,3.21v106.78c0,1.16-.18,2.22-.53,3.21-.35.98-.85,1.83-1.48,2.54-.63.71-1.39,1.27-2.27,1.67-.88.41-1.85.61-2.91.61h-30.73c-1.39,0-2.65-.33-3.79-.98-1.14-.66-2.07-1.59-2.8-2.8l-24.6-34.89c-.43-.63-.89-1.04-1.39-1.24-.51-.2-.97-.2-1.39,0-.42.2-.78.57-1.06,1.12-.28.55-.41,1.26-.39,2.13l.63,28.43c.03,1.18-.14,2.28-.49,3.29-.36,1.01-.85,1.88-1.5,2.62-.65.73-1.41,1.31-2.31,1.71-.89.41-1.87.61-2.92.61h-29.88Z"/><text class="cls-22" transform="translate(382.57 2541.77)"><tspan x="0" y="0">• </tspan><tspan class="cls-6" x="37.98" y="0">I</tspan><tspan x="57.78" y="0">n</tspan><tspan class="cls-15" x="90.96" y="0">n</tspan><tspan x="123.9" y="0">o</tspan><tspan class="cls-27" x="154.86" y="0">v</tspan><tspan class="cls-20" x="182.82" y="0">a</tspan><tspan x="209.1" y="0">t</tspan><tspan class="cls-15" x="227.34" y="0">i</tspan><tspan class="cls-11" x="243.36" y="0">o</tspan><tspan x="273.96" y="0">n E</tspan><tspan class="cls-19" x="356.45" y="0">n</tspan><tspan class="cls-34" x="389.09" y="0">g</tspan><tspan x="417.65" y="0">i</tspan><tspan class="cls-15" x="433.91" y="0">n</tspan><tspan x="466.85" y="0">e </tspan><tspan class="cls-5" x="506.75" y="0">H</tspan><tspan class="cls-12" x="552.35" y="0">a</tspan><tspan class="cls-1" x="578.93" y="0">c</tspan><tspan class="cls-23" x="604.61" y="0">k</tspan><tspan class="cls-20" x="635.63" y="0">a</tspan><tspan x="661.91" y="0">t</tspan><tspan class="cls-14" x="680.15" y="0">h</tspan><tspan class="cls-11" x="712.49" y="0">o</tspan><tspan x="743.09" y="0">n• </tspan><tspan class="cls-10" x="814.25" y="0">J</tspan><tspan x="832.61" y="0">u</tspan><tspan class="cls-14" x="864.65" y="0">n</tspan><tspan class="cls-3" x="897.59" y="0">e 1</tspan><tspan class="cls-18" x="966.59" y="0">s</tspan><tspan x="988.43" y="0">t-29th</tspan><tspan class="cls-24" x="1135.78" y="0">,</tspan><tspan x="1150.9" y="0" xml:space="preserve">  </tspan><tspan class="cls-33" x="-71.37" y="72">C</tspan><tspan x="-29.55" y="72">ha</tspan><tspan class="cls-17" x="29.91" y="72">r</tspan><tspan class="cls-15" x="51.51" y="72">l</tspan><tspan x="66.87" y="72">e</tspan><tspan class="cls-19" x="92.79" y="72">s</tspan><tspan class="cls-8" x="114.63" y="72">t</tspan><tspan class="cls-11" x="131.85" y="72">o</tspan><tspan x="162.45" y="72">n </tspan><tspan class="cls-7" x="209.61" y="72">P</tspan><tspan x="242.91" y="72">a</tspan><tspan class="cls-17" x="269.79" y="72">r</tspan><tspan class="cls-30" x="291.39" y="72">k</tspan><tspan x="322.47" y="72">s </tspan><tspan class="cls-32" x="358.82" y="72">C</tspan><tspan class="cls-11" x="400.64" y="72">o</tspan><tspan class="cls-16" x="431.24" y="72">n</tspan><tspan class="cls-31" x="463.76" y="72">s</tspan><tspan class="cls-3" x="486.38" y="72">e</tspan><tspan class="cls-28" x="512.3" y="72">r</tspan><tspan class="cls-26" x="537.14" y="72">v</tspan><tspan x="565.1" y="72">a</tspan><tspan class="cls-15" x="591.98" y="72">n</tspan><tspan class="cls-29" x="624.92" y="72">c</tspan><tspan class="cls-4" x="652.58" y="72">y</tspan><tspan class="cls-24" x="675.32" y="72">,</tspan><tspan class="cls-3" x="690.44" y="72" xml:space="preserve"> 720 </tspan><tspan class="cls-9" x="805.69" y="72">M</tspan><tspan class="cls-19" x="858.79" y="72">a</tspan><tspan x="885.13" y="72">g</tspan><tspan class="cls-14" x="913.27" y="72">n</tspan><tspan class="cls-3" x="946.21" y="72">ol</tspan><tspan class="cls-13" x="992.77" y="72">i</tspan><tspan x="1008.73" y="72">a </tspan><tspan class="cls-24" x="1049.59" y="72">R</tspan><tspan class="cls-3" x="1087.75" y="72">d #25</tspan><tspan class="cls-24" x="1221.13" y="72">,</tspan><tspan x="1236.25" y="72"> </tspan><tspan class="cls-33" x="325.8" y="144">C</tspan><tspan x="367.61" y="144">ha</tspan><tspan class="cls-17" x="427.07" y="144">r</tspan><tspan class="cls-15" x="448.67" y="144">l</tspan><tspan x="464.03" y="144">e</tspan><tspan class="cls-19" x="489.95" y="144">s</tspan><tspan class="cls-8" x="511.79" y="144">t</tspan><tspan class="cls-11" x="529.01" y="144">o</tspan><tspan x="559.61" y="144">n</tspan><tspan class="cls-24" x="592.79" y="144">,</tspan><tspan x="607.91" y="144"> </tspan><tspan class="cls-25" x="621.89" y="144">S</tspan><tspan x="652.31" y="144">C 29407</tspan></text></g></svg>