<?xml version="1.0" encoding="UTF-8"?><svg id="Layer_4" xmlns="http://www.w3.org/2000/svg" xmlns:xlink="http://www.w3.org/1999/xlink" viewBox="0 0 36 36"><defs><style>.cls-1{fill:url(#linear-gradient-4);}.cls-2{fill:url(#linear-gradient-3);}.cls-3{fill:url(#linear-gradient-2);}.cls-4{fill:url(#linear-gradient);}.cls-5{filter:url(#drop-shadow-1);}.cls-5,.cls-6{fill:#ec1e24;}.cls-6{filter:url(#drop-shadow-2);}.cls-7{fill:#9e793e;}</style><linearGradient id="linear-gradient" x1="4.64" y1="6.61" x2="31.01" y2="29.09" gradientUnits="userSpaceOnUse"><stop offset=".08" stop-color="#fff"/><stop offset=".17" stop-color="#e1c389"/><stop offset=".39" stop-color="#dfc187"/><stop offset=".47" stop-color="#d8bb83"/><stop offset=".52" stop-color="#ccb07b"/><stop offset=".57" stop-color="#bba270"/><stop offset=".61" stop-color="#a58e62"/><stop offset=".64" stop-color="#8a7650"/><stop offset=".67" stop-color="#6a5b3c"/><stop offset=".69" stop-color="#4c4028"/><stop offset=".94" stop-color="#e1c389"/></linearGradient><linearGradient id="linear-gradient-2" x1="12.27" y1="-28.32" x2="24.39" y2="-14.99" gradientTransform="translate(.61 40.17) rotate(-6.37)" gradientUnits="userSpaceOnUse"><stop offset="0" stop-color="#ed2b2c"/><stop offset=".17" stop-color="#e6292b"/><stop offset=".42" stop-color="#d42629"/><stop offset=".7" stop-color="#b62226"/><stop offset=".7" stop-color="#b62226"/><stop offset=".73" stop-color="#c52226"/><stop offset=".78" stop-color="#d72428"/><stop offset=".82" stop-color="#e22428"/><stop offset=".88" stop-color="#e62529"/></linearGradient><filter id="drop-shadow-1" x="15.35" y="6.29" width="6.07" height="6.24" filterUnits="userSpaceOnUse"><feOffset dx="1.13" dy="1.13"/><feGaussianBlur result="blur" stdDeviation="0"/><feFlood flood-color="#000" flood-opacity=".5"/><feComposite in2="blur" operator="in"/><feComposite in="SourceGraphic"/></filter><filter id="drop-shadow-2" x="13.02" y="13.34" width="10.64" height="14.25" filterUnits="userSpaceOnUse"><feOffset dx="1.13" dy="1.13"/><feGaussianBlur result="blur-2" stdDeviation="0"/><feFlood flood-color="#000" flood-opacity=".5"/><feComposite in2="blur-2" operator="in"/><feComposite in="SourceGraphic"/></filter><linearGradient id="linear-gradient-3" x1="15.4" y1="6.73" x2="25.04" y2="14.93" xlink:href="#linear-gradient"/><linearGradient id="linear-gradient-4" x1="8.8" y1="13.23" x2="23.58" y2="25.8" xlink:href="#linear-gradient"/></defs><path class="cls-4" d="M18,35.5c-4.66,0-9.04-1.81-12.35-5.1-3.32-3.31-5.15-7.71-5.15-12.4C.5,8.35,8.35.5,18,.5c4.66,0,9.04,1.81,12.35,5.1,3.32,3.31,5.15,7.71,5.15,12.4,0,9.65-7.85,17.5-17.5,17.5Z"/><path class="cls-3" d="M33.17,16.25c-.9-8.34-8.43-14.33-16.81-13.36C7.98,3.85,1.92,11.4,2.82,19.75c.9,8.34,8.43,14.33,16.81,13.36,8.38-.96,14.45-8.51,13.54-16.86Z"/><path class="cls-5" d="M16.72,6.47c3.34-1.1,4.57,2.97,2.67,4.34-3.36,2.42-5.64-3.36-2.67-4.34Z"/><path class="cls-6" d="M20.29,22.11c.25.43,1.86.56,2.12,1.37,1.32,4.01-8.69,3.37-9.24,1.56-1.03-3.37,3.76-2.37,3.9-3.22,1.14-6.82-3.28-3.25-3.9-5.51-.97-3.53,5.6-3.51,6.61-2.03,1.13,1.65-.39,6.31.51,7.83Z"/><path class="cls-7" d="M16.72,6.47c3.34-1.1,4.57,2.97,2.67,4.34-3.36,2.42-5.64-3.36-2.67-4.34Z"/><path class="cls-2" d="M17.79,10.25c-.68,0-1.2-.75-1.31-1.48-.07-.44-.02-1.01.58-1.21.26-.09.52-.13.74-.13.9,0,1.21.69,1.3.99.14.47.1,1.12-.35,1.44-.35.25-.67.38-.97.38Z"/><path class="cls-7" d="M20.29,22.11c.25.43,1.86.56,2.12,1.37,1.32,4.01-8.69,3.37-9.24,1.56-1.03-3.37,3.76-2.37,3.9-3.22,1.14-6.82-3.28-3.25-3.9-5.51-.97-3.53,5.6-3.51,6.61-2.03,1.13,1.65-.39,6.31.51,7.83Z"/><path class="cls-1" d="M17.91,25.31c-1.92,0-3.35-.45-3.71-.73-.09-.33-.07-.53-.02-.6.2-.33,1.24-.48,1.79-.56.9-.13,1.55.02,1.74-1.08.38-2.29.59-4.6-.21-5.49-.93-1.04-2.21-.41-2.39-.42-.09,0-1.38-.15-1.35-.97s1.77-1.22,2.92-1.22c.58,0,1.1.14,1.48.31.52.22.89.71.93,1.29.05.74-.03,1.76-.1,2.58-.14,1.68-.27,3.27.35,4.3.3.51.84.72,1.36.92.22.08.62.24.72.34.06.25-.03.38-.08.44-.3.43-1.5.9-3.43.9Z"/></svg>