<?xml version="1.0" encoding="UTF-8"?><svg id="Layer_4" xmlns="http://www.w3.org/2000/svg" xmlns:xlink="http://www.w3.org/1999/xlink" viewBox="0 0 36 36"><defs><style>.cls-1{filter:url(#drop-shadow-3);}.cls-2{fill:#e42125;}.cls-3{fill:#020101;}</style><filter id="drop-shadow-3" x="7.21" y="7.68" width="24.48" height="23.52" filterUnits="userSpaceOnUse"><feOffset dx="1.44" dy="1.44"/><feGaussianBlur result="blur" stdDeviation=".72"/><feFlood flood-color="#000" flood-opacity=".64"/><feComposite in2="blur" operator="in"/><feComposite in="SourceGraphic"/></filter></defs><g class="cls-1"><ellipse class="cls-2" cx="18" cy="18" rx="9.87" ry="9.54" transform="translate(-.03 .03) rotate(-.1)"/></g><path class="cls-3" d="M20.2,21.3c.16.27,1.2.35,1.37.86.85,2.52-5.62,2.11-5.98.98-.67-2.11,2.43-1.49,2.52-2.02.74-4.28-2.12-2.04-2.52-3.46-.63-2.22,3.62-2.2,4.28-1.27.73,1.04-.25,3.96.33,4.91Z"/><path class="cls-3" d="M17.9,11.49c2.16-.69,2.95,1.86,1.72,2.72-2.17,1.51-3.65-2.11-1.72-2.72Z"/></svg>