<?xml version="1.0" encoding="UTF-8"?><svg xmlns="http://www.w3.org/2000/svg" xmlns:xlink="http://www.w3.org/1999/xlink" viewBox="0 0 36 36"><defs><style>.cls-1{filter:url(#drop-shadow-4);}.cls-2{mix-blend-mode:multiply;opacity:.5;}.cls-3{fill:url(#linear-gradient-4);}.cls-4{fill:url(#linear-gradient-3);}.cls-5{fill:url(#linear-gradient-2);}.cls-6{isolation:isolate;}.cls-7{fill:url(#linear-gradient);filter:url(#drop-shadow-5);}</style><filter id="drop-shadow-4" x="5.21" y="5.52" width="27.12" height="26.4" filterUnits="userSpaceOnUse"><feOffset dx="1.44" dy="1.44"/><feGaussianBlur result="blur" stdDeviation=".72"/><feFlood flood-color="#000" flood-opacity=".64"/><feComposite in2="blur" operator="in"/><feComposite in="SourceGraphic"/></filter><linearGradient id="linear-gradient" x1="9.47" y1="10.73" x2="26.31" y2="25.08" gradientUnits="userSpaceOnUse"><stop offset=".08" stop-color="#fff"/><stop offset=".17" stop-color="#e2c48b"/><stop offset=".39" stop-color="#e0c289"/><stop offset=".47" stop-color="#d9bc85"/><stop offset=".52" stop-color="#cdb17d"/><stop offset=".57" stop-color="#bca372"/><stop offset=".61" stop-color="#a68f64"/><stop offset=".64" stop-color="#8b7752"/><stop offset=".67" stop-color="#6b5c3d"/><stop offset=".69" stop-color="#4c4029"/><stop offset=".94" stop-color="#e2c48b"/></linearGradient><filter id="drop-shadow-5" x="5.21" y="5.52" width="27.12" height="26.4" filterUnits="userSpaceOnUse"><feOffset dx=".72" dy=".72"/><feGaussianBlur result="blur-2" stdDeviation=".72"/><feFlood flood-color="#000" flood-opacity=".75"/><feComposite in2="blur-2" operator="in"/><feComposite in="SourceGraphic"/></filter><linearGradient id="linear-gradient-2" x1="12.88" y1="18.97" x2="20.62" y2="27.47" gradientTransform="translate(.39 -6.24) rotate(.1)" gradientUnits="userSpaceOnUse"><stop offset="0" stop-color="#ee2c2c"/><stop offset=".17" stop-color="#e72a2b"/><stop offset=".41" stop-color="#d52729"/><stop offset=".69" stop-color="#b72126"/><stop offset=".7" stop-color="#b62126"/><stop offset=".73" stop-color="#c52226"/><stop offset=".78" stop-color="#d72328"/><stop offset=".82" stop-color="#e22428"/><stop offset=".88" stop-color="#e62529"/></linearGradient><linearGradient id="linear-gradient-3" x1="12.96" y1="18" x2="23.04" y2="18" gradientUnits="userSpaceOnUse"><stop offset=".08" stop-color="#b99c71"/><stop offset=".17" stop-color="#b28e55"/><stop offset=".45" stop-color="#b08c54"/><stop offset=".55" stop-color="#a98750"/><stop offset=".62" stop-color="#9d7d4a"/><stop offset=".68" stop-color="#8c7041"/><stop offset=".69" stop-color="#886d3f"/><stop offset=".94" stop-color="#b28e55"/></linearGradient><linearGradient id="linear-gradient-4" x1="13.26" y1="12.72" x2="24" y2="24.69" xlink:href="#linear-gradient"/></defs><g class="cls-6"><g id="Layer_4"><g class="cls-1"><path class="cls-7" d="M18,28.98c-3.01,0-5.85-1.14-7.98-3.2-2.15-2.07-3.33-4.84-3.33-7.78,0-6.05,5.08-10.97,11.31-10.97,3.01,0,5.85,1.14,7.98,3.2,2.15,2.08,3.33,4.84,3.33,7.78,0,6.05-5.08,10.98-11.31,10.98Z"/><ellipse class="cls-5" cx="18" cy="18" rx="9.87" ry="9.54" transform="translate(-1.91 2.14) rotate(-6.47)"/></g><g class="cls-2"><path d="M13.61,13.81v9.67c0,.46.37.83.83.83h8.43c.46,0,.83-.37.83-.83v-9.67c0-.46-.37-.83-.83-.83h-8.43c-.46,0-.83.37-.83.83ZM15.65,14.66h3.02c.28,0,.5.22.5.5v2.33c0,.28-.22.5-.5.5h-3.02c-.28,0-.5-.22-.5-.5v-2.33c0-.28.22-.5.5-.5ZM22.16,22.57c0,.12-.1.22-.22.22h-6.59c-.12,0-.22-.1-.22-.22v-.52c0-.12.1-.22.22-.22h6.59c.12,0,.22.1.22.22v.52ZM22.16,20.19c0,.12-.1.22-.22.22h-6.59c-.12,0-.22-.1-.22-.22v-.52c0-.12.1-.22.22-.22h6.59c.12,0,.22.1.22.22v.52ZM22.16,17.78c0,.12-.1.22-.22.22h-1.26c-.12,0-.22-.1-.22-.22v-.52c0-.12.1-.22.22-.22h1.26c.12,0,.22.1.22.22v.52ZM22.16,15.4c0,.12-.1.22-.22.22h-1.26c-.12,0-.22-.1-.22-.22v-.52c0-.12.1-.22.22-.22h1.26c.12,0,.22.1.22.22v.52Z"/></g><path class="cls-4" d="M12.96,13.16v9.67c0,.46.37.83.83.83h8.43c.46,0,.83-.37.83-.83v-9.67c0-.46-.37-.83-.83-.83h-8.43c-.46,0-.83.37-.83.83ZM15,14.01h3.02c.28,0,.5.22.5.5v2.33c0,.28-.22.5-.5.5h-3.02c-.28,0-.5-.22-.5-.5v-2.33c0-.28.22-.5.5-.5ZM21.51,21.92c0,.12-.1.22-.22.22h-6.59c-.12,0-.22-.1-.22-.22v-.52c0-.12.1-.22.22-.22h6.59c.12,0,.22.1.22.22v.52ZM21.51,19.54c0,.12-.1.22-.22.22h-6.59c-.12,0-.22-.1-.22-.22v-.52c0-.12.1-.22.22-.22h6.59c.12,0,.22.1.22.22v.52ZM21.51,17.13c0,.12-.1.22-.22.22h-1.26c-.12,0-.22-.1-.22-.22v-.52c0-.12.1-.22.22-.22h1.26c.12,0,.22.1.22.22v.52ZM21.51,14.75c0,.12-.1.22-.22.22h-1.26c-.12,0-.22-.1-.22-.22v-.52c0-.12.1-.22.22-.22h1.26c.12,0,.22.1.22.22v.52Z"/><path class="cls-3" d="M14,23.23c-.12,0-.3-.04-.41-.09l-.11-.11c-.05-.11-.09-.29-.09-.41v-9.24c0-.12.04-.3.09-.41l.11-.11c.11-.05.29-.09.41-.09h7.99c.12,0,.3.04.41.09l.11.11c.05.11.09.29.09.41v9.24c0,.12-.04.3-.09.41l-.11.11c-.11.05-.29.09-.41.09h-7.99ZM14.07,22.35c0,.12.1.22.22.22h7.45c.12,0,.22-.1.22-.22v-1.39c0-.12-.1-.22-.22-.22h-7.45c-.12,0-.22.1-.22.22v1.39ZM14.07,19.98c0,.12.1.22.22.22h7.45c.12,0,.22-.1.22-.22v-1.39c0-.12-.1-.22-.22-.22h-7.45c-.12,0-.22.1-.22.22v1.39ZM19.39,17.56c0,.12.1.22.22.22h2.13c.12,0,.22-.1.22-.22v-1.39c0-.12-.1-.22-.22-.22h-2.13c-.12,0-.22.1-.22.22v1.39ZM15.22,13.58c-.12,0-.3.04-.41.09l-.65.65c-.05.11-.09.29-.09.41v1.9c0,.12.04.3.09.41l.65.65c.11.05.29.09.41.09h2.59c.12,0,.3-.04.41-.09l.65-.65c.05-.11.09-.29.09-.41v-1.9c0-.12-.04-.3-.09-.41l-.65-.65c-.11-.05-.29-.09-.41-.09h-2.59ZM19.39,15.18c0,.12.1.22.22.22h2.13c.12,0,.22-.1.22-.22v-1.39c0-.12-.1-.22-.22-.22h-2.13c-.12,0-.22.1-.22.22v1.39Z"/></g></g></svg>