<?xml version="1.0" encoding="UTF-8"?><svg id="Layer_4" xmlns="http://www.w3.org/2000/svg" xmlns:xlink="http://www.w3.org/1999/xlink" viewBox="0 0 36 36"><defs><style>.cls-1{filter:url(#drop-shadow-3);}.cls-2{filter:url(#drop-shadow-13);}.cls-2,.cls-3{fill:#ed2024;}.cls-3{filter:url(#drop-shadow-12);}.cls-4{fill:url(#linear-gradient-4);}.cls-5{fill:url(#linear-gradient-3);}.cls-6{fill:url(#linear-gradient-2);}.cls-7{fill:url(#linear-gradient);filter:url(#drop-shadow-4);}.cls-8{fill:#9e793e;}</style><filter id="drop-shadow-3" x="5.05" y="5.52" width="27.36" height="26.4" filterUnits="userSpaceOnUse"><feOffset dx="1.44" dy="1.44"/><feGaussianBlur result="blur" stdDeviation=".72"/><feFlood flood-color="#000" flood-opacity=".64"/><feComposite in2="blur" operator="in"/><feComposite in="SourceGraphic"/></filter><linearGradient id="linear-gradient" x1="9.47" y1="10.73" x2="26.31" y2="25.08" gradientUnits="userSpaceOnUse"><stop offset=".08" stop-color="#fff"/><stop offset=".17" stop-color="#e2c48b"/><stop offset=".39" stop-color="#e0c289"/><stop offset=".47" stop-color="#d9bc85"/><stop offset=".52" stop-color="#cdb17d"/><stop offset=".57" stop-color="#bca372"/><stop offset=".61" stop-color="#a68f64"/><stop offset=".64" stop-color="#8b7752"/><stop offset=".67" stop-color="#6b5c3d"/><stop offset=".69" stop-color="#4c4029"/><stop offset=".94" stop-color="#e2c48b"/></linearGradient><filter id="drop-shadow-4" x="5.05" y="5.52" width="27.36" height="26.4" filterUnits="userSpaceOnUse"><feOffset dx=".72" dy=".72"/><feGaussianBlur result="blur-2" stdDeviation=".72"/><feFlood flood-color="#000" flood-opacity=".75"/><feComposite in2="blur-2" operator="in"/><feComposite in="SourceGraphic"/></filter><linearGradient id="linear-gradient-2" x1="13.23" y1="12.76" x2="20.97" y2="21.26" gradientTransform="translate(.03 -.03) rotate(.1)" gradientUnits="userSpaceOnUse"><stop offset="0" stop-color="#ee2c2c"/><stop offset=".17" stop-color="#e72a2b"/><stop offset=".41" stop-color="#d52729"/><stop offset=".69" stop-color="#b72126"/><stop offset=".7" stop-color="#b62126"/><stop offset=".73" stop-color="#c52226"/><stop offset=".78" stop-color="#d72328"/><stop offset=".82" stop-color="#e22428"/><stop offset=".88" stop-color="#e62529"/></linearGradient><filter id="drop-shadow-12" x="16.29" y="10.65" width="3.91" height="3.92" filterUnits="userSpaceOnUse"><feOffset dx=".72" dy=".72"/><feGaussianBlur result="blur-3" stdDeviation="0"/><feFlood flood-color="#000" flood-opacity=".5"/><feComposite in2="blur-3" operator="in"/><feComposite in="SourceGraphic"/></filter><filter id="drop-shadow-13" x="14.78" y="15.08" width="6.87" height="8.95" filterUnits="userSpaceOnUse"><feOffset dx=".72" dy=".72"/><feGaussianBlur result="blur-4" stdDeviation="0"/><feFlood flood-color="#000" flood-opacity=".5"/><feComposite in2="blur-4" operator="in"/><feComposite in="SourceGraphic"/></filter><linearGradient id="linear-gradient-3" x1="16.34" y1="10.91" x2="22.49" y2="16.15" xlink:href="#linear-gradient"/><linearGradient id="linear-gradient-4" x1="12.13" y1="14.95" x2="21.54" y2="22.95" xlink:href="#linear-gradient"/></defs><g class="cls-1"><path class="cls-7" d="M18,28.98c-3.01,0-5.85-1.14-7.98-3.2-2.15-2.07-3.33-4.84-3.33-7.78,0-6.05,5.08-10.97,11.31-10.97,3.01,0,5.85,1.14,7.98,3.2,2.15,2.08,3.33,4.84,3.33,7.78,0,6.05-5.08,10.98-11.31,10.98Z"/><ellipse class="cls-6" cx="18" cy="18" rx="9.87" ry="9.54" transform="translate(-1.91 2.14) rotate(-6.47)"/></g><path class="cls-3" d="M17.18,10.77c2.16-.69,2.95,1.86,1.72,2.72-2.17,1.51-3.65-2.11-1.72-2.72Z"/><path class="cls-2" d="M19.48,20.58c.16.27,1.2.35,1.37.86.85,2.52-5.62,2.11-5.98.98-.67-2.11,2.43-1.49,2.52-2.02.74-4.28-2.12-2.04-2.52-3.46-.63-2.22,3.62-2.2,4.28-1.27.73,1.04-.25,3.96.33,4.91Z"/><path class="cls-8" d="M17.18,10.77c2.16-.69,2.95,1.86,1.72,2.72-2.17,1.51-3.65-2.11-1.72-2.72Z"/><path class="cls-5" d="M17.86,13.14c-.44,0-.77-.47-.84-.93-.04-.28-.01-.63.38-.76.17-.05.33-.08.48-.08.58,0,.78.43.84.62.09.3.06.71-.22.9-.23.16-.44.24-.62.24Z"/><path class="cls-8" d="M19.48,20.58c.16.27,1.2.35,1.37.86.85,2.52-5.62,2.11-5.98.98-.67-2.11,2.43-1.49,2.52-2.02.74-4.28-2.12-2.04-2.52-3.46-.63-2.22,3.62-2.2,4.28-1.27.73,1.04-.25,3.96.33,4.91Z"/><path class="cls-4" d="M17.94,22.58c-1.24,0-2.17-.28-2.4-.46-.06-.21-.05-.33-.01-.38.13-.2.8-.3,1.16-.35.58-.08,1,.01,1.12-.68.25-1.43.38-2.88-.14-3.44-.6-.65-1.43-.26-1.54-.26-.06,0-.89-.09-.87-.61s1.15-.76,1.89-.76c.38,0,.71.09.96.19.34.14.57.45.6.81.03.47-.02,1.11-.06,1.62-.09,1.05-.17,2.05.22,2.7.2.32.54.45.88.58.14.05.4.15.47.21.04.16-.02.24-.05.28-.19.27-.97.56-2.22.56Z"/></svg>