<?xml version="1.0" encoding="UTF-8"?><svg id="Layer_4" xmlns="http://www.w3.org/2000/svg" xmlns:xlink="http://www.w3.org/1999/xlink" viewBox="0 0 36 36"><defs><style>.cls-1{fill:url(#linear-gradient-2);}.cls-2{filter:url(#drop-shadow-13);}.cls-3{filter:url(#drop-shadow-14);}.cls-4{filter:url(#drop-shadow-11);}.cls-5{fill:url(#linear-gradient);filter:url(#drop-shadow-12);}</style><filter id="drop-shadow-11" x="4.65" y="5.13" width="29" height="28" filterUnits="userSpaceOnUse"><feOffset dx="1.44" dy="1.44"/><feGaussianBlur result="blur" stdDeviation=".72"/><feFlood flood-color="#000" flood-opacity=".64"/><feComposite in2="blur" operator="in"/><feComposite in="SourceGraphic"/></filter><linearGradient id="linear-gradient" x1="9.47" y1="10.73" x2="26.31" y2="25.08" gradientUnits="userSpaceOnUse"><stop offset="0" stop-color="#4c4029"/><stop offset=".16" stop-color="#4f432b"/><stop offset=".31" stop-color="#5b4d33"/><stop offset=".46" stop-color="#6f5e3f"/><stop offset=".61" stop-color="#8a7651"/><stop offset=".76" stop-color="#ad9568"/><stop offset=".91" stop-color="#d8bb84"/><stop offset=".94" stop-color="#e2c48b"/></linearGradient><filter id="drop-shadow-12" x="4.65" y="5.13" width="29" height="28" filterUnits="userSpaceOnUse"><feOffset dx=".72" dy=".72"/><feGaussianBlur result="blur-2" stdDeviation=".72"/><feFlood flood-color="#000" flood-opacity=".75"/><feComposite in2="blur-2" operator="in"/><feComposite in="SourceGraphic"/></filter><linearGradient id="linear-gradient-2" x1="8.23" y1="12.48" x2="15.96" y2="20.98" gradientTransform="translate(5.03 .26) rotate(.1)" gradientUnits="userSpaceOnUse"><stop offset=".5" stop-color="#b62126"/><stop offset=".63" stop-color="#c42327"/><stop offset=".84" stop-color="#d6272a"/><stop offset="1" stop-color="#dd292b"/></linearGradient><filter id="drop-shadow-13" x="16.13" y="10.47" width="3.7" height="3.71" filterUnits="userSpaceOnUse"><feOffset dx="-.5" dy="-.5"/><feGaussianBlur result="blur-3" stdDeviation="0"/><feFlood flood-color="#000" flood-opacity=".5"/><feComposite in2="blur-3" operator="in"/><feComposite in="SourceGraphic"/></filter><filter id="drop-shadow-14" x="14.62" y="14.89" width="6.65" height="8.73" filterUnits="userSpaceOnUse"><feOffset dx="-.5" dy="-.5"/><feGaussianBlur result="blur-4" stdDeviation="0"/><feFlood flood-color="#000" flood-opacity=".5"/><feComposite in2="blur-4" operator="in"/><feComposite in="SourceGraphic"/></filter></defs><g class="cls-4"><path class="cls-5" d="M18,28.98c-3.01,0-5.85-1.14-7.98-3.2-2.15-2.07-3.33-4.84-3.33-7.78,0-6.05,5.08-10.97,11.31-10.97,3.01,0,5.85,1.14,7.98,3.2,2.15,2.08,3.33,4.84,3.33,7.78,0,6.05-5.08,10.98-11.31,10.98Z"/><ellipse class="cls-1" cx="18" cy="18" rx="9.87" ry="9.54" transform="translate(-1.91 2.14) rotate(-6.47)"/></g><path class="cls-2" d="M17.52,11.09c2.16-.69,2.95,1.86,1.72,2.72-2.17,1.51-3.65-2.11-1.72-2.72Z"/><path class="cls-3" d="M19.82,20.9c.16.27,1.2.35,1.37.86.85,2.52-5.62,2.11-5.98.98-.67-2.11,2.43-1.49,2.52-2.02.74-4.28-2.12-2.04-2.52-3.46-.63-2.22,3.62-2.2,4.28-1.27.73,1.04-.25,3.96.33,4.91Z"/></svg>