<?xml version="1.0" encoding="UTF-8"?><svg id="Layer_4" xmlns="http://www.w3.org/2000/svg" xmlns:xlink="http://www.w3.org/1999/xlink" viewBox="0 0 36 36"><defs><style>.cls-1{filter:url(#drop-shadow-1);}.cls-2{fill:url(#linear-gradient-4);}.cls-3{fill:url(#linear-gradient-3);}.cls-4{fill:url(#linear-gradient-2);}.cls-5{filter:url(#drop-shadow-6);}.cls-5,.cls-6{fill:#ed2024;}.cls-6{filter:url(#drop-shadow-7);}.cls-7{fill:url(#linear-gradient);filter:url(#drop-shadow-2);}.cls-8{fill:#9e793e;}</style><filter id="drop-shadow-1" x="2.46" y="2.92" width="32.88" height="31.92" filterUnits="userSpaceOnUse"><feOffset dx="1.73" dy="1.73"/><feGaussianBlur result="blur" stdDeviation=".86"/><feFlood flood-color="#000" flood-opacity=".64"/><feComposite in2="blur" operator="in"/><feComposite in="SourceGraphic"/></filter><linearGradient id="linear-gradient" x1="7.76" y1="9.28" x2="27.97" y2="26.5" gradientUnits="userSpaceOnUse"><stop offset=".08" stop-color="#fff"/><stop offset=".17" stop-color="#e2c48b"/><stop offset=".39" stop-color="#e0c289"/><stop offset=".47" stop-color="#d9bc85"/><stop offset=".52" stop-color="#cdb17d"/><stop offset=".57" stop-color="#bca372"/><stop offset=".61" stop-color="#a68f64"/><stop offset=".64" stop-color="#8b7752"/><stop offset=".67" stop-color="#6b5c3d"/><stop offset=".69" stop-color="#4c4029"/><stop offset=".94" stop-color="#e2c48b"/></linearGradient><filter id="drop-shadow-2" x="2.46" y="2.92" width="32.88" height="31.92" filterUnits="userSpaceOnUse"><feOffset dx=".86" dy=".86"/><feGaussianBlur result="blur-2" stdDeviation=".86"/><feFlood flood-color="#000" flood-opacity=".75"/><feComposite in2="blur-2" operator="in"/><feComposite in="SourceGraphic"/></filter><linearGradient id="linear-gradient-2" x1="12.27" y1="11.71" x2="21.56" y2="21.91" gradientTransform="translate(.03 -.03) rotate(.1)" gradientUnits="userSpaceOnUse"><stop offset="0" stop-color="#ee2c2c"/><stop offset=".17" stop-color="#e72a2b"/><stop offset=".41" stop-color="#d52729"/><stop offset=".69" stop-color="#b72126"/><stop offset=".7" stop-color="#b62126"/><stop offset=".73" stop-color="#c52226"/><stop offset=".78" stop-color="#d72328"/><stop offset=".82" stop-color="#e22428"/><stop offset=".88" stop-color="#e62529"/></linearGradient><filter id="drop-shadow-6" x="15.94" y="9.18" width="4.7" height="4.71" filterUnits="userSpaceOnUse"><feOffset dx=".86" dy=".86"/><feGaussianBlur result="blur-3" stdDeviation="0"/><feFlood flood-color="#000" flood-opacity=".5"/><feComposite in2="blur-3" operator="in"/><feComposite in="SourceGraphic"/></filter><filter id="drop-shadow-7" x="14.14" y="14.49" width="8.24" height="10.74" filterUnits="userSpaceOnUse"><feOffset dx=".86" dy=".86"/><feGaussianBlur result="blur-4" stdDeviation="0"/><feFlood flood-color="#000" flood-opacity=".5"/><feComposite in2="blur-4" operator="in"/><feComposite in="SourceGraphic"/></filter><linearGradient id="linear-gradient-3" x1="16" y1="9.49" x2="23.39" y2="15.77" xlink:href="#linear-gradient"/><linearGradient id="linear-gradient-4" x1="10.96" y1="14.35" x2="22.25" y2="23.94" xlink:href="#linear-gradient"/></defs><g class="cls-1"><path class="cls-7" d="M18,31.17c-3.61,0-7.02-1.36-9.58-3.84-2.58-2.49-4-5.8-4-9.33,0-7.26,6.09-13.17,13.58-13.17,3.61,0,7.02,1.36,9.58,3.84,2.58,2.49,4,5.8,4,9.33,0,7.26-6.09,13.17-13.58,13.17Z"/><ellipse class="cls-4" cx="18" cy="18" rx="11.85" ry="11.44" transform="translate(-1.91 2.14) rotate(-6.47)"/></g><path class="cls-5" d="M17.01,9.32c2.59-.82,3.54,2.24,2.07,3.26-2.6,1.82-4.38-2.53-2.07-3.26Z"/><path class="cls-6" d="M19.78,21.09c.2.32,1.44.42,1.65,1.03,1.02,3.02-6.74,2.54-7.17,1.17-.8-2.53,2.92-1.78,3.03-2.42.89-5.13-2.55-2.44-3.03-4.15-.75-2.66,4.35-2.64,5.13-1.52.88,1.25-.3,4.75.39,5.89Z"/><path class="cls-8" d="M17.01,9.32c2.59-.82,3.54,2.24,2.07,3.26-2.6,1.82-4.38-2.53-2.07-3.26Z"/><path class="cls-3" d="M17.84,12.16c-.53,0-.93-.56-1.01-1.11-.05-.33-.02-.76.45-.91.21-.07.4-.1.58-.1.7,0,.94.52,1.01.75.11.36.08.85-.27,1.09-.27.19-.52.28-.75.28Z"/><path class="cls-8" d="M19.78,21.09c.2.32,1.44.42,1.65,1.03,1.02,3.02-6.74,2.54-7.17,1.17-.8-2.53,2.92-1.78,3.03-2.42.89-5.13-2.55-2.44-3.03-4.15-.75-2.66,4.35-2.64,5.13-1.52.88,1.25-.3,4.75.39,5.89Z"/><path class="cls-2" d="M17.93,23.5c-1.49,0-2.6-.34-2.88-.55-.07-.25-.06-.4-.02-.45.15-.24.96-.36,1.39-.42.7-.1,1.21.02,1.35-.81.3-1.72.46-3.46-.16-4.13-.72-.78-1.72-.31-1.85-.32-.07,0-1.07-.11-1.05-.73s1.38-.92,2.26-.92c.45,0,.85.11,1.15.23.4.17.69.54.72.97.04.56-.02,1.33-.08,1.94-.11,1.26-.21,2.46.27,3.24.24.39.65.54,1.06.69.17.06.48.18.56.26.04.19-.03.28-.06.33-.23.33-1.17.68-2.66.68Z"/></svg>