<?xml version="1.0" encoding="UTF-8"?><svg id="Layer_1" xmlns="http://www.w3.org/2000/svg" xmlns:xlink="http://www.w3.org/1999/xlink" viewBox="0 0 180 252"><defs><style>.cls-1{filter:url(#drop-shadow-3);}.cls-2{filter:url(#drop-shadow-2);}.cls-3,.cls-4{fill:#e42125;}.cls-5{font-family:Arial-Black, 'Arial Black';font-size:7.92px;font-weight:800;}.cls-5,.cls-6{fill:#e7c48b;}.cls-7{letter-spacing:-.02em;}.cls-8{letter-spacing:-.02em;}.cls-4{filter:url(#drop-shadow-1);}</style><filter id="drop-shadow-1" x="58.41" y="94.39" width="67.68" height="67.68" filterUnits="userSpaceOnUse"><feOffset dx="2.16" dy="2.16"/><feGaussianBlur result="blur" stdDeviation=".72"/><feFlood flood-color="#000" flood-opacity=".5"/><feComposite in2="blur" operator="in"/><feComposite in="SourceGraphic"/></filter><filter id="drop-shadow-2" x="28.65" y="28.63" width="126.96" height="42.96" filterUnits="userSpaceOnUse"><feOffset dx="2.16" dy="2.16"/><feGaussianBlur result="blur-2" stdDeviation=".72"/><feFlood flood-color="#000" flood-opacity=".5"/><feComposite in2="blur-2" operator="in"/><feComposite in="SourceGraphic"/></filter><filter id="drop-shadow-3" x="28.65" y="184.87" width="126.96" height="42.72" filterUnits="userSpaceOnUse"><feOffset dx="2.16" dy="2.16"/><feGaussianBlur result="blur-3" stdDeviation=".72"/><feFlood flood-color="#000" flood-opacity=".5"/><feComposite in2="blur-3" operator="in"/><feComposite in="SourceGraphic"/></filter></defs><path class="cls-4" d="M90,94.45c-17.43,0-31.55,14.13-31.55,31.55s14.13,31.55,31.55,31.55,31.55-14.13,31.55-31.55-14.13-31.55-31.55-31.55ZM90,154.67c-15.81,0-28.67-12.86-28.67-28.67s12.86-28.67,28.67-28.67,28.67,12.86,28.67,28.67-12.86,28.67-28.67,28.67ZM90,148.93c-12.64,0-22.93-10.28-22.93-22.93s10.28-22.93,22.93-22.93,22.93,10.28,22.93,22.93-10.29,22.93-22.93,22.93Z"/><g class="cls-2"><path class="cls-6" d="M28.74,28.86l6.58,24.57,5.28-5.28,18.96,18.96,7.43-7.43-18.96-18.96,5.28-5.28-24.57-6.58ZM44.82,40.72l18.96,18.96-4.22,4.22-18.96-18.96-4.1,4.1-4.55-16.98,16.98,4.55-4.1,4.1Z"/><polygon class="cls-3" points="40.6 42.9 37.24 46.26 33.98 34.1 46.14 37.36 42.79 40.72 61.75 59.68 59.56 61.86 40.6 42.9"/><path class="cls-6" d="M126.69,35.44l5.28,5.28-18.96,18.96,7.43,7.43,18.96-18.96,5.28,5.28,6.58-24.57-24.57,6.58ZM131.08,36.61l16.98-4.55-4.55,16.98-4.1-4.1-18.96,18.96-4.22-4.22,18.96-18.96-4.1-4.1Z"/><polygon class="cls-3" points="139.4 42.9 142.76 46.26 146.02 34.1 133.86 37.36 137.21 40.72 118.25 59.68 120.44 61.86 139.4 42.9"/><path class="cls-6" d="M90,30.79l-12.72,22.03h7.46v14.29h10.51v-14.29h7.46l-12.72-22.03ZM92.99,50.55v14.29h-5.97v-14.29h-5.8l8.79-15.22,8.79,15.22h-5.8Z"/><polygon class="cls-3" points="88.46 63.4 88.46 49.11 83.71 49.11 90 38.21 96.29 49.11 91.54 49.11 91.54 63.4 88.46 63.4"/></g><g class="cls-1"><path class="cls-6" d="M53.31,216.56l-5.28-5.28,18.96-18.96-7.43-7.43-18.96,18.96-5.28-5.28-6.58,24.57,24.57-6.58ZM48.92,215.39l-16.98,4.55,4.55-16.98,4.1,4.1,18.96-18.96,4.22,4.22-18.96,18.96,4.1,4.1Z"/><polygon class="cls-3" points="40.6 209.1 37.24 205.74 33.98 217.9 46.14 214.64 42.79 211.28 61.75 192.32 59.56 190.14 40.6 209.1"/><path class="cls-6" d="M151.26,223.14l-6.58-24.57-5.28,5.28-18.96-18.96-7.43,7.43,18.96,18.96-5.28,5.28,24.57,6.58ZM135.18,211.28l-18.96-18.96,4.22-4.22,18.96,18.96,4.1-4.1,4.55,16.98-16.98-4.55,4.1-4.1Z"/><polygon class="cls-3" points="139.4 209.1 142.76 205.74 146.02 217.9 133.86 214.64 137.21 211.28 118.25 192.32 120.44 190.14 139.4 209.1"/><path class="cls-6" d="M102.72,199.18h-7.46v-14.29s-10.51,0-10.51,0v14.29h-7.46s12.72,22.03,12.72,22.03l12.72-22.03ZM98.79,201.45l-8.79,15.22-8.79-15.22h5.8s0-14.29,0-14.29h5.97v14.29s5.8,0,5.8,0Z"/><polygon class="cls-3" points="88.46 188.6 88.46 202.89 83.71 202.89 90 213.79 96.29 202.89 91.54 202.89 91.54 188.6 88.46 188.6"/></g><text class="cls-5" transform="translate(71.44 128.18)"><tspan x="0" y="0">n</tspan><tspan class="cls-7" x="5.28" y="0">a</tspan><tspan x="10.43" y="0">vig</tspan><tspan class="cls-8" x="23.19" y="0">a</tspan><tspan x="28.33" y="0">te</tspan></text></svg>