<?xml version="1.0" encoding="UTF-8"?><svg id="Layer_4" xmlns="http://www.w3.org/2000/svg" xmlns:xlink="http://www.w3.org/1999/xlink" viewBox="0 0 36 36"><defs><style>.cls-1{filter:url(#drop-shadow-3);}.cls-2{fill:#e42125;}</style><filter id="drop-shadow-3" x="7.37" y="7.68" width="24.24" height="23.52" filterUnits="userSpaceOnUse"><feOffset dx="1.44" dy="1.44"/><feGaussianBlur result="blur" stdDeviation=".72"/><feFlood flood-color="#000" flood-opacity=".64"/><feComposite in2="blur" operator="in"/><feComposite in="SourceGraphic"/></filter></defs><g class="cls-1"><ellipse class="cls-2" cx="18" cy="18" rx="9.54" ry="9.87" transform="translate(-.03 35.97) rotate(-89.9)"/></g><path d="M12.99,14.17c.14-.81.84-1.5,1.66-1.63,1.4-.22,5.36-.16,6.83-.01,1.22.12,1.76.35,1.91,1.64.12,1.03.12,8.12-.14,8.71-.08.18-.46.55-.63.63-.59.26-7.03.27-8.15.14-1.37-.16-1.48-1.52-1.48-1.52,0,0-.4-5.69,0-7.95ZM18.56,14.29h-3.8c-.39,3.27.35,3.39,3.43,3.05.95-.11.64-2.31.37-3.05ZM21.86,14.29c-.44.17-2.04-.42-2.02.37.51.63,2.07.65,2.02-.37ZM21.86,16.56c-.75.03-2.05-.33-2.03.75h2.03s0-.75,0-.75ZM15.14,18.83c-.56.23-.33,1.01,0,1.01h6.34c.44,0,.44-1.01,0-1.01h-6.34ZM21.86,21.36h-7.1c-.07.49.2.68.64.76.62.11,5.57.11,6.04-.04.34-.11.49-.37.42-.71Z"/></svg>