<?xml version="1.0" encoding="UTF-8"?><svg id="Layer_4" xmlns="http://www.w3.org/2000/svg" xmlns:xlink="http://www.w3.org/1999/xlink" viewBox="0 0 36 36"><defs><style>.cls-1{filter:url(#drop-shadow-8);}.cls-2{fill:url(#linear-gradient-2);}.cls-3{fill:#231f20;filter:url(#drop-shadow-12);}.cls-4{fill:url(#linear-gradient);filter:url(#drop-shadow-9);}</style><filter id="drop-shadow-8" x="4.65" y="5.13" width="29" height="28" filterUnits="userSpaceOnUse"><feOffset dx="1.44" dy="1.44"/><feGaussianBlur result="blur" stdDeviation=".72"/><feFlood flood-color="#000" flood-opacity=".64"/><feComposite in2="blur" operator="in"/><feComposite in="SourceGraphic"/></filter><linearGradient id="linear-gradient" x1="9.47" y1="10.38" x2="26.31" y2="24.73" gradientUnits="userSpaceOnUse"><stop offset="0" stop-color="#4c4029"/><stop offset=".16" stop-color="#4f432b"/><stop offset=".31" stop-color="#5b4d33"/><stop offset=".46" stop-color="#6f5e3f"/><stop offset=".61" stop-color="#8a7651"/><stop offset=".76" stop-color="#ad9568"/><stop offset=".91" stop-color="#d8bb84"/><stop offset=".94" stop-color="#e2c48b"/></linearGradient><filter id="drop-shadow-9" x="4.65" y="5.13" width="29" height="28" filterUnits="userSpaceOnUse"><feOffset dx=".72" dy=".72"/><feGaussianBlur result="blur-2" stdDeviation=".72"/><feFlood flood-color="#000" flood-opacity=".75"/><feComposite in2="blur-2" operator="in"/><feComposite in="SourceGraphic"/></filter><linearGradient id="linear-gradient-2" x1="7.92" y1="18.34" x2="15.66" y2="26.85" gradientTransform="translate(5.35 -5.96) rotate(.1)" gradientUnits="userSpaceOnUse"><stop offset=".5" stop-color="#b62126"/><stop offset=".63" stop-color="#c42327"/><stop offset=".84" stop-color="#d6272a"/><stop offset="1" stop-color="#dd292b"/></linearGradient><filter id="drop-shadow-12" x="12.46" y="11.48" width="10.58" height="11.83" filterUnits="userSpaceOnUse"><feOffset dx="-.5" dy="-.5"/><feGaussianBlur result="blur-3" stdDeviation="0"/><feFlood flood-color="#000" flood-opacity=".5"/><feComposite in2="blur-3" operator="in"/><feComposite in="SourceGraphic"/></filter></defs><g class="cls-1"><path class="cls-4" d="M18,28.63c-3.01,0-5.85-1.14-7.98-3.2-2.15-2.07-3.33-4.84-3.33-7.78,0-6.05,5.08-10.97,11.31-10.97,3.01,0,5.85,1.14,7.98,3.2,2.15,2.08,3.33,4.84,3.33,7.78,0,6.05-5.08,10.98-11.31,10.98Z"/><ellipse class="cls-2" cx="18" cy="17.65" rx="9.87" ry="9.54" transform="translate(-1.87 2.14) rotate(-6.47)"/></g><path class="cls-3" d="M12.96,12.81v9.67c0,.46.37.83.83.83h8.43c.46,0,.83-.37.83-.83v-9.67c0-.46-.37-.83-.83-.83h-8.43c-.46,0-.83.37-.83.83ZM15,13.66h3.02c.28,0,.5.22.5.5v2.33c0,.28-.22.5-.5.5h-3.02c-.28,0-.5-.22-.5-.5v-2.33c0-.28.22-.5.5-.5ZM21.51,21.79h-7.02v-.96h7.02v.96ZM21.51,19.41h-7.02v-.96h7.02v.96ZM21.51,17h-1.69v-.96h1.69v.96ZM21.51,14.61h-1.69v-.95h1.69v.95Z"/></svg>