<?xml version="1.0" encoding="UTF-8"?><svg id="Layer_4" xmlns="http://www.w3.org/2000/svg" xmlns:xlink="http://www.w3.org/1999/xlink" viewBox="0 0 36 36"><defs><style>.cls-1{filter:url(#drop-shadow-2);}.cls-2{fill:url(#linear-gradient-2);}.cls-3{fill:url(#linear-gradient);filter:url(#drop-shadow-3);}</style><filter id="drop-shadow-2" x="5.21" y="5.52" width="27.12" height="26.4" filterUnits="userSpaceOnUse"><feOffset dx="1.44" dy="1.44"/><feGaussianBlur result="blur" stdDeviation=".72"/><feFlood flood-color="#000" flood-opacity=".64"/><feComposite in2="blur" operator="in"/><feComposite in="SourceGraphic"/></filter><linearGradient id="linear-gradient" x1="9.47" y1="10.73" x2="26.31" y2="25.08" gradientUnits="userSpaceOnUse"><stop offset=".08" stop-color="#fff"/><stop offset=".17" stop-color="#e2c48b"/><stop offset=".39" stop-color="#e0c289"/><stop offset=".47" stop-color="#d9bc85"/><stop offset=".52" stop-color="#cdb17d"/><stop offset=".57" stop-color="#bca372"/><stop offset=".61" stop-color="#a68f64"/><stop offset=".64" stop-color="#8b7752"/><stop offset=".67" stop-color="#6b5c3d"/><stop offset=".69" stop-color="#4c4029"/><stop offset=".94" stop-color="#e2c48b"/></linearGradient><filter id="drop-shadow-3" x="5.21" y="5.52" width="27.12" height="26.4" filterUnits="userSpaceOnUse"><feOffset dx=".72" dy=".72"/><feGaussianBlur result="blur-2" stdDeviation=".72"/><feFlood flood-color="#000" flood-opacity=".75"/><feComposite in2="blur-2" operator="in"/><feComposite in="SourceGraphic"/></filter><linearGradient id="linear-gradient-2" x1="12.88" y1="18.97" x2="20.62" y2="27.47" gradientTransform="translate(.39 -6.24) rotate(.1)" gradientUnits="userSpaceOnUse"><stop offset="0" stop-color="#ee2c2c"/><stop offset=".17" stop-color="#e72a2b"/><stop offset=".41" stop-color="#d52729"/><stop offset=".69" stop-color="#b72126"/><stop offset=".7" stop-color="#b62126"/><stop offset=".73" stop-color="#c52226"/><stop offset=".78" stop-color="#d72328"/><stop offset=".82" stop-color="#e22428"/><stop offset=".88" stop-color="#e62529"/></linearGradient></defs><g class="cls-1"><path class="cls-3" d="M18,28.98c-3.01,0-5.85-1.14-7.98-3.2-2.15-2.07-3.33-4.84-3.33-7.78,0-6.05,5.08-10.97,11.31-10.97,3.01,0,5.85,1.14,7.98,3.2,2.15,2.08,3.33,4.84,3.33,7.78,0,6.05-5.08,10.98-11.31,10.98Z"/><ellipse class="cls-2" cx="18" cy="18" rx="9.87" ry="9.54" transform="translate(-1.91 2.14) rotate(-6.47)"/></g><path d="M12.99,14.17c.14-.81.84-1.5,1.66-1.63,1.4-.22,5.36-.16,6.83-.01,1.22.12,1.76.35,1.91,1.64.12,1.03.12,8.12-.14,8.71-.08.18-.46.55-.63.63-.59.26-7.03.27-8.15.14-1.37-.16-1.48-1.52-1.48-1.52,0,0-.4-5.69,0-7.95ZM18.56,14.29h-3.8c-.39,3.27.35,3.39,3.43,3.05.95-.11.64-2.31.37-3.05ZM21.86,14.29c-.44.17-2.04-.42-2.02.37.51.63,2.07.65,2.02-.37ZM21.86,16.56c-.75.03-2.05-.33-2.03.75h2.03s0-.75,0-.75ZM15.14,18.83c-.56.23-.33,1.01,0,1.01h6.34c.44,0,.44-1.01,0-1.01h-6.34ZM21.86,21.36h-7.1c-.07.49.2.68.64.76.62.11,5.57.11,6.04-.04.34-.11.49-.37.42-.71Z"/></svg>