<?xml version="1.0" encoding="UTF-8"?><svg xmlns="http://www.w3.org/2000/svg" xmlns:xlink="http://www.w3.org/1999/xlink" viewBox="0 0 36 36"><defs><style>.cls-1{filter:url(#drop-shadow-1);}.cls-2{mix-blend-mode:multiply;opacity:.5;}.cls-3{fill:url(#linear-gradient-4);}.cls-4{fill:url(#linear-gradient-3);}.cls-5{fill:url(#linear-gradient-2);}.cls-6{isolation:isolate;}.cls-7{fill:url(#linear-gradient);filter:url(#drop-shadow-2);}</style><filter id="drop-shadow-1" x="2.62" y="2.92" width="32.64" height="31.92" filterUnits="userSpaceOnUse"><feOffset dx="1.73" dy="1.73"/><feGaussianBlur result="blur" stdDeviation=".86"/><feFlood flood-color="#000" flood-opacity=".64"/><feComposite in2="blur" operator="in"/><feComposite in="SourceGraphic"/></filter><linearGradient id="linear-gradient" x1="7.76" y1="9.28" x2="27.97" y2="26.5" gradientUnits="userSpaceOnUse"><stop offset=".08" stop-color="#fff"/><stop offset=".17" stop-color="#e2c48b"/><stop offset=".39" stop-color="#e0c289"/><stop offset=".47" stop-color="#d9bc85"/><stop offset=".52" stop-color="#cdb17d"/><stop offset=".57" stop-color="#bca372"/><stop offset=".61" stop-color="#a68f64"/><stop offset=".64" stop-color="#8b7752"/><stop offset=".67" stop-color="#6b5c3d"/><stop offset=".69" stop-color="#4c4029"/><stop offset=".94" stop-color="#e2c48b"/></linearGradient><filter id="drop-shadow-2" x="2.62" y="2.92" width="32.64" height="31.92" filterUnits="userSpaceOnUse"><feOffset dx=".86" dy=".86"/><feGaussianBlur result="blur-2" stdDeviation=".86"/><feFlood flood-color="#000" flood-opacity=".75"/><feComposite in2="blur-2" operator="in"/><feComposite in="SourceGraphic"/></filter><linearGradient id="linear-gradient-2" x1="11.93" y1="17.92" x2="21.21" y2="28.13" gradientTransform="translate(.39 -6.24) rotate(.1)" gradientUnits="userSpaceOnUse"><stop offset="0" stop-color="#ee2c2c"/><stop offset=".17" stop-color="#e72a2b"/><stop offset=".41" stop-color="#d52729"/><stop offset=".69" stop-color="#b72126"/><stop offset=".7" stop-color="#b62126"/><stop offset=".73" stop-color="#c52226"/><stop offset=".78" stop-color="#d72328"/><stop offset=".82" stop-color="#e22428"/><stop offset=".88" stop-color="#e62529"/></linearGradient><linearGradient id="linear-gradient-3" x1="11.95" y1="18" x2="24.05" y2="18" gradientUnits="userSpaceOnUse"><stop offset=".08" stop-color="#b99c71"/><stop offset=".17" stop-color="#b28e55"/><stop offset=".45" stop-color="#b08c54"/><stop offset=".55" stop-color="#a98750"/><stop offset=".62" stop-color="#9d7d4a"/><stop offset=".68" stop-color="#8c7041"/><stop offset=".69" stop-color="#886d3f"/><stop offset=".94" stop-color="#b28e55"/></linearGradient><linearGradient id="linear-gradient-4" x1="12.32" y1="11.67" x2="25.2" y2="26.03" xlink:href="#linear-gradient"/></defs><g class="cls-6"><g id="Layer_4"><g class="cls-1"><path class="cls-7" d="M18,31.17c-3.61,0-7.02-1.36-9.58-3.84-2.58-2.49-4-5.8-4-9.33,0-7.26,6.09-13.17,13.58-13.17,3.61,0,7.02,1.36,9.58,3.84,2.58,2.49,4,5.8,4,9.33,0,7.26-6.09,13.17-13.58,13.17Z"/><ellipse class="cls-5" cx="18" cy="18" rx="11.85" ry="11.44" transform="translate(-1.91 2.14) rotate(-6.47)"/></g><g class="cls-2"><path d="M12.73,12.98v11.6c0,.55.44.99.99.99h10.11c.55,0,.99-.44.99-.99v-11.6c0-.55-.44-.99-.99-.99h-10.11c-.55,0-.99.44-.99.99ZM15.18,13.99h3.63c.33,0,.6.27.6.6v2.8c0,.33-.27.6-.6.6h-3.63c-.33,0-.6-.27-.6-.6v-2.8c0-.33.27-.6.6-.6ZM22.99,23.48c0,.14-.12.26-.26.26h-7.9c-.14,0-.26-.12-.26-.26v-.63c0-.14.12-.26.26-.26h7.9c.14,0,.26.12.26.26v.63ZM22.99,20.63c0,.14-.12.26-.26.26h-7.9c-.14,0-.26-.12-.26-.26v-.63c0-.14.12-.26.26-.26h7.9c.14,0,.26.12.26.26v.63ZM22.99,17.73c0,.14-.12.26-.26.26h-1.51c-.14,0-.26-.12-.26-.26v-.63c0-.14.12-.26.26-.26h1.51c.14,0,.26.12.26.26v.63ZM22.99,14.87c0,.14-.12.26-.26.26h-1.51c-.14,0-.26-.12-.26-.26v-.63c0-.14.12-.26.26-.26h1.51c.14,0,.26.12.26.26v.63Z"/></g><path class="cls-4" d="M11.95,12.2v11.6c0,.55.44.99.99.99h10.11c.55,0,.99-.44.99-.99v-11.6c0-.55-.44-.99-.99-.99h-10.11c-.55,0-.99.44-.99.99ZM14.4,13.21h3.63c.33,0,.6.27.6.6v2.8c0,.33-.27.6-.6.6h-3.63c-.33,0-.6-.27-.6-.6v-2.8c0-.33.27-.6.6-.6ZM22.22,22.7c0,.14-.12.26-.26.26h-7.9c-.14,0-.26-.12-.26-.26v-.63c0-.14.12-.26.26-.26h7.9c.14,0,.26.12.26.26v.63ZM22.22,19.85c0,.14-.12.26-.26.26h-7.9c-.14,0-.26-.12-.26-.26v-.63c0-.14.12-.26.26-.26h7.9c.14,0,.26.12.26.26v.63ZM22.22,16.96c0,.14-.12.26-.26.26h-1.51c-.14,0-.26-.12-.26-.26v-.63c0-.14.12-.26.26-.26h1.51c.14,0,.26.12.26.26v.63ZM22.22,14.1c0,.14-.12.26-.26.26h-1.51c-.14,0-.26-.12-.26-.26v-.63c0-.14.12-.26.26-.26h1.51c.14,0,.26.12.26.26v.63Z"/><path class="cls-3" d="M13.2,24.28c-.14,0-.37-.05-.5-.11l-.13-.13c-.06-.13-.11-.35-.11-.5v-11.09c0-.14.05-.37.11-.5l.13-.13c.13-.06.35-.11.5-.11h9.59c.14,0,.37.05.5.11l.13.13c.06.13.11.35.11.5v11.09c0,.14-.05.37-.11.5l-.13.13c-.13.06-.35.11-.5.11h-9.59ZM13.28,23.22c0,.14.12.26.26.26h8.94c.14,0,.26-.12.26-.26v-1.66c0-.14-.12-.26-.26-.26h-8.94c-.14,0-.26.12-.26.26v1.66ZM13.28,20.37c0,.14.12.26.26.26h8.94c.14,0,.26-.12.26-.26v-1.66c0-.14-.12-.26-.26-.26h-8.94c-.14,0-.26.12-.26.26v1.66ZM19.67,17.48c0,.14.12.26.26.26h2.55c.14,0,.26-.12.26-.26v-1.66c0-.14-.12-.26-.26-.26h-2.55c-.14,0-.26.12-.26.26v1.66ZM14.66,12.69c-.14,0-.37.05-.5.11l-.78.78c-.06.13-.11.35-.11.5v2.28c0,.14.05.37.11.5l.78.78c.13.06.35.11.5.11h3.11c.14,0,.37-.05.5-.11l.78-.78c.06-.13.11-.35.11-.5v-2.28c0-.14-.05-.37-.11-.5l-.78-.78c-.13-.06-.35-.11-.5-.11h-3.11ZM19.67,14.62c0,.14.12.26.26.26h2.55c.14,0,.26-.12.26-.26v-1.66c0-.14-.12-.26-.26-.26h-2.55c-.14,0-.26.12-.26.26v1.66Z"/></g></g></svg>