<?xml version="1.0" encoding="UTF-8"?><svg xmlns="http://www.w3.org/2000/svg" xmlns:xlink="http://www.w3.org/1999/xlink" viewBox="0 0 36 36"><defs><style>.cls-1{filter:url(#drop-shadow-1);}.cls-2{mix-blend-mode:multiply;opacity:.5;}.cls-3{fill:url(#linear-gradient-4);}.cls-4{fill:url(#linear-gradient-3);}.cls-5{fill:url(#linear-gradient-2);}.cls-6{fill:url(#linear-gradient);}.cls-7{isolation:isolate;}</style><filter id="drop-shadow-1" x=".5" y=".5" width="35" height="35" filterUnits="userSpaceOnUse"><feOffset dx="2.26" dy="2.26"/><feGaussianBlur result="blur" stdDeviation="1.13"/><feFlood flood-color="#000" flood-opacity=".64"/><feComposite in2="blur" operator="in"/><feComposite in="SourceGraphic"/></filter><linearGradient id="linear-gradient" x1="4.64" y1="6.61" x2="31.01" y2="29.09" gradientUnits="userSpaceOnUse"><stop offset=".08" stop-color="#fff"/><stop offset=".17" stop-color="#e1c389"/><stop offset=".39" stop-color="#dfc187"/><stop offset=".47" stop-color="#d8bb83"/><stop offset=".52" stop-color="#ccb07b"/><stop offset=".57" stop-color="#bba270"/><stop offset=".61" stop-color="#a58e62"/><stop offset=".64" stop-color="#8a7650"/><stop offset=".67" stop-color="#6a5b3c"/><stop offset=".69" stop-color="#4c4028"/><stop offset=".94" stop-color="#e1c389"/></linearGradient><linearGradient id="linear-gradient-2" x1="12.96" y1="-40.75" x2="25.09" y2="-27.42" gradientTransform="translate(1.3 52.6) rotate(-6.37)" gradientUnits="userSpaceOnUse"><stop offset="0" stop-color="#ed2b2c"/><stop offset=".17" stop-color="#e6292b"/><stop offset=".42" stop-color="#d42629"/><stop offset=".7" stop-color="#b62226"/><stop offset=".7" stop-color="#b62226"/><stop offset=".73" stop-color="#c52226"/><stop offset=".78" stop-color="#d72428"/><stop offset=".82" stop-color="#e22428"/><stop offset=".88" stop-color="#e62529"/></linearGradient><linearGradient id="linear-gradient-3" x1="10.2" y1="18" x2="25.8" y2="18" gradientUnits="userSpaceOnUse"><stop offset=".08" stop-color="#b89b72"/><stop offset=".17" stop-color="#b28e54"/><stop offset=".45" stop-color="#b08c53"/><stop offset=".55" stop-color="#a9874f"/><stop offset=".62" stop-color="#9d7e4a"/><stop offset=".68" stop-color="#8c7242"/><stop offset=".69" stop-color="#866d3f"/><stop offset=".94" stop-color="#b28e54"/></linearGradient><linearGradient id="linear-gradient-4" x1="10.53" y1="9.68" x2="27.46" y2="28.55" xlink:href="#linear-gradient"/></defs><g class="cls-7"><g id="Layer_4"><g class="cls-1"><path class="cls-6" d="M18,35.5c-4.66,0-9.04-1.81-12.35-5.1-3.32-3.31-5.15-7.71-5.15-12.4C.5,8.35,8.35.5,18,.5c4.66,0,9.04,1.81,12.35,5.1,3.32,3.31,5.15,7.71,5.15,12.4,0,9.65-7.85,17.5-17.5,17.5Z"/><path class="cls-5" d="M33.17,16.25c-.9-8.34-8.43-14.33-16.81-13.36C7.98,3.85,1.92,11.4,2.82,19.75c.9,8.34,8.43,14.33,16.81,13.36,8.38-.96,14.45-8.51,13.54-16.86Z"/></g><g class="cls-2"><path d="M11.22,11.31v15.42c0,.73.57,1.32,1.28,1.32h13.04c.71,0,1.28-.59,1.28-1.32v-15.42c0-.73-.57-1.32-1.28-1.32h-13.04c-.71,0-1.28.59-1.28,1.32ZM14.38,12.65h4.68c.43,0,.78.36.78.8v3.72c0,.44-.35.8-.78.8h-4.68c-.43,0-.78-.36-.78-.8v-3.72c0-.44.35-.8.78-.8ZM24.45,25.27c0,.19-.15.34-.34.34h-10.18c-.19,0-.34-.15-.34-.34v-.84c0-.19.15-.34.34-.34h10.18c.19,0,.34.15.34.34v.84ZM24.45,21.49c0,.19-.15.34-.34.34h-10.18c-.19,0-.34-.15-.34-.34v-.84c0-.19.15-.34.34-.34h10.18c.19,0,.34.15.34.34v.84ZM24.45,17.64c0,.19-.15.34-.34.34h-1.94c-.19,0-.34-.15-.34-.34v-.84c0-.19.15-.34.34-.34h1.94c.19,0,.34.15.34.34v.84ZM24.45,13.84c0,.19-.15.34-.34.34h-1.94c-.19,0-.34-.15-.34-.34v-.84c0-.19.15-.34.34-.34h1.94c.19,0,.34.15.34.34v.84Z"/></g><path class="cls-4" d="M10.2,10.29v15.42c0,.73.57,1.32,1.28,1.32h13.04c.71,0,1.28-.59,1.28-1.32v-15.42c0-.73-.57-1.32-1.28-1.32h-13.04c-.71,0-1.28.59-1.28,1.32ZM13.36,11.64h4.68c.43,0,.78.36.78.8v3.72c0,.44-.35.8-.78.8h-4.68c-.43,0-.78-.36-.78-.8v-3.72c0-.44.35-.8.78-.8ZM23.44,24.26c0,.19-.15.34-.34.34h-10.18c-.19,0-.34-.15-.34-.34v-.84c0-.19.15-.34.34-.34h10.18c.19,0,.34.15.34.34v.84ZM23.44,20.47c0,.19-.15.34-.34.34h-10.18c-.19,0-.34-.15-.34-.34v-.84c0-.19.15-.34.34-.34h10.18c.19,0,.34.15.34.34v.84ZM23.44,16.62c0,.19-.15.34-.34.34h-1.94c-.19,0-.34-.15-.34-.34v-.84c0-.19.15-.34.34-.34h1.94c.19,0,.34.15.34.34v.84ZM23.44,12.82c0,.19-.15.34-.34.34h-1.94c-.19,0-.34-.15-.34-.34v-.84c0-.19.15-.34.34-.34h1.94c.19,0,.34.15.34.34v.84Z"/><path class="cls-3" d="M11.82,26.34c-.19,0-.48-.06-.65-.14s-.31-.64-.31-.83v-14.74c0-.19.06-.48.14-.65,0,0,0-.1.17-.18s.46-.14.65-.14h12.36c.19,0,.48.06.64.14s.31.64.31.83v14.74c0,.19-.06.48-.14.65,0,0,0,.1-.17.18s-.46.14-.64.14h-12.36ZM11.91,24.94c0,.19.15.34.34.34h11.51c.19,0,.34-.15.34-.34v-2.22c0-.19-.15-.34-.34-.34h-11.51c-.19,0-.34.15-.34.34v2.22ZM11.91,21.16c0,.19.15.34.34.34h11.51c.19,0,.34-.15.34-.34v-2.22c0-.19-.15-.34-.34-.34h-11.51c-.19,0-.34.15-.34.34v2.22ZM20.15,17.31c0,.19.15.34.34.34h3.28c.19,0,.34-.15.34-.34v-2.22c0-.19-.15-.34-.34-.34h-3.28c-.19,0-.34.15-.34.34v2.22ZM13.7,10.95c-.19,0-.48.06-.65.14l-1,1.04c-.07.17-.14.46-.14.65v3.04c0,.19.06.48.14.65l1,1.04c.17.08.46.14.65.14h4c.19,0,.48-.06.65-.14l1-1.04c.07-.17.14-.46.14-.65v-3.04c0-.19-.06-.48-.14-.65l-1-1.04c-.17-.08-.46-.14-.65-.14h-4ZM20.15,13.51c0,.19.15.34.34.34h3.28c.19,0,.34-.15.34-.34v-2.22c0-.19-.15-.34-.34-.34h-3.28c-.19,0-.34.15-.34.34v2.22Z"/></g></g></svg>