<?xml version="1.0" encoding="UTF-8"?><svg id="Layer_4" xmlns="http://www.w3.org/2000/svg" xmlns:xlink="http://www.w3.org/1999/xlink" viewBox="0 0 36 36"><defs><style>.cls-1{filter:url(#drop-shadow-3);}.cls-2{fill:url(#linear-gradient-2);}.cls-3{fill:url(#linear-gradient);filter:url(#drop-shadow-4);}</style><filter id="drop-shadow-3" x="5.13" y="5.52" width="27.12" height="26.4" filterUnits="userSpaceOnUse"><feOffset dx="1.44" dy="1.44"/><feGaussianBlur result="blur" stdDeviation=".72"/><feFlood flood-color="#000" flood-opacity=".64"/><feComposite in2="blur" operator="in"/><feComposite in="SourceGraphic"/></filter><linearGradient id="linear-gradient" x1="9.47" y1="10.73" x2="26.31" y2="25.08" gradientUnits="userSpaceOnUse"><stop offset=".08" stop-color="#fff"/><stop offset=".17" stop-color="#e2c48b"/><stop offset=".39" stop-color="#e0c289"/><stop offset=".47" stop-color="#d9bc85"/><stop offset=".52" stop-color="#cdb17d"/><stop offset=".57" stop-color="#bca372"/><stop offset=".61" stop-color="#a68f64"/><stop offset=".64" stop-color="#8b7752"/><stop offset=".67" stop-color="#6b5c3d"/><stop offset=".69" stop-color="#4c4029"/><stop offset=".94" stop-color="#e2c48b"/></linearGradient><filter id="drop-shadow-4" x="5.13" y="5.52" width="27.12" height="26.4" filterUnits="userSpaceOnUse"><feOffset dx=".72" dy=".72"/><feGaussianBlur result="blur-2" stdDeviation=".72"/><feFlood flood-color="#000" flood-opacity=".75"/><feComposite in2="blur-2" operator="in"/><feComposite in="SourceGraphic"/></filter><linearGradient id="linear-gradient-2" x1="12.54" y1="25.18" x2="20.27" y2="33.69" gradientTransform="translate(.74 -12.46) rotate(.1)" gradientUnits="userSpaceOnUse"><stop offset="0" stop-color="#ee2c2c"/><stop offset=".17" stop-color="#e72a2b"/><stop offset=".41" stop-color="#d52729"/><stop offset=".69" stop-color="#b72126"/><stop offset=".7" stop-color="#b62126"/><stop offset=".73" stop-color="#c52226"/><stop offset=".78" stop-color="#d72328"/><stop offset=".82" stop-color="#e22428"/><stop offset=".88" stop-color="#e62529"/></linearGradient></defs><g class="cls-1"><path class="cls-3" d="M18,28.98c-3.01,0-5.85-1.14-7.98-3.2-2.15-2.07-3.33-4.84-3.33-7.78,0-6.05,5.08-10.97,11.31-10.97,3.01,0,5.85,1.14,7.98,3.2,2.15,2.08,3.33,4.84,3.33,7.78,0,6.05-5.08,10.98-11.31,10.98Z"/><ellipse class="cls-2" cx="18" cy="18" rx="9.87" ry="9.54" transform="translate(-1.91 2.14) rotate(-6.47)"/></g><path d="M22.38,23.97h-8.12c-.92,0-.11-3.17,2.05-3.42,2.72-.32,6.63-.31,6.07,3.42Z"/><path d="M17.51,15.59c3.25-.74,3.83,3.8.99,4.18s-3.33-3.64-.99-4.18Z"/><path d="M20.32,19.87c.04-.57.44-.98.63-1.54.12-.35-.04-.93.16-1.21.25-.37,2.18-.26,2.66-.11,1.22.37,2.36,2.86,1.02,2.86h-4.46Z"/><path d="M16.21,19.87h-4.69c-.3,0-.37-.74-.36-1.02.07-1.8,2.64-2.39,4.02-1.72l1.03,2.74Z"/><path d="M13.86,12.62c2.4-.5,3,3.11.81,3.57-2.4.5-3-3.11-.81-3.57Z"/><path d="M22.09,12.62c2.4-.5,3,3.11.81,3.57-2.4.5-3-3.11-.81-3.57Z"/></svg>