<?xml version="1.0" encoding="UTF-8"?><svg id="Layer_4" xmlns="http://www.w3.org/2000/svg" xmlns:xlink="http://www.w3.org/1999/xlink" viewBox="0 0 36 36"><defs><style>.cls-1{filter:url(#drop-shadow-3);}.cls-2{fill:#e42125;}</style><filter id="drop-shadow-3" x="7.29" y="7.68" width="24.24" height="23.52" filterUnits="userSpaceOnUse"><feOffset dx="1.44" dy="1.44"/><feGaussianBlur result="blur" stdDeviation=".72"/><feFlood flood-color="#000" flood-opacity=".64"/><feComposite in2="blur" operator="in"/><feComposite in="SourceGraphic"/></filter></defs><g class="cls-1"><ellipse class="cls-2" cx="18" cy="18" rx="9.54" ry="9.87" transform="translate(-.03 35.97) rotate(-89.9)"/></g><path d="M22.38,23.97h-8.12c-.92,0-.11-3.17,2.05-3.42,2.72-.32,6.63-.31,6.07,3.42Z"/><path d="M17.51,15.59c3.25-.74,3.83,3.8.99,4.18s-3.33-3.64-.99-4.18Z"/><path d="M20.32,19.87c.04-.57.44-.98.63-1.54.12-.35-.04-.93.16-1.21.25-.37,2.18-.26,2.66-.11,1.22.37,2.36,2.86,1.02,2.86h-4.46Z"/><path d="M16.21,19.87h-4.69c-.3,0-.37-.74-.36-1.02.07-1.8,2.64-2.39,4.02-1.72l1.03,2.74Z"/><path d="M13.86,12.62c2.4-.5,3,3.11.81,3.57-2.4.5-3-3.11-.81-3.57Z"/><path d="M22.09,12.62c2.4-.5,3,3.11.81,3.57-2.4.5-3-3.11-.81-3.57Z"/></svg>