<?xml version="1.0" encoding="UTF-8"?><svg id="Layer_4" xmlns="http://www.w3.org/2000/svg" xmlns:xlink="http://www.w3.org/1999/xlink" viewBox="0 0 36 36"><defs><style>.cls-1{fill:url(#linear-gradient-5);filter:url(#drop-shadow-10);}.cls-2{fill:url(#linear-gradient-7);filter:url(#drop-shadow-12);}.cls-3{fill:url(#linear-gradient-8);filter:url(#drop-shadow-13);}.cls-4{fill:url(#linear-gradient-6);filter:url(#drop-shadow-11);}.cls-5{filter:url(#drop-shadow-6);}.cls-6{fill:url(#linear-gradient-9);}.cls-7{fill:url(#linear-gradient-2);}.cls-8{fill:url(#linear-gradient-3);filter:url(#drop-shadow-8);}.cls-9{fill:url(#linear-gradient-4);filter:url(#drop-shadow-9);}.cls-10{fill:url(#linear-gradient-10);}.cls-11{fill:url(#linear-gradient-11);}.cls-12{fill:url(#linear-gradient-12);}.cls-13{fill:url(#linear-gradient-13);}.cls-14{fill:url(#linear-gradient-14);}.cls-15{fill:url(#linear-gradient);filter:url(#drop-shadow-7);}</style><filter id="drop-shadow-6" x="5.13" y="5.52" width="27.12" height="26.4" filterUnits="userSpaceOnUse"><feOffset dx="1.44" dy="1.44"/><feGaussianBlur result="blur" stdDeviation=".72"/><feFlood flood-color="#000" flood-opacity=".64"/><feComposite in2="blur" operator="in"/><feComposite in="SourceGraphic"/></filter><linearGradient id="linear-gradient" x1="9.47" y1="10.73" x2="26.31" y2="25.08" gradientUnits="userSpaceOnUse"><stop offset=".08" stop-color="#fff"/><stop offset=".17" stop-color="#e2c48b"/><stop offset=".39" stop-color="#e0c289"/><stop offset=".47" stop-color="#d9bc85"/><stop offset=".52" stop-color="#cdb17d"/><stop offset=".57" stop-color="#bca372"/><stop offset=".61" stop-color="#a68f64"/><stop offset=".64" stop-color="#8b7752"/><stop offset=".67" stop-color="#6b5c3d"/><stop offset=".69" stop-color="#4c4029"/><stop offset=".94" stop-color="#e2c48b"/></linearGradient><filter id="drop-shadow-7" x="5.13" y="5.52" width="27.12" height="26.4" filterUnits="userSpaceOnUse"><feOffset dx=".72" dy=".72"/><feGaussianBlur result="blur-2" stdDeviation=".72"/><feFlood flood-color="#000" flood-opacity=".75"/><feComposite in2="blur-2" operator="in"/><feComposite in="SourceGraphic"/></filter><linearGradient id="linear-gradient-2" x1="12.54" y1="25.18" x2="20.27" y2="33.69" gradientTransform="translate(.74 -12.46) rotate(.1)" gradientUnits="userSpaceOnUse"><stop offset="0" stop-color="#ee2c2c"/><stop offset=".17" stop-color="#e72a2b"/><stop offset=".41" stop-color="#d52729"/><stop offset=".69" stop-color="#b72126"/><stop offset=".7" stop-color="#b62126"/><stop offset=".73" stop-color="#c52226"/><stop offset=".78" stop-color="#d72328"/><stop offset=".82" stop-color="#e22428"/><stop offset=".88" stop-color="#e62529"/></linearGradient><linearGradient id="linear-gradient-3" x1="13.89" y1="22.19" x2="22.44" y2="22.19" gradientUnits="userSpaceOnUse"><stop offset=".08" stop-color="#b99c71"/><stop offset=".17" stop-color="#b28e55"/><stop offset=".45" stop-color="#b08c54"/><stop offset=".55" stop-color="#a98750"/><stop offset=".62" stop-color="#9d7d4a"/><stop offset=".68" stop-color="#8c7041"/><stop offset=".69" stop-color="#886d3f"/><stop offset=".94" stop-color="#b28e55"/></linearGradient><filter id="drop-shadow-8" x="13.89" y="20.42" width="9.27" height="4.27" filterUnits="userSpaceOnUse"><feOffset dx=".72" dy=".72"/><feGaussianBlur result="blur-3" stdDeviation="0"/><feFlood flood-color="#000" flood-opacity=".5"/><feComposite in2="blur-3" operator="in"/><feComposite in="SourceGraphic"/></filter><linearGradient id="linear-gradient-4" x1="16.06" y1="17.65" x2="20.33" y2="17.65" xlink:href="#linear-gradient-3"/><filter id="drop-shadow-9" x="16.06" y="15.51" width="4.99" height="5" filterUnits="userSpaceOnUse"><feOffset dx=".72" dy=".72"/><feGaussianBlur result="blur-4" stdDeviation="0"/><feFlood flood-color="#000" flood-opacity=".5"/><feComposite in2="blur-4" operator="in"/><feComposite in="SourceGraphic"/></filter><linearGradient id="linear-gradient-5" x1="20.32" y1="18.37" x2="25.39" y2="18.37" xlink:href="#linear-gradient-3"/><filter id="drop-shadow-10" x="20.32" y="16.87" width="5.79" height="3.72" filterUnits="userSpaceOnUse"><feOffset dx=".72" dy=".72"/><feGaussianBlur result="blur-5" stdDeviation="0"/><feFlood flood-color="#000" flood-opacity=".5"/><feComposite in2="blur-5" operator="in"/><feComposite in="SourceGraphic"/></filter><linearGradient id="linear-gradient-6" x1="11.15" y1="18.36" x2="16.21" y2="18.36" xlink:href="#linear-gradient-3"/><filter id="drop-shadow-11" x="11.15" y="16.86" width="5.77" height="3.73" filterUnits="userSpaceOnUse"><feOffset dx=".72" dy=".72"/><feGaussianBlur result="blur-6" stdDeviation="0"/><feFlood flood-color="#000" flood-opacity=".5"/><feComposite in2="blur-6" operator="in"/><feComposite in="SourceGraphic"/></filter><linearGradient id="linear-gradient-7" x1="12.5" y1="14.4" x2="16.02" y2="14.4" xlink:href="#linear-gradient-3"/><filter id="drop-shadow-12" x="12.5" y="12.57" width="4.25" height="4.38" filterUnits="userSpaceOnUse"><feOffset dx=".72" dy=".72"/><feGaussianBlur result="blur-7" stdDeviation="0"/><feFlood flood-color="#000" flood-opacity=".5"/><feComposite in2="blur-7" operator="in"/><feComposite in="SourceGraphic"/></filter><linearGradient id="linear-gradient-8" x1="20.73" y1="14.4" x2="24.26" y2="14.4" xlink:href="#linear-gradient-3"/><filter id="drop-shadow-13" x="20.73" y="12.57" width="4.25" height="4.38" filterUnits="userSpaceOnUse"><feOffset dx=".72" dy=".72"/><feGaussianBlur result="blur-8" stdDeviation="0"/><feFlood flood-color="#000" flood-opacity=".5"/><feComposite in2="blur-8" operator="in"/><feComposite in="SourceGraphic"/></filter><linearGradient id="linear-gradient-9" x1="9.69" y1="13.96" x2="21.88" y2="26.86" xlink:href="#linear-gradient"/><linearGradient id="linear-gradient-10" x1="12.35" y1="11.45" x2="24.54" y2="24.35" xlink:href="#linear-gradient"/><linearGradient id="linear-gradient-11" x1="14.17" y1="9.73" x2="26.35" y2="22.64" xlink:href="#linear-gradient"/><linearGradient id="linear-gradient-12" x1="9.33" y1="14.3" x2="21.52" y2="27.21" xlink:href="#linear-gradient"/><linearGradient id="linear-gradient-13" x1="11.89" y1="11.89" x2="24.07" y2="24.79" xlink:href="#linear-gradient"/><linearGradient id="linear-gradient-14" x1="16.24" y1="7.77" x2="28.43" y2="20.68" xlink:href="#linear-gradient"/></defs><g class="cls-5"><path class="cls-15" d="M18,28.98c-3.01,0-5.85-1.14-7.98-3.2-2.15-2.07-3.33-4.84-3.33-7.78,0-6.05,5.08-10.97,11.31-10.97,3.01,0,5.85,1.14,7.98,3.2,2.15,2.08,3.33,4.84,3.33,7.78,0,6.05-5.08,10.98-11.31,10.98Z"/><ellipse class="cls-7" cx="18" cy="18" rx="9.87" ry="9.54" transform="translate(-1.91 2.14) rotate(-6.47)"/><path class="cls-8" d="M22.38,23.97h-8.12c-.92,0-.11-3.17,2.05-3.42,2.72-.32,6.63-.31,6.07,3.42Z"/><path class="cls-9" d="M17.51,15.59c3.25-.74,3.83,3.8.99,4.18s-3.33-3.64-.99-4.18Z"/><path class="cls-1" d="M20.32,19.87c.04-.57.44-.98.63-1.54.12-.35-.04-.93.16-1.21.25-.37,2.18-.26,2.66-.11,1.22.37,2.36,2.86,1.02,2.86h-4.46Z"/><path class="cls-4" d="M16.21,19.87h-4.69c-.3,0-.37-.74-.36-1.02.07-1.8,2.64-2.39,4.02-1.72l1.03,2.74Z"/><path class="cls-2" d="M13.86,12.62c2.4-.5,3,3.11.81,3.57-2.4.5-3-3.11-.81-3.57Z"/><path class="cls-3" d="M22.09,12.62c2.4-.5,3,3.11.81,3.57-2.4.5-3-3.11-.81-3.57Z"/></g><path class="cls-6" d="M14.33,23.54c-.04-.16-.01-.58.25-1.13.19-.39.74-1.31,1.78-1.43.71-.08,1.33-.12,1.9-.12,1.6,0,2.7.33,3.27.98.36.42.51.98.46,1.7h-7.67Z"/><path class="cls-10" d="M18.16,19.36c-1.02,0-1.56-.8-1.65-1.59-.08-.73.23-1.56,1.1-1.76.21-.05.41-.07.59-.07,1.1,0,1.64.81,1.69,1.61.05.79-.37,1.64-1.45,1.79-.1.01-.2.02-.29.02Z"/><path class="cls-11" d="M20.89,19.44c.05-.1.1-.2.16-.3.11-.21.23-.42.31-.66.08-.22.08-.47.08-.7,0-.13,0-.36.03-.42,0,0,0,0,.01,0,.06,0,.32-.06.87-.06.59,0,1.13.07,1.29.12.72.22,1.38,1.41,1.31,1.91-.01.07-.02.1-.17.1h-3.9Z"/><path class="cls-12" d="M11.66,19.44c-.04-.13-.08-.37-.07-.57.04-1.03,1.18-1.57,2.29-1.57.35,0,.68.06.96.16l.74,1.98h-3.92Z"/><path class="cls-13" d="M14.22,15.8c-.8,0-1.22-.64-1.29-1.28-.06-.57.17-1.31,1.01-1.48.12-.02.24-.04.35-.04.8,0,1.22.64,1.29,1.28.06.57-.17,1.31-1.01,1.48-.12.03-.24.04-.35.04Z"/><path class="cls-14" d="M22.46,15.8c-.8,0-1.22-.64-1.29-1.28-.06-.57.17-1.31,1.01-1.48.12-.02.24-.04.35-.04.8,0,1.22.64,1.29,1.28.06.57-.17,1.31-1.01,1.48-.12.03-.24.04-.35.04Z"/></svg>