<?xml version="1.0" encoding="UTF-8"?><svg id="Layer_4" xmlns="http://www.w3.org/2000/svg" xmlns:xlink="http://www.w3.org/1999/xlink" viewBox="0 0 36 36"><defs><style>.cls-1{filter:url(#drop-shadow-2);}.cls-2{fill:url(#linear-gradient-9);}.cls-3{fill:url(#linear-gradient-2);}.cls-4{fill:url(#linear-gradient-3);filter:url(#drop-shadow-4);}.cls-5{fill:url(#linear-gradient-4);filter:url(#drop-shadow-5);}.cls-6{fill:url(#linear-gradient-6);filter:url(#drop-shadow-7);}.cls-7{fill:url(#linear-gradient-5);filter:url(#drop-shadow-6);}.cls-8{fill:url(#linear-gradient-7);filter:url(#drop-shadow-8);}.cls-9{fill:url(#linear-gradient-8);filter:url(#drop-shadow-9);}.cls-10{fill:url(#linear-gradient-10);}.cls-11{fill:url(#linear-gradient-11);}.cls-12{fill:url(#linear-gradient-12);}.cls-13{fill:url(#linear-gradient-13);}.cls-14{fill:url(#linear-gradient-14);}.cls-15{fill:url(#linear-gradient);filter:url(#drop-shadow-3);}</style><filter id="drop-shadow-2" x="2.54" y="2.92" width="32.64" height="31.92" filterUnits="userSpaceOnUse"><feOffset dx="1.73" dy="1.73"/><feGaussianBlur result="blur" stdDeviation=".86"/><feFlood flood-color="#000" flood-opacity=".64"/><feComposite in2="blur" operator="in"/><feComposite in="SourceGraphic"/></filter><linearGradient id="linear-gradient" x1="7.76" y1="9.28" x2="27.97" y2="26.5" gradientUnits="userSpaceOnUse"><stop offset=".08" stop-color="#fff"/><stop offset=".17" stop-color="#e2c48b"/><stop offset=".39" stop-color="#e0c289"/><stop offset=".47" stop-color="#d9bc85"/><stop offset=".52" stop-color="#cdb17d"/><stop offset=".57" stop-color="#bca372"/><stop offset=".61" stop-color="#a68f64"/><stop offset=".64" stop-color="#8b7752"/><stop offset=".67" stop-color="#6b5c3d"/><stop offset=".69" stop-color="#4c4029"/><stop offset=".94" stop-color="#e2c48b"/></linearGradient><filter id="drop-shadow-3" x="2.54" y="2.92" width="32.64" height="31.92" filterUnits="userSpaceOnUse"><feOffset dx=".86" dy=".86"/><feGaussianBlur result="blur-2" stdDeviation=".86"/><feFlood flood-color="#000" flood-opacity=".75"/><feComposite in2="blur-2" operator="in"/><feComposite in="SourceGraphic"/></filter><linearGradient id="linear-gradient-2" x1="11.58" y1="24.14" x2="20.87" y2="34.34" gradientTransform="translate(.74 -12.46) rotate(.1)" gradientUnits="userSpaceOnUse"><stop offset="0" stop-color="#ee2c2c"/><stop offset=".17" stop-color="#e72a2b"/><stop offset=".41" stop-color="#d52729"/><stop offset=".69" stop-color="#b72126"/><stop offset=".7" stop-color="#b62126"/><stop offset=".73" stop-color="#c52226"/><stop offset=".78" stop-color="#d72328"/><stop offset=".82" stop-color="#e22428"/><stop offset=".88" stop-color="#e62529"/></linearGradient><linearGradient id="linear-gradient-3" x1="13.06" y1="23.03" x2="23.33" y2="23.03" gradientUnits="userSpaceOnUse"><stop offset=".08" stop-color="#b99c71"/><stop offset=".17" stop-color="#b28e55"/><stop offset=".45" stop-color="#b08c54"/><stop offset=".55" stop-color="#a98750"/><stop offset=".62" stop-color="#9d7d4a"/><stop offset=".68" stop-color="#8c7041"/><stop offset=".69" stop-color="#886d3f"/><stop offset=".94" stop-color="#b28e55"/></linearGradient><filter id="drop-shadow-4" x="13.06" y="20.9" width="11.13" height="5.12" filterUnits="userSpaceOnUse"><feOffset dx=".86" dy=".86"/><feGaussianBlur result="blur-3" stdDeviation="0"/><feFlood flood-color="#000" flood-opacity=".5"/><feComposite in2="blur-3" operator="in"/><feComposite in="SourceGraphic"/></filter><linearGradient id="linear-gradient-4" x1="15.67" y1="17.58" x2="20.8" y2="17.58" xlink:href="#linear-gradient-3"/><filter id="drop-shadow-5" x="15.67" y="15.01" width="5.99" height="6" filterUnits="userSpaceOnUse"><feOffset dx=".86" dy=".86"/><feGaussianBlur result="blur-4" stdDeviation="0"/><feFlood flood-color="#000" flood-opacity=".5"/><feComposite in2="blur-4" operator="in"/><feComposite in="SourceGraphic"/></filter><linearGradient id="linear-gradient-5" x1="20.79" y1="18.44" x2="26.87" y2="18.44" xlink:href="#linear-gradient-3"/><filter id="drop-shadow-6" x="20.79" y="16.64" width="6.94" height="4.46" filterUnits="userSpaceOnUse"><feOffset dx=".86" dy=".86"/><feGaussianBlur result="blur-5" stdDeviation="0"/><feFlood flood-color="#000" flood-opacity=".5"/><feComposite in2="blur-5" operator="in"/><feComposite in="SourceGraphic"/></filter><linearGradient id="linear-gradient-6" x1="9.79" y1="18.44" x2="15.85" y2="18.44" xlink:href="#linear-gradient-3"/><filter id="drop-shadow-7" x="9.79" y="16.63" width="6.93" height="4.47" filterUnits="userSpaceOnUse"><feOffset dx=".86" dy=".86"/><feGaussianBlur result="blur-6" stdDeviation="0"/><feFlood flood-color="#000" flood-opacity=".5"/><feComposite in2="blur-6" operator="in"/><feComposite in="SourceGraphic"/></filter><linearGradient id="linear-gradient-7" x1="11.4" y1="13.68" x2="15.63" y2="13.68" xlink:href="#linear-gradient-3"/><filter id="drop-shadow-8" x="11.4" y="11.48" width="5.1" height="5.26" filterUnits="userSpaceOnUse"><feOffset dx=".86" dy=".86"/><feGaussianBlur result="blur-7" stdDeviation="0"/><feFlood flood-color="#000" flood-opacity=".5"/><feComposite in2="blur-7" operator="in"/><feComposite in="SourceGraphic"/></filter><linearGradient id="linear-gradient-8" x1="21.28" y1="13.68" x2="25.51" y2="13.68" xlink:href="#linear-gradient-3"/><filter id="drop-shadow-9" x="21.28" y="11.48" width="5.1" height="5.26" filterUnits="userSpaceOnUse"><feOffset dx=".86" dy=".86"/><feGaussianBlur result="blur-8" stdDeviation="0"/><feFlood flood-color="#000" flood-opacity=".5"/><feComposite in2="blur-8" operator="in"/><feComposite in="SourceGraphic"/></filter><linearGradient id="linear-gradient-9" x1="8.03" y1="13.15" x2="22.65" y2="28.64" xlink:href="#linear-gradient"/><linearGradient id="linear-gradient-10" x1="11.22" y1="10.13" x2="25.84" y2="25.63" xlink:href="#linear-gradient"/><linearGradient id="linear-gradient-11" x1="13.4" y1="8.08" x2="28.02" y2="23.57" xlink:href="#linear-gradient"/><linearGradient id="linear-gradient-12" x1="7.6" y1="13.56" x2="22.22" y2="29.05" xlink:href="#linear-gradient"/><linearGradient id="linear-gradient-13" x1="10.66" y1="10.66" x2="25.28" y2="26.15" xlink:href="#linear-gradient"/><linearGradient id="linear-gradient-14" x1="15.89" y1="5.73" x2="30.51" y2="21.22" xlink:href="#linear-gradient"/></defs><g class="cls-1"><path class="cls-15" d="M18,31.17c-3.61,0-7.02-1.36-9.58-3.84-2.58-2.49-4-5.8-4-9.33,0-7.26,6.09-13.17,13.58-13.17,3.61,0,7.02,1.36,9.58,3.84,2.58,2.49,4,5.8,4,9.33,0,7.26-6.09,13.17-13.58,13.17Z"/><ellipse class="cls-3" cx="18" cy="18" rx="11.85" ry="11.44" transform="translate(-1.91 2.14) rotate(-6.47)"/><path class="cls-4" d="M23.26,25.16h-9.75c-1.1,0-.13-3.8,2.47-4.11,3.27-.38,7.95-.37,7.28,4.11Z"/><path class="cls-5" d="M17.41,15.11c3.9-.89,4.6,4.55,1.19,5.01s-4-4.37-1.19-5.01Z"/><path class="cls-7" d="M20.79,20.24c.04-.69.52-1.18.76-1.84.15-.41-.04-1.11.19-1.45.3-.45,2.62-.31,3.19-.13,1.47.45,2.83,3.43,1.22,3.43h-5.35Z"/><path class="cls-6" d="M15.85,20.24h-5.63c-.36,0-.44-.88-.43-1.22.08-2.16,3.17-2.87,4.83-2.06l1.23,3.29Z"/><path class="cls-8" d="M13.03,11.54c2.88-.6,3.61,3.73.97,4.28-2.88.6-3.61-3.73-.97-4.28Z"/><path class="cls-9" d="M22.91,11.54c2.88-.6,3.61,3.73.97,4.28-2.88.6-3.61-3.73-.97-4.28Z"/></g><path class="cls-2" d="M13.6,24.65c-.04-.19-.02-.7.3-1.36.23-.47.89-1.57,2.14-1.72.85-.1,1.6-.15,2.28-.15,1.93,0,3.24.4,3.92,1.18.43.5.62,1.17.56,2.04h-9.2Z"/><path class="cls-10" d="M18.19,19.63c-1.22,0-1.88-.96-1.99-1.91-.1-.88.27-1.87,1.32-2.11.25-.06.49-.08.71-.08,1.31,0,1.97.97,2.03,1.93.06.94-.45,1.97-1.74,2.15-.12.02-.23.02-.35.02Z"/><path class="cls-11" d="M21.47,19.72c.06-.12.12-.24.19-.36.14-.25.28-.51.38-.79.09-.27.09-.56.09-.84,0-.16,0-.43.04-.5,0,0,0,0,.01,0,.07,0,.39-.07,1.04-.07.71,0,1.35.08,1.55.14.86.26,1.66,1.69,1.57,2.29-.01.09-.02.13-.2.13h-4.68Z"/><path class="cls-12" d="M10.39,19.72c-.05-.16-.09-.45-.08-.69.05-1.24,1.42-1.89,2.75-1.89.42,0,.82.07,1.15.2l.89,2.38h-4.71Z"/><path class="cls-13" d="M13.47,15.36c-.96,0-1.47-.77-1.54-1.54-.07-.69.2-1.57,1.21-1.78.15-.03.29-.05.42-.05.96,0,1.47.77,1.54,1.54.07.69-.2,1.57-1.21,1.77-.15.03-.29.05-.42.05Z"/><path class="cls-14" d="M23.35,15.36c-.96,0-1.46-.77-1.54-1.54-.07-.69.2-1.57,1.21-1.78.15-.03.29-.05.42-.05.96,0,1.47.77,1.54,1.54.07.69-.2,1.57-1.21,1.77-.15.03-.29.05-.42.05Z"/></svg>