<?xml version="1.0" encoding="UTF-8"?><svg id="Layer_4" xmlns="http://www.w3.org/2000/svg" xmlns:xlink="http://www.w3.org/1999/xlink" viewBox="0 0 36 36"><defs><style>.cls-1{filter:url(#drop-shadow-9);}.cls-2{fill:url(#linear-gradient-2);}.cls-3{filter:url(#drop-shadow-17);}.cls-3,.cls-4,.cls-5,.cls-6,.cls-7,.cls-8{fill:#231f20;}.cls-4{filter:url(#drop-shadow-14);}.cls-5{filter:url(#drop-shadow-13);}.cls-6{filter:url(#drop-shadow-16);}.cls-7{filter:url(#drop-shadow-18);}.cls-8{filter:url(#drop-shadow-15);}.cls-9{fill:url(#linear-gradient);filter:url(#drop-shadow-10);}</style><filter id="drop-shadow-9" x="4.65" y="5.13" width="29" height="28" filterUnits="userSpaceOnUse"><feOffset dx="1.44" dy="1.44"/><feGaussianBlur result="blur" stdDeviation=".72"/><feFlood flood-color="#000" flood-opacity=".64"/><feComposite in2="blur" operator="in"/><feComposite in="SourceGraphic"/></filter><linearGradient id="linear-gradient" x1="9.47" y1="10.38" x2="26.31" y2="24.73" gradientUnits="userSpaceOnUse"><stop offset="0" stop-color="#4c4029"/><stop offset=".16" stop-color="#4f432b"/><stop offset=".31" stop-color="#5b4d33"/><stop offset=".46" stop-color="#6f5e3f"/><stop offset=".61" stop-color="#8a7651"/><stop offset=".76" stop-color="#ad9568"/><stop offset=".91" stop-color="#d8bb84"/><stop offset=".94" stop-color="#e2c48b"/></linearGradient><filter id="drop-shadow-10" x="4.65" y="5.13" width="29" height="28" filterUnits="userSpaceOnUse"><feOffset dx=".72" dy=".72"/><feGaussianBlur result="blur-2" stdDeviation=".72"/><feFlood flood-color="#000" flood-opacity=".75"/><feComposite in2="blur-2" operator="in"/><feComposite in="SourceGraphic"/></filter><linearGradient id="linear-gradient-2" x1="7.57" y1="24.56" x2="15.31" y2="33.06" gradientTransform="translate(5.7 -12.17) rotate(.1)" gradientUnits="userSpaceOnUse"><stop offset=".5" stop-color="#b62126"/><stop offset=".63" stop-color="#c42327"/><stop offset=".84" stop-color="#d6272a"/><stop offset="1" stop-color="#dd292b"/></linearGradient><filter id="drop-shadow-13" x="13.38" y="19.57" width="9.05" height="4.05" filterUnits="userSpaceOnUse"><feOffset dx="-.5" dy="-.5"/><feGaussianBlur result="blur-3" stdDeviation="0"/><feFlood flood-color="#000" flood-opacity=".5"/><feComposite in2="blur-3" operator="in"/><feComposite in="SourceGraphic"/></filter><filter id="drop-shadow-14" x="15.56" y="14.65" width="4.77" height="4.79" filterUnits="userSpaceOnUse"><feOffset dx="-.5" dy="-.5"/><feGaussianBlur result="blur-4" stdDeviation="0"/><feFlood flood-color="#000" flood-opacity=".5"/><feComposite in2="blur-4" operator="in"/><feComposite in="SourceGraphic"/></filter><filter id="drop-shadow-15" x="19.82" y="16.02" width="5.57" height="3.5" filterUnits="userSpaceOnUse"><feOffset dx="-.5" dy="-.5"/><feGaussianBlur result="blur-5" stdDeviation="0"/><feFlood flood-color="#000" flood-opacity=".5"/><feComposite in2="blur-5" operator="in"/><feComposite in="SourceGraphic"/></filter><filter id="drop-shadow-16" x="10.65" y="16.01" width="5.56" height="3.51" filterUnits="userSpaceOnUse"><feOffset dx="-.5" dy="-.5"/><feGaussianBlur result="blur-6" stdDeviation="0"/><feFlood flood-color="#000" flood-opacity=".5"/><feComposite in2="blur-6" operator="in"/><feComposite in="SourceGraphic"/></filter><filter id="drop-shadow-17" x="11.99" y="11.72" width="4.03" height="4.16" filterUnits="userSpaceOnUse"><feOffset dx="-.5" dy="-.5"/><feGaussianBlur result="blur-7" stdDeviation="0"/><feFlood flood-color="#000" flood-opacity=".5"/><feComposite in2="blur-7" operator="in"/><feComposite in="SourceGraphic"/></filter><filter id="drop-shadow-18" x="20.23" y="11.72" width="4.03" height="4.16" filterUnits="userSpaceOnUse"><feOffset dx="-.5" dy="-.5"/><feGaussianBlur result="blur-8" stdDeviation="0"/><feFlood flood-color="#000" flood-opacity=".5"/><feComposite in2="blur-8" operator="in"/><feComposite in="SourceGraphic"/></filter></defs><g class="cls-1"><path class="cls-9" d="M18,28.63c-3.01,0-5.85-1.14-7.98-3.2-2.15-2.07-3.33-4.84-3.33-7.78,0-6.05,5.08-10.97,11.31-10.97,3.01,0,5.85,1.14,7.98,3.2,2.15,2.08,3.33,4.84,3.33,7.78,0,6.05-5.08,10.98-11.31,10.98Z"/><ellipse class="cls-2" cx="18" cy="17.65" rx="9.87" ry="9.54" transform="translate(-1.87 2.14) rotate(-6.47)"/></g><path class="cls-5" d="M22.38,23.62h-8.12c-.92,0-.11-3.17,2.05-3.42,2.72-.32,6.63-.31,6.07,3.42Z"/><path class="cls-4" d="M17.51,15.24c3.25-.74,3.83,3.8.99,4.18s-3.33-3.64-.99-4.18Z"/><path class="cls-8" d="M20.32,19.52c.04-.57.44-.98.63-1.54.12-.35-.04-.93.16-1.21.25-.37,2.18-.26,2.66-.11,1.22.37,2.36,2.86,1.02,2.86h-4.46Z"/><path class="cls-6" d="M16.21,19.52h-4.69c-.3,0-.37-.74-.36-1.02.07-1.8,2.64-2.39,4.02-1.72l1.03,2.74Z"/><path class="cls-3" d="M13.86,12.27c2.4-.5,3,3.11.81,3.57-2.4.5-3-3.11-.81-3.57Z"/><path class="cls-7" d="M22.09,12.27c2.4-.5,3,3.11.81,3.57-2.4.5-3-3.11-.81-3.57Z"/></svg>